G04 #@! TF.GenerationSoftware,KiCad,Pcbnew,(5.1.5-0-10_14)*
G04 #@! TF.CreationDate,2020-10-09T16:59:21-04:00*
G04 #@! TF.ProjectId,AYOM - VCA Panel,41594f4d-202d-4205-9643-412050616e65,rev?*
G04 #@! TF.SameCoordinates,Original*
G04 #@! TF.FileFunction,Legend,Top*
G04 #@! TF.FilePolarity,Positive*
%FSLAX46Y46*%
G04 Gerber Fmt 4.6, Leading zero omitted, Abs format (unit mm)*
G04 Created by KiCad (PCBNEW (5.1.5-0-10_14)) date 2020-10-09 16:59:21*
%MOMM*%
%LPD*%
G04 APERTURE LIST*
%ADD10C,0.100000*%
G04 APERTURE END LIST*
D10*
G36*
X145441020Y-153505580D02*
G01*
X145421264Y-153511577D01*
X145403978Y-153521455D01*
X145388456Y-153533802D01*
X145375756Y-153548972D01*
X145366231Y-153566963D01*
X145360234Y-153586719D01*
X145358117Y-153607533D01*
X145360234Y-153628347D01*
X145366231Y-153648102D01*
X145375756Y-153665741D01*
X145388456Y-153681263D01*
X145403978Y-153693611D01*
X145421264Y-153703488D01*
X145441020Y-153709486D01*
X145461834Y-153711602D01*
X145482648Y-153709486D01*
X145502403Y-153703488D01*
X145520042Y-153693611D01*
X145535212Y-153681263D01*
X145548264Y-153665741D01*
X145557789Y-153648102D01*
X145563434Y-153628347D01*
X145566256Y-153607533D01*
X145563434Y-153586719D01*
X145557789Y-153566963D01*
X145548264Y-153548972D01*
X145535212Y-153533802D01*
X145520042Y-153521455D01*
X145502403Y-153511577D01*
X145482648Y-153505580D01*
X145461834Y-153503463D01*
X145441020Y-153505580D01*
G37*
G36*
X148613303Y-153946440D02*
G01*
X147193372Y-153608832D01*
X147170795Y-153615887D01*
X147148922Y-153622237D01*
X147126345Y-153629293D01*
X147104120Y-153635643D01*
X147081542Y-153642698D01*
X147059670Y-153649048D01*
X147037092Y-153656104D01*
X147014867Y-153662454D01*
X146992642Y-153669509D01*
X146970417Y-153676212D01*
X146947839Y-153682915D01*
X146925614Y-153689618D01*
X146903389Y-153696321D01*
X146881164Y-153703376D01*
X146858586Y-153709726D01*
X146836361Y-153716782D01*
X146836361Y-153702671D01*
X146836361Y-153688207D01*
X146836361Y-153674096D01*
X146836361Y-153659984D01*
X146836361Y-153645168D01*
X146836361Y-153631057D01*
X146836361Y-153616946D01*
X146836361Y-153602834D01*
X146836361Y-153588371D01*
X146836361Y-153574259D01*
X146836361Y-153560148D01*
X146836361Y-153546037D01*
X146836361Y-153531573D01*
X146836361Y-153517462D01*
X146836361Y-153503351D01*
X146836361Y-153488887D01*
X146858586Y-153495943D01*
X146881164Y-153502646D01*
X146903389Y-153509348D01*
X146925614Y-153516051D01*
X146947839Y-153523107D01*
X146970417Y-153529457D01*
X146992642Y-153536512D01*
X147014867Y-153543215D01*
X147037092Y-153549918D01*
X147059670Y-153556973D01*
X147081542Y-153563676D01*
X147104120Y-153570379D01*
X147126345Y-153577082D01*
X147148922Y-153584137D01*
X147170795Y-153590487D01*
X147193372Y-153597543D01*
X147193372Y-153598248D01*
X147193372Y-153598954D01*
X147193372Y-153599659D01*
X147193372Y-153600365D01*
X147193372Y-153601071D01*
X147193372Y-153601423D01*
X147193372Y-153602129D01*
X147193372Y-153603187D01*
X147193372Y-153603893D01*
X147193372Y-153604598D01*
X147193372Y-153605304D01*
X147193372Y-153606009D01*
X147193372Y-153606715D01*
X147193372Y-153607421D01*
X147193372Y-153608126D01*
X147193372Y-153608832D01*
X148613303Y-153946440D01*
X148751592Y-153051090D01*
X148626003Y-153090601D01*
X148500767Y-153130465D01*
X148375178Y-153170329D01*
X148249942Y-153209840D01*
X148124353Y-153249351D01*
X147999117Y-153289215D01*
X147873528Y-153329079D01*
X147748645Y-153368590D01*
X147623056Y-153408454D01*
X147497820Y-153447965D01*
X147372231Y-153487829D01*
X147372231Y-153487476D01*
X147339422Y-153477246D01*
X147306261Y-153467368D01*
X147273100Y-153456784D01*
X147239939Y-153446554D01*
X147207131Y-153436676D01*
X147173970Y-153426093D01*
X147140809Y-153415862D01*
X147107647Y-153405984D01*
X147074839Y-153395401D01*
X147042031Y-153385171D01*
X147008870Y-153375293D01*
X146975709Y-153365062D01*
X146942900Y-153354479D01*
X146909739Y-153344601D01*
X146876578Y-153334371D01*
X146843417Y-153323787D01*
X146851531Y-153252879D01*
X146862820Y-153185851D01*
X146877636Y-153122704D01*
X146895628Y-153063790D01*
X146916795Y-153009109D01*
X146941842Y-152958662D01*
X146969711Y-152912801D01*
X147001109Y-152871526D01*
X147035681Y-152834837D01*
X147074134Y-152802382D01*
X147115409Y-152774865D01*
X147160211Y-152752287D01*
X147208542Y-152734296D01*
X147260047Y-152721596D01*
X147314728Y-152713834D01*
X147372936Y-152711365D01*
X147417739Y-152713129D01*
X147459367Y-152718068D01*
X147499231Y-152726182D01*
X147535920Y-152737118D01*
X147570492Y-152751229D01*
X147602947Y-152768162D01*
X147632934Y-152787565D01*
X147660803Y-152809437D01*
X147686556Y-152833779D01*
X147710545Y-152859884D01*
X147733122Y-152888107D01*
X147753231Y-152918446D01*
X147772281Y-152950196D01*
X147789920Y-152983709D01*
X147806147Y-153018634D01*
X147820611Y-153054971D01*
X147829784Y-153050737D01*
X147839309Y-153046151D01*
X147848481Y-153042271D01*
X147857300Y-153038037D01*
X147866825Y-153033804D01*
X147875997Y-153029571D01*
X147885170Y-153025690D01*
X147894342Y-153021457D01*
X147903514Y-153017223D01*
X147913039Y-153012990D01*
X147921859Y-153009109D01*
X147931031Y-153004876D01*
X147940556Y-153000643D01*
X147949375Y-152996762D01*
X147958900Y-152992529D01*
X147968072Y-152988296D01*
X147949728Y-152945609D01*
X147929620Y-152903629D01*
X147907395Y-152863412D01*
X147882700Y-152824254D01*
X147856242Y-152787212D01*
X147826961Y-152751582D01*
X147794859Y-152719126D01*
X147760286Y-152688434D01*
X147723245Y-152660212D01*
X147682675Y-152635518D01*
X147639636Y-152613998D01*
X147593070Y-152595654D01*
X147543328Y-152580837D01*
X147490059Y-152570254D01*
X147433261Y-152563551D01*
X147372936Y-152561082D01*
X147300970Y-152563904D01*
X147232884Y-152572018D01*
X147168325Y-152586482D01*
X147107647Y-152605884D01*
X147050850Y-152630932D01*
X146997934Y-152661623D01*
X146948545Y-152697959D01*
X146903389Y-152739940D01*
X146861761Y-152787212D01*
X146824014Y-152839776D01*
X146790147Y-152898337D01*
X146759809Y-152962190D01*
X146733350Y-153031334D01*
X146710772Y-153106476D01*
X146692075Y-153186909D01*
X146676906Y-153272634D01*
X146594356Y-153247234D01*
X146512159Y-153221482D01*
X146429609Y-153195729D01*
X146347059Y-153170329D01*
X146264861Y-153144929D01*
X146182311Y-153119176D01*
X146099761Y-153093776D01*
X146017564Y-153068376D01*
X145935014Y-153042623D01*
X145852464Y-153017223D01*
X145769914Y-152991823D01*
X145687717Y-152966423D01*
X145605520Y-152940671D01*
X145522617Y-152915271D01*
X145440420Y-152889871D01*
X145357870Y-152864471D01*
X145357870Y-152875407D01*
X145357870Y-152886343D01*
X145357870Y-152897279D01*
X145357870Y-152908215D01*
X145357870Y-152919151D01*
X145357870Y-152930087D01*
X145357870Y-152941023D01*
X145357870Y-152952312D01*
X145357870Y-152963248D01*
X145357870Y-152974184D01*
X145357870Y-152985121D01*
X145357870Y-152996057D01*
X145357870Y-153006993D01*
X145357870Y-153017929D01*
X145357870Y-153028865D01*
X145357870Y-153040154D01*
X145439361Y-153064848D01*
X145520500Y-153089190D01*
X145601992Y-153114237D01*
X145683131Y-153138932D01*
X145764623Y-153163626D01*
X145845761Y-153188321D01*
X145927606Y-153213015D01*
X146008745Y-153237709D01*
X146090236Y-153262404D01*
X146171375Y-153287098D01*
X146252867Y-153311793D01*
X146334006Y-153336487D01*
X146415497Y-153361182D01*
X146496989Y-153385876D01*
X146578128Y-153410571D01*
X146659620Y-153435265D01*
X146658914Y-153445496D01*
X146658209Y-153455726D01*
X146657503Y-153465957D01*
X146656797Y-153476187D01*
X146656092Y-153486418D01*
X146655386Y-153496648D01*
X146654681Y-153506879D01*
X146654328Y-153517109D01*
X146653622Y-153527693D01*
X146653270Y-153538276D01*
X146652564Y-153548859D01*
X146652211Y-153559443D01*
X146651859Y-153570379D01*
X146651859Y-153580962D01*
X146651506Y-153591898D01*
X146651506Y-153603187D01*
X146651506Y-153614476D01*
X146651859Y-153625059D01*
X146651859Y-153635996D01*
X146652211Y-153646579D01*
X146652564Y-153657162D01*
X146653270Y-153667746D01*
X146653622Y-153677976D01*
X146654328Y-153688559D01*
X146654681Y-153698790D01*
X146655386Y-153709021D01*
X146656092Y-153718898D01*
X146656797Y-153729482D01*
X146657503Y-153739359D01*
X146658209Y-153749590D01*
X146658914Y-153759821D01*
X146659620Y-153770051D01*
X146578128Y-153794393D01*
X146496636Y-153819087D01*
X146415497Y-153843782D01*
X146334006Y-153868123D01*
X146252867Y-153892818D01*
X146171375Y-153917512D01*
X146090236Y-153941854D01*
X146008745Y-153966548D01*
X145927253Y-153991243D01*
X145845761Y-154015584D01*
X145764623Y-154040279D01*
X145683131Y-154064621D01*
X145601992Y-154089315D01*
X145520500Y-154114009D01*
X145439361Y-154138351D01*
X145357870Y-154163046D01*
X145357870Y-154174334D01*
X145357870Y-154186329D01*
X145357870Y-154197618D01*
X145357870Y-154209259D01*
X145357870Y-154220548D01*
X145357870Y-154232543D01*
X145357870Y-154243832D01*
X145357870Y-154255473D01*
X145357870Y-154266762D01*
X145357870Y-154278404D01*
X145357870Y-154290046D01*
X145357870Y-154301687D01*
X145357870Y-154312976D01*
X145357870Y-154324618D01*
X145357870Y-154335907D01*
X145357870Y-154347901D01*
X145440420Y-154322148D01*
X145522970Y-154296748D01*
X145605520Y-154271348D01*
X145687717Y-154245596D01*
X145770267Y-154219843D01*
X145852817Y-154194443D01*
X145935367Y-154169043D01*
X146017917Y-154143643D01*
X146100467Y-154117890D01*
X146182664Y-154092490D01*
X146265567Y-154067090D01*
X146347764Y-154041690D01*
X146430667Y-154015937D01*
X146512864Y-153990537D01*
X146595061Y-153964784D01*
X146677964Y-153939032D01*
X146693134Y-154024404D01*
X146711831Y-154104132D01*
X146734761Y-154178215D01*
X146761220Y-154247359D01*
X146791559Y-154310507D01*
X146825425Y-154368362D01*
X146863172Y-154420926D01*
X146904800Y-154468198D01*
X146949956Y-154509473D01*
X146999345Y-154545104D01*
X147051909Y-154575796D01*
X147108353Y-154600490D01*
X147169031Y-154620246D01*
X147233236Y-154634004D01*
X147301322Y-154642471D01*
X147372936Y-154644940D01*
X147433261Y-154643176D01*
X147490059Y-154636121D01*
X147543328Y-154625537D01*
X147593070Y-154611073D01*
X147639636Y-154592729D01*
X147682675Y-154571209D01*
X147723245Y-154545809D01*
X147760286Y-154518293D01*
X147794859Y-154487601D01*
X147826961Y-154454440D01*
X147856242Y-154419515D01*
X147882700Y-154382121D01*
X147907395Y-154343315D01*
X147929620Y-154302746D01*
X147949728Y-154261118D01*
X147968072Y-154218079D01*
X147958900Y-154213846D01*
X147949375Y-154209612D01*
X147940556Y-154205379D01*
X147931031Y-154201498D01*
X147921859Y-154197265D01*
X147913039Y-154193032D01*
X147903514Y-154188798D01*
X147894342Y-154184918D01*
X147885170Y-154180684D01*
X147875997Y-154176451D01*
X147866825Y-154172571D01*
X147857300Y-154168337D01*
X147848481Y-154164104D01*
X147839309Y-154159871D01*
X147829784Y-154155990D01*
X147820611Y-154151757D01*
X147806147Y-154188093D01*
X147789920Y-154222665D01*
X147772281Y-154256179D01*
X147753231Y-154287929D01*
X147733122Y-154318268D01*
X147710545Y-154346490D01*
X147686556Y-154372596D01*
X147660803Y-154396584D01*
X147632934Y-154418809D01*
X147602947Y-154438212D01*
X147570492Y-154454793D01*
X147535920Y-154468904D01*
X147499231Y-154480193D01*
X147459367Y-154488307D01*
X147417739Y-154493246D01*
X147372936Y-154495009D01*
X147315081Y-154492540D01*
X147260400Y-154484779D01*
X147209247Y-154472079D01*
X147160917Y-154454440D01*
X147116467Y-154431862D01*
X147075192Y-154404698D01*
X147036739Y-154372948D01*
X147002167Y-154336259D01*
X146970770Y-154295337D01*
X146942900Y-154249829D01*
X146917853Y-154200087D01*
X146896686Y-154145759D01*
X146878342Y-154087198D01*
X146863525Y-154025109D01*
X146852236Y-153958434D01*
X146843770Y-153887879D01*
X146876931Y-153878001D01*
X146910092Y-153867418D01*
X146942900Y-153857187D01*
X146975709Y-153847309D01*
X147008870Y-153836726D01*
X147042031Y-153826496D01*
X147075192Y-153816618D01*
X147108000Y-153806387D01*
X147141161Y-153795804D01*
X147174322Y-153785926D01*
X147207131Y-153775696D01*
X147239939Y-153765112D01*
X147273100Y-153755234D01*
X147306261Y-153745004D01*
X147339422Y-153734421D01*
X147372231Y-153724543D01*
X147372231Y-153724190D01*
X147372231Y-153723837D01*
X147372231Y-153723484D01*
X147372231Y-153723132D01*
X147372231Y-153722779D01*
X147372231Y-153722426D01*
X147372231Y-153722073D01*
X147372231Y-153721721D01*
X147372231Y-153721368D01*
X147497820Y-153761584D01*
X147623056Y-153801096D01*
X147748645Y-153840959D01*
X147873528Y-153880823D01*
X147999117Y-153920687D01*
X148124353Y-153960551D01*
X148249942Y-154000415D01*
X148375178Y-154040279D01*
X148500767Y-154080143D01*
X148626003Y-154120007D01*
X148751592Y-154159518D01*
X148876828Y-154199734D01*
X149002417Y-154239598D01*
X149127300Y-154279462D01*
X149252536Y-154319326D01*
X149378125Y-154359190D01*
X149378125Y-154348254D01*
X149378125Y-154336612D01*
X149378125Y-154325676D01*
X149378125Y-154314387D01*
X149378125Y-154303451D01*
X149378125Y-154291809D01*
X149378125Y-154280873D01*
X149378125Y-154269937D01*
X149378125Y-154258648D01*
X149378125Y-154247712D01*
X149378125Y-154236071D01*
X149378125Y-154225134D01*
X149378125Y-154214198D01*
X149378125Y-154202909D01*
X149378125Y-154191621D01*
X149378125Y-154180332D01*
X149340025Y-154168337D01*
X149301220Y-154156343D01*
X149263120Y-154144348D01*
X149224314Y-154132001D01*
X149186214Y-154120007D01*
X149147761Y-154108012D01*
X149109309Y-154095665D01*
X149070856Y-154083671D01*
X149032050Y-154071323D01*
X148993950Y-154059329D01*
X148955497Y-154047334D01*
X148917045Y-154035340D01*
X148878592Y-154023346D01*
X148840492Y-154011351D01*
X148801686Y-153998651D01*
X148763586Y-153986657D01*
X148763586Y-153939032D01*
X148763586Y-153891759D01*
X148763586Y-153844134D01*
X148763586Y-153796157D01*
X148763586Y-153748532D01*
X148763586Y-153701259D01*
X148763586Y-153653634D01*
X148763586Y-153605657D01*
X148763586Y-153558032D01*
X148763586Y-153510759D01*
X148763586Y-153462782D01*
X148763586Y-153415157D01*
X148763586Y-153367532D01*
X148763586Y-153320259D01*
X148763586Y-153272282D01*
X148763586Y-153224657D01*
X148801686Y-153213015D01*
X148840492Y-153201021D01*
X148878592Y-153189379D01*
X148917045Y-153177032D01*
X148955497Y-153165037D01*
X148993950Y-153153396D01*
X149032050Y-153141401D01*
X149070856Y-153129759D01*
X149109309Y-153117412D01*
X149147761Y-153105771D01*
X149186214Y-153093776D01*
X149224314Y-153082134D01*
X149263120Y-153070140D01*
X149301220Y-153058146D01*
X149340025Y-153046151D01*
X149378125Y-153034157D01*
X149378125Y-153022868D01*
X149378125Y-153011579D01*
X149378125Y-152999937D01*
X149378125Y-152988648D01*
X149378125Y-152977712D01*
X149378125Y-152966423D01*
X149378125Y-152954782D01*
X149378125Y-152943493D01*
X149378125Y-152932204D01*
X149378125Y-152920915D01*
X149378125Y-152909626D01*
X149378125Y-152897984D01*
X149378125Y-152886696D01*
X149378125Y-152875407D01*
X149378125Y-152864118D01*
X149378125Y-152852476D01*
X149252536Y-152892340D01*
X149127300Y-152931851D01*
X149002417Y-152971362D01*
X148876828Y-153011579D01*
X148751592Y-153051090D01*
X148613303Y-153946440D01*
X148546981Y-153925979D01*
X148480306Y-153905518D01*
X148413631Y-153884704D01*
X148346956Y-153864243D01*
X148280634Y-153843782D01*
X148213959Y-153822968D01*
X148147636Y-153802507D01*
X148080961Y-153782046D01*
X148014286Y-153761584D01*
X147947611Y-153740771D01*
X147881289Y-153719957D01*
X147814614Y-153699848D01*
X147748292Y-153679034D01*
X147681264Y-153658573D01*
X147614942Y-153638112D01*
X147548267Y-153617298D01*
X147548267Y-153615887D01*
X147548267Y-153615182D01*
X147548267Y-153613771D01*
X147548267Y-153612359D01*
X147548267Y-153611301D01*
X147548267Y-153609890D01*
X147548267Y-153608832D01*
X147548267Y-153607421D01*
X147548267Y-153606009D01*
X147548267Y-153604951D01*
X147548267Y-153603540D01*
X147548267Y-153602482D01*
X147548267Y-153601071D01*
X147548267Y-153600012D01*
X147548267Y-153598954D01*
X147548267Y-153597543D01*
X147614942Y-153576729D01*
X147681264Y-153556621D01*
X147748292Y-153535807D01*
X147814614Y-153514993D01*
X147881289Y-153494532D01*
X147947611Y-153474071D01*
X148014286Y-153453609D01*
X148080961Y-153432796D01*
X148147636Y-153412334D01*
X148213959Y-153391873D01*
X148280634Y-153371059D01*
X148346956Y-153350598D01*
X148413631Y-153330137D01*
X148480306Y-153309323D01*
X148546981Y-153288862D01*
X148613303Y-153268401D01*
X148613303Y-153310734D01*
X148613303Y-153353068D01*
X148613303Y-153395401D01*
X148613303Y-153438087D01*
X148613303Y-153480421D01*
X148613303Y-153522754D01*
X148613303Y-153565087D01*
X148613303Y-153607421D01*
X148613303Y-153649754D01*
X148613303Y-153692087D01*
X148613303Y-153734421D01*
X148613303Y-153777107D01*
X148613303Y-153819440D01*
X148613303Y-153861773D01*
X148613303Y-153904107D01*
X148613303Y-153946440D01*
G37*
G36*
X149907610Y-151792240D02*
G01*
X149907610Y-151923121D01*
X149944299Y-151924884D01*
X149980282Y-151930529D01*
X150014854Y-151939348D01*
X150047663Y-151951343D01*
X150079413Y-151966512D01*
X150109046Y-151984504D01*
X150136563Y-152005318D01*
X150162668Y-152028601D01*
X150185599Y-152054001D01*
X150206413Y-152081871D01*
X150224404Y-152111504D01*
X150239574Y-152143254D01*
X150251921Y-152176415D01*
X150260741Y-152210987D01*
X150266385Y-152246618D01*
X150267796Y-152283659D01*
X150267796Y-152448407D01*
X150267796Y-152613507D01*
X150267796Y-152778254D01*
X150267796Y-152943354D01*
X150267796Y-153108101D01*
X150267796Y-153273201D01*
X150267796Y-153438301D01*
X150267796Y-153603401D01*
X150267796Y-153768148D01*
X150267796Y-153932896D01*
X150267796Y-154097996D01*
X150267796Y-154263096D01*
X150267796Y-154428195D01*
X150267796Y-154592943D01*
X150267796Y-154757690D01*
X150267796Y-154922790D01*
X150266385Y-154959832D01*
X150260741Y-154995462D01*
X150251921Y-155030034D01*
X150239574Y-155062843D01*
X150224404Y-155094593D01*
X150206413Y-155124226D01*
X150185599Y-155152095D01*
X150162668Y-155177848D01*
X150136563Y-155201132D01*
X150109046Y-155221945D01*
X150079413Y-155239584D01*
X150047663Y-155254754D01*
X150014854Y-155267101D01*
X149980282Y-155275920D01*
X149944299Y-155281565D01*
X149907610Y-155283329D01*
X149590110Y-155283329D01*
X149272610Y-155283329D01*
X148955463Y-155283329D01*
X148637610Y-155283329D01*
X148320463Y-155283329D01*
X148002963Y-155283329D01*
X147685463Y-155283329D01*
X147367963Y-155283329D01*
X147050463Y-155283329D01*
X146733316Y-155283329D01*
X146415816Y-155283329D01*
X146098316Y-155283329D01*
X145780816Y-155283329D01*
X145463316Y-155283329D01*
X145145816Y-155283329D01*
X144828668Y-155283329D01*
X144791627Y-155281565D01*
X144755643Y-155275920D01*
X144721424Y-155267101D01*
X144688263Y-155254754D01*
X144656513Y-155239584D01*
X144626880Y-155221945D01*
X144599010Y-155201132D01*
X144573610Y-155177848D01*
X144550327Y-155152095D01*
X144529513Y-155124226D01*
X144511521Y-155094593D01*
X144496352Y-155062843D01*
X144484357Y-155030034D01*
X144475538Y-154995462D01*
X144469893Y-154959832D01*
X144468130Y-154922790D01*
X144468130Y-154757690D01*
X144468130Y-154592943D01*
X144468130Y-154428195D01*
X144468130Y-154263096D01*
X144468130Y-154097996D01*
X144468130Y-153932896D01*
X144468130Y-153768148D01*
X144468130Y-153603401D01*
X144468130Y-153438301D01*
X144468130Y-153273201D01*
X144468130Y-153108101D01*
X144468130Y-152943354D01*
X144468130Y-152778254D01*
X144468130Y-152613507D01*
X144468130Y-152448407D01*
X144468130Y-152283659D01*
X144469893Y-152246618D01*
X144475538Y-152210987D01*
X144484357Y-152176415D01*
X144496352Y-152143254D01*
X144511521Y-152111504D01*
X144529513Y-152081871D01*
X144550327Y-152054001D01*
X144573610Y-152028601D01*
X144599010Y-152005318D01*
X144626880Y-151984504D01*
X144656513Y-151966512D01*
X144688263Y-151951343D01*
X144721424Y-151939348D01*
X144755643Y-151930529D01*
X144791627Y-151924884D01*
X144828668Y-151923121D01*
X145145816Y-151923121D01*
X145463316Y-151923121D01*
X145780816Y-151923121D01*
X146098316Y-151923121D01*
X146415816Y-151923121D01*
X146733316Y-151923121D01*
X147050463Y-151923121D01*
X147367963Y-151923121D01*
X147685463Y-151923121D01*
X148002963Y-151923121D01*
X148320463Y-151923121D01*
X148637610Y-151923121D01*
X148955463Y-151923121D01*
X149272610Y-151923121D01*
X149590110Y-151923121D01*
X149907610Y-151923121D01*
X149907610Y-151792240D01*
X149590110Y-151792240D01*
X149272610Y-151792240D01*
X148955463Y-151792240D01*
X148637610Y-151792240D01*
X148320463Y-151792240D01*
X148002963Y-151792240D01*
X147685463Y-151792240D01*
X147367963Y-151792240D01*
X147050463Y-151792240D01*
X146733316Y-151792240D01*
X146415816Y-151792240D01*
X146098316Y-151792240D01*
X145780816Y-151792240D01*
X145463316Y-151792240D01*
X145145816Y-151792240D01*
X144828668Y-151792240D01*
X144778221Y-151795062D01*
X144729538Y-151802118D01*
X144682266Y-151814112D01*
X144637816Y-151830693D01*
X144594424Y-151851859D01*
X144553855Y-151876201D01*
X144516460Y-151904423D01*
X144481182Y-151936173D01*
X144449432Y-151971451D01*
X144421210Y-152008846D01*
X144396868Y-152049415D01*
X144376055Y-152092454D01*
X144359474Y-152137609D01*
X144347127Y-152184529D01*
X144340071Y-152233212D01*
X144337249Y-152283659D01*
X144337249Y-152448407D01*
X144337249Y-152613507D01*
X144337249Y-152778254D01*
X144337249Y-152943354D01*
X144337249Y-153108101D01*
X144337249Y-153273201D01*
X144337249Y-153438301D01*
X144337249Y-153603401D01*
X144337249Y-153768148D01*
X144337249Y-153932896D01*
X144337249Y-154097996D01*
X144337249Y-154263096D01*
X144337249Y-154428195D01*
X144337249Y-154592943D01*
X144337249Y-154757690D01*
X144337249Y-154922790D01*
X144340071Y-154973237D01*
X144347127Y-155021568D01*
X144359474Y-155068840D01*
X144376055Y-155113995D01*
X144396868Y-155156682D01*
X144421210Y-155197251D01*
X144449432Y-155235351D01*
X144481182Y-155269923D01*
X144516460Y-155301673D01*
X144553855Y-155329895D01*
X144594424Y-155354943D01*
X144637816Y-155375404D01*
X144682266Y-155391984D01*
X144729538Y-155403979D01*
X144778221Y-155411387D01*
X144828668Y-155414209D01*
X145145816Y-155414209D01*
X145463316Y-155414209D01*
X145780816Y-155414209D01*
X146098316Y-155414209D01*
X146415816Y-155414209D01*
X146733316Y-155414209D01*
X147050463Y-155414209D01*
X147367963Y-155414209D01*
X147685463Y-155414209D01*
X148002963Y-155414209D01*
X148320463Y-155414209D01*
X148637610Y-155414209D01*
X148955463Y-155414209D01*
X149272610Y-155414209D01*
X149590110Y-155414209D01*
X149907610Y-155414209D01*
X149957704Y-155411387D01*
X150006388Y-155403979D01*
X150053307Y-155391984D01*
X150098463Y-155375404D01*
X150141502Y-155354943D01*
X150181718Y-155329895D01*
X150219818Y-155301673D01*
X150254391Y-155269923D01*
X150286493Y-155235351D01*
X150314716Y-155197251D01*
X150339410Y-155156682D01*
X150359871Y-155113995D01*
X150376452Y-155068840D01*
X150388446Y-155021568D01*
X150396207Y-154973237D01*
X150398677Y-154922790D01*
X150398677Y-154757690D01*
X150398677Y-154592943D01*
X150398677Y-154428195D01*
X150398677Y-154263096D01*
X150398677Y-154097996D01*
X150398677Y-153932896D01*
X150398677Y-153768148D01*
X150398677Y-153603401D01*
X150398677Y-153438301D01*
X150398677Y-153273201D01*
X150398677Y-153108101D01*
X150398677Y-152943354D01*
X150398677Y-152778254D01*
X150398677Y-152613507D01*
X150398677Y-152448407D01*
X150398677Y-152283659D01*
X150396207Y-152233212D01*
X150388446Y-152184529D01*
X150376452Y-152137609D01*
X150359871Y-152092454D01*
X150339410Y-152049415D01*
X150314716Y-152008846D01*
X150286493Y-151971451D01*
X150254391Y-151936173D01*
X150219818Y-151904423D01*
X150181718Y-151876201D01*
X150141502Y-151851859D01*
X150098463Y-151830693D01*
X150053307Y-151814112D01*
X150006388Y-151802118D01*
X149957704Y-151795062D01*
X149907610Y-151792240D01*
G37*
G36*
X148365230Y-131898850D02*
G01*
X148100647Y-131898850D01*
X148100647Y-130462339D01*
X146664488Y-130462339D01*
X146664488Y-130197756D01*
X148365230Y-130197756D01*
X148365230Y-131898850D01*
G37*
G36*
X148360079Y-116659136D02*
G01*
X148360079Y-116902905D01*
X146669568Y-116902905D01*
X146669568Y-115212747D01*
X146913337Y-115212747D01*
X146913337Y-116659136D01*
X148360079Y-116659136D01*
G37*
G36*
X147425077Y-65183745D02*
G01*
X147426488Y-65183039D01*
X147427546Y-65181981D01*
X147428958Y-65181276D01*
X147430016Y-65180217D01*
X147431427Y-65179159D01*
X147432485Y-65178453D01*
X147433544Y-65177395D01*
X147434955Y-65176689D01*
X147361577Y-65069445D01*
X147287846Y-64962201D01*
X147214116Y-64854603D01*
X147140738Y-64747359D01*
X147067360Y-64639762D01*
X146993630Y-64532517D01*
X146919899Y-64425273D01*
X146846521Y-64317676D01*
X146860280Y-64308503D01*
X146874038Y-64298978D01*
X146888149Y-64289453D01*
X146901908Y-64279928D01*
X146915666Y-64270403D01*
X146929424Y-64260878D01*
X146943183Y-64251353D01*
X146956941Y-64242181D01*
X147043724Y-64368828D01*
X147130860Y-64495476D01*
X147217644Y-64622476D01*
X147304427Y-64749476D01*
X147391210Y-64876123D01*
X147477994Y-65003123D01*
X147565130Y-65129770D01*
X147652266Y-65256770D01*
X147630394Y-65271587D01*
X147608874Y-65286403D01*
X147587355Y-65301220D01*
X147565483Y-65316037D01*
X147543963Y-65330853D01*
X147522091Y-65345317D01*
X147500924Y-65360134D01*
X147479052Y-65374951D01*
X147362988Y-65298398D01*
X147246924Y-65221845D01*
X147130860Y-65145292D01*
X147015149Y-65068387D01*
X146899085Y-64991834D01*
X146783021Y-64915281D01*
X146666958Y-64838376D01*
X146550541Y-64761823D01*
X146549483Y-64762881D01*
X146548424Y-64763587D01*
X146547013Y-64764645D01*
X146545955Y-64765351D01*
X146544544Y-64766056D01*
X146543133Y-64767114D01*
X146542074Y-64767820D01*
X146540663Y-64768878D01*
X146613335Y-64875064D01*
X146686360Y-64981251D01*
X146759033Y-65087789D01*
X146831705Y-65193976D01*
X146904730Y-65300162D01*
X146977402Y-65406348D01*
X147050427Y-65512887D01*
X147123452Y-65619073D01*
X147109341Y-65628598D01*
X147095583Y-65638123D01*
X147081824Y-65647295D01*
X147068066Y-65656820D01*
X147053955Y-65666345D01*
X147040196Y-65675870D01*
X147026438Y-65685395D01*
X147012680Y-65694920D01*
X146925896Y-65567920D01*
X146838760Y-65441273D01*
X146751977Y-65314273D01*
X146665194Y-65187626D01*
X146578410Y-65060626D01*
X146491627Y-64933978D01*
X146404138Y-64806978D01*
X146317355Y-64680331D01*
X146339227Y-64665514D01*
X146360394Y-64650698D01*
X146382266Y-64635881D01*
X146403785Y-64621064D01*
X146425658Y-64606248D01*
X146447530Y-64591431D01*
X146468696Y-64576614D01*
X146490569Y-64561798D01*
X146607338Y-64639409D01*
X146724108Y-64717373D01*
X146840877Y-64794984D01*
X146957999Y-64872948D01*
X147074769Y-64950559D01*
X147191538Y-65028170D01*
X147308308Y-65106134D01*
X147425077Y-65183745D01*
G37*
G36*
X148955039Y-63759863D02*
G01*
X148956097Y-63758805D01*
X148957156Y-63757746D01*
X148958214Y-63756335D01*
X148959272Y-63755277D01*
X148960331Y-63754219D01*
X148961389Y-63752807D01*
X148962447Y-63752102D01*
X148963153Y-63750691D01*
X148866139Y-63664260D01*
X148769478Y-63577477D01*
X148672111Y-63490694D01*
X148575097Y-63403910D01*
X148478083Y-63317480D01*
X148381070Y-63230696D01*
X148284408Y-63143913D01*
X148187042Y-63057130D01*
X148197978Y-63044782D01*
X148209620Y-63032082D01*
X148220556Y-63019735D01*
X148231845Y-63007388D01*
X148242781Y-62995041D01*
X148254070Y-62982341D01*
X148265358Y-62969641D01*
X148276295Y-62957294D01*
X148390947Y-63059599D01*
X148505600Y-63162257D01*
X148620253Y-63264563D01*
X148734906Y-63366869D01*
X148849206Y-63469174D01*
X148963858Y-63571480D01*
X149078511Y-63674138D01*
X149193164Y-63776444D01*
X149175525Y-63795846D01*
X149157886Y-63815602D01*
X149140600Y-63835005D01*
X149123314Y-63854407D01*
X149105675Y-63874163D01*
X149088389Y-63893566D01*
X149070750Y-63913321D01*
X149053111Y-63932724D01*
X148922231Y-63885805D01*
X148791350Y-63839238D01*
X148660470Y-63792319D01*
X148529589Y-63745752D01*
X148398356Y-63699185D01*
X148267475Y-63652266D01*
X148136595Y-63605699D01*
X148005714Y-63558780D01*
X148004656Y-63560191D01*
X148003597Y-63561249D01*
X148002539Y-63562307D01*
X148001481Y-63563366D01*
X148000422Y-63564424D01*
X147999364Y-63565835D01*
X147998306Y-63566894D01*
X147997247Y-63567952D01*
X148093556Y-63653677D01*
X148189511Y-63739755D01*
X148285820Y-63825480D01*
X148381422Y-63911205D01*
X148477378Y-63996930D01*
X148573686Y-64083007D01*
X148669642Y-64168732D01*
X148765950Y-64254457D01*
X148755014Y-64266805D01*
X148743372Y-64279505D01*
X148732436Y-64291852D01*
X148721147Y-64304199D01*
X148710211Y-64316899D01*
X148698922Y-64329246D01*
X148687633Y-64341946D01*
X148676697Y-64354294D01*
X148562045Y-64251988D01*
X148447745Y-64149330D01*
X148332739Y-64047024D01*
X148218086Y-63944719D01*
X148103786Y-63842413D01*
X147989133Y-63740107D01*
X147874481Y-63637449D01*
X147759828Y-63535144D01*
X147777467Y-63515741D01*
X147794753Y-63495985D01*
X147812392Y-63476582D01*
X147829678Y-63457180D01*
X147846964Y-63437424D01*
X147864603Y-63418021D01*
X147881889Y-63398619D01*
X147899528Y-63378863D01*
X148031467Y-63426488D01*
X148163406Y-63474113D01*
X148295345Y-63521738D01*
X148427283Y-63569363D01*
X148559222Y-63616988D01*
X148691161Y-63664613D01*
X148823100Y-63712238D01*
X148955039Y-63759863D01*
G37*
G36*
X149238214Y-61415655D02*
G01*
X149374386Y-61487622D01*
X149510558Y-61559236D01*
X149646731Y-61631202D01*
X149782903Y-61702816D01*
X149919428Y-61775136D01*
X150055247Y-61846749D01*
X150191772Y-61918716D01*
X150327945Y-61990330D01*
X150283847Y-62073938D01*
X150239397Y-62157899D01*
X150194947Y-62241508D01*
X150150850Y-62325116D01*
X150106753Y-62408372D01*
X150062303Y-62492333D01*
X150017853Y-62575941D01*
X149973756Y-62659549D01*
X149959645Y-62651788D01*
X149945181Y-62644380D01*
X149931070Y-62636972D01*
X149916606Y-62629211D01*
X149902495Y-62621802D01*
X149888383Y-62614394D01*
X149873920Y-62606986D01*
X149859808Y-62599224D01*
X149895086Y-62532197D01*
X149931070Y-62464816D01*
X149966347Y-62397436D01*
X150001978Y-62330408D01*
X150037961Y-62263027D01*
X150073239Y-62195647D01*
X150109222Y-62128619D01*
X150144500Y-62061238D01*
X150098639Y-62036897D01*
X150053131Y-62012555D01*
X150007270Y-61988566D01*
X149961408Y-61964224D01*
X149915195Y-61939883D01*
X149869333Y-61915894D01*
X149823472Y-61891905D01*
X149777611Y-61867563D01*
X149743392Y-61932474D01*
X149709172Y-61997386D01*
X149674600Y-62062297D01*
X149640381Y-62127561D01*
X149605808Y-62192472D01*
X149571236Y-62257383D01*
X149537370Y-62322294D01*
X149502797Y-62387205D01*
X149488686Y-62379444D01*
X149474222Y-62372036D01*
X149460111Y-62364627D01*
X149446000Y-62357219D01*
X149431536Y-62349458D01*
X149417425Y-62342049D01*
X149402961Y-62334641D01*
X149388850Y-62326880D01*
X149423070Y-62261969D01*
X149457642Y-62197058D01*
X149491861Y-62132147D01*
X149526081Y-62067236D01*
X149560653Y-62002324D01*
X149594872Y-61937413D01*
X149629092Y-61872149D01*
X149663664Y-61807238D01*
X149616039Y-61782191D01*
X149568767Y-61757144D01*
X149521142Y-61731744D01*
X149473517Y-61706697D01*
X149425539Y-61681649D01*
X149377914Y-61656602D01*
X149330642Y-61631555D01*
X149283017Y-61606508D01*
X149247386Y-61673536D01*
X149211756Y-61740916D01*
X149176125Y-61808297D01*
X149140847Y-61875677D01*
X149104864Y-61942705D01*
X149069233Y-62010086D01*
X149033603Y-62077113D01*
X148997972Y-62144494D01*
X148983861Y-62137086D01*
X148969397Y-62129677D01*
X148955286Y-62121916D01*
X148940822Y-62114508D01*
X148926711Y-62107099D01*
X148912600Y-62099338D01*
X148898136Y-62091930D01*
X148884025Y-62084522D01*
X148928475Y-62000913D01*
X148972572Y-61917305D01*
X149016670Y-61833697D01*
X149061120Y-61750088D01*
X149105570Y-61666480D01*
X149149667Y-61582872D01*
X149193764Y-61499263D01*
X149238214Y-61415655D01*
G37*
G36*
X149807033Y-59678471D02*
G01*
X149956611Y-59715513D01*
X150105836Y-59752554D01*
X150255061Y-59789949D01*
X150404286Y-59826990D01*
X150553864Y-59864032D01*
X150703089Y-59901074D01*
X150852314Y-59938468D01*
X151001891Y-59975510D01*
X150978961Y-60067585D01*
X150956030Y-60159307D01*
X150933100Y-60251382D01*
X150910169Y-60343457D01*
X150887591Y-60435532D01*
X150864661Y-60527607D01*
X150841730Y-60619329D01*
X150818800Y-60711404D01*
X150803277Y-60707524D01*
X150787402Y-60703643D01*
X150771880Y-60699763D01*
X150756358Y-60695882D01*
X150740836Y-60692002D01*
X150725666Y-60688121D01*
X150709791Y-60684240D01*
X150694269Y-60680360D01*
X150712261Y-60606277D01*
X150730958Y-60532193D01*
X150749302Y-60458110D01*
X150767647Y-60384027D01*
X150785991Y-60310296D01*
X150804336Y-60236213D01*
X150823033Y-60162129D01*
X150841377Y-60088046D01*
X150790930Y-60075346D01*
X150740483Y-60062999D01*
X150690389Y-60050652D01*
X150639941Y-60038304D01*
X150589847Y-60025604D01*
X150539400Y-60013257D01*
X150489305Y-60000910D01*
X150438858Y-59988210D01*
X150420866Y-60059824D01*
X150403227Y-60131085D01*
X150385941Y-60202699D01*
X150367950Y-60273960D01*
X150349958Y-60345574D01*
X150332319Y-60416835D01*
X150314680Y-60488449D01*
X150297041Y-60560063D01*
X150281519Y-60556182D01*
X150265644Y-60552302D01*
X150250122Y-60548068D01*
X150234247Y-60544540D01*
X150218725Y-60540660D01*
X150203202Y-60536779D01*
X150187327Y-60532546D01*
X150171805Y-60529018D01*
X150189444Y-60457404D01*
X150207436Y-60385790D01*
X150225427Y-60314529D01*
X150242714Y-60242915D01*
X150260352Y-60171654D01*
X150278344Y-60100040D01*
X150296336Y-60028779D01*
X150313975Y-59957165D01*
X150261764Y-59944113D01*
X150209552Y-59931060D01*
X150156989Y-59918360D01*
X150105130Y-59905307D01*
X150052919Y-59892254D01*
X150000708Y-59879202D01*
X149948144Y-59866149D01*
X149896286Y-59853449D01*
X149877941Y-59927532D01*
X149859244Y-60001615D01*
X149841252Y-60075346D01*
X149822908Y-60149429D01*
X149804211Y-60223513D01*
X149785866Y-60297596D01*
X149767522Y-60371679D01*
X149749177Y-60445763D01*
X149733655Y-60441882D01*
X149717780Y-60438002D01*
X149702258Y-60434121D01*
X149686383Y-60429888D01*
X149670861Y-60426360D01*
X149655339Y-60422127D01*
X149639464Y-60418599D01*
X149623941Y-60414365D01*
X149646872Y-60322643D01*
X149669802Y-60230568D01*
X149692733Y-60138493D01*
X149715311Y-60046418D01*
X149738594Y-59954343D01*
X149761172Y-59862268D01*
X149784455Y-59770546D01*
X149807033Y-59678471D01*
G37*
G36*
X149948250Y-57842051D02*
G01*
X150102414Y-57844520D01*
X150256225Y-57846637D01*
X150410389Y-57849107D01*
X150564200Y-57851223D01*
X150718717Y-57853693D01*
X150872528Y-57856162D01*
X151026692Y-57858279D01*
X151180503Y-57860748D01*
X151179092Y-57955293D01*
X151177681Y-58050190D01*
X151176269Y-58144734D01*
X151174858Y-58239279D01*
X151173447Y-58333823D01*
X151172036Y-58428368D01*
X151170625Y-58523265D01*
X151169214Y-58617809D01*
X151152986Y-58617457D01*
X151136758Y-58617104D01*
X151120531Y-58616751D01*
X151104303Y-58616751D01*
X151088428Y-58616398D01*
X151072553Y-58616045D01*
X151056325Y-58615693D01*
X151040097Y-58615693D01*
X151041156Y-58539493D01*
X151042567Y-58463293D01*
X151043625Y-58387093D01*
X151044683Y-58311245D01*
X151045742Y-58235045D01*
X151047153Y-58158845D01*
X151048564Y-58082998D01*
X151049622Y-58006798D01*
X150997764Y-58005740D01*
X150945906Y-58005034D01*
X150894047Y-58004329D01*
X150841836Y-58003623D01*
X150790331Y-58002918D01*
X150738119Y-58001859D01*
X150686614Y-58001154D01*
X150634403Y-58000448D01*
X150633344Y-58073826D01*
X150632286Y-58147204D01*
X150631228Y-58220934D01*
X150630169Y-58294312D01*
X150629111Y-58367690D01*
X150627700Y-58441420D01*
X150626642Y-58514798D01*
X150625583Y-58588176D01*
X150609356Y-58588176D01*
X150593128Y-58587823D01*
X150577253Y-58587470D01*
X150561025Y-58587118D01*
X150544797Y-58587118D01*
X150528922Y-58586765D01*
X150513047Y-58586412D01*
X150496819Y-58586412D01*
X150497878Y-58512682D01*
X150498936Y-58439304D01*
X150499994Y-58365926D01*
X150501053Y-58292195D01*
X150502111Y-58218818D01*
X150503522Y-58145440D01*
X150504581Y-58072062D01*
X150505639Y-57998332D01*
X150452017Y-57997626D01*
X150398042Y-57996568D01*
X150344067Y-57995862D01*
X150290444Y-57995157D01*
X150236469Y-57994451D01*
X150182494Y-57993393D01*
X150128872Y-57992687D01*
X150074897Y-57991629D01*
X150073839Y-58067829D01*
X150072781Y-58144029D01*
X150071722Y-58220229D01*
X150070311Y-58296429D01*
X150069253Y-58372276D01*
X150068194Y-58448476D01*
X150066783Y-58524676D01*
X150065725Y-58600876D01*
X150049497Y-58600523D01*
X150033269Y-58600170D01*
X150017042Y-58600170D01*
X150001167Y-58599818D01*
X149984939Y-58599465D01*
X149969064Y-58599465D01*
X149952836Y-58599112D01*
X149936608Y-58599112D01*
X149938019Y-58504215D01*
X149939431Y-58409670D01*
X149940842Y-58315126D01*
X149942253Y-58220582D01*
X149943664Y-58126037D01*
X149945428Y-58031140D01*
X149946839Y-57936595D01*
X149948250Y-57842051D01*
G37*
G36*
X150305508Y-56025457D02*
G01*
X149638405Y-56036393D01*
X149787630Y-55999704D01*
X149937208Y-55963368D01*
X150086786Y-55926679D01*
X150236011Y-55889990D01*
X150385236Y-55853301D01*
X150534461Y-55816613D01*
X150684039Y-55780276D01*
X150833264Y-55743588D01*
X150846669Y-55797563D01*
X150859722Y-55852243D01*
X150873127Y-55906571D01*
X150886533Y-55960899D01*
X150899939Y-56015226D01*
X150913344Y-56069554D01*
X150926397Y-56123882D01*
X150939802Y-56178210D01*
X150953208Y-56257938D01*
X150952502Y-56330257D01*
X150938039Y-56395874D01*
X150910875Y-56453729D01*
X150871011Y-56503824D01*
X150818447Y-56545804D01*
X150754594Y-56578965D01*
X150679452Y-56603307D01*
X150601136Y-56616713D01*
X150529169Y-56616713D01*
X150463552Y-56603660D01*
X150404991Y-56577907D01*
X150354191Y-56539101D01*
X150311152Y-56487949D01*
X150276933Y-56423743D01*
X150251886Y-56347190D01*
X150242714Y-56310854D01*
X150233894Y-56274518D01*
X150224722Y-56238182D01*
X150216255Y-56201493D01*
X150207436Y-56165157D01*
X150198264Y-56128821D01*
X150189444Y-56092485D01*
X150180625Y-56056149D01*
X150117125Y-56071671D01*
X150053625Y-56087193D01*
X149990125Y-56102715D01*
X149926977Y-56118238D01*
X149863830Y-56133760D01*
X149800330Y-56149282D01*
X149737183Y-56164804D01*
X149673683Y-56180326D01*
X149669097Y-56162335D01*
X149665216Y-56144343D01*
X149660630Y-56126351D01*
X149656044Y-56108360D01*
X149651458Y-56090368D01*
X149647225Y-56072376D01*
X149642991Y-56054385D01*
X149638405Y-56036393D01*
X150305508Y-56025457D01*
X150313975Y-56061440D01*
X150323147Y-56097424D01*
X150331966Y-56133407D01*
X150340786Y-56169038D01*
X150349252Y-56205021D01*
X150358072Y-56241004D01*
X150367244Y-56276988D01*
X150375711Y-56312971D01*
X150389116Y-56354951D01*
X150407108Y-56390582D01*
X150429686Y-56419863D01*
X150456144Y-56442793D01*
X150486483Y-56458315D01*
X150519997Y-56466782D01*
X150557391Y-56468193D01*
X150597608Y-56461843D01*
X150608544Y-56459021D01*
X150620186Y-56456551D01*
X150631122Y-56453729D01*
X150642058Y-56450907D01*
X150652994Y-56448438D01*
X150664283Y-56445615D01*
X150675572Y-56442793D01*
X150686508Y-56439971D01*
X150724961Y-56426918D01*
X150757416Y-56408574D01*
X150783522Y-56385643D01*
X150802925Y-56357421D01*
X150815977Y-56325318D01*
X150822327Y-56288982D01*
X150821622Y-56248765D01*
X150813861Y-56205374D01*
X150805394Y-56169390D01*
X150796575Y-56133760D01*
X150787402Y-56097776D01*
X150778936Y-56061793D01*
X150770116Y-56025810D01*
X150761297Y-55989826D01*
X150752477Y-55953843D01*
X150743658Y-55917860D01*
X150688977Y-55931265D01*
X150634297Y-55944671D01*
X150579264Y-55958429D01*
X150524583Y-55971835D01*
X150469902Y-55985240D01*
X150415222Y-55998646D01*
X150360189Y-56012051D01*
X150305508Y-56025457D01*
G37*
G36*
X149553809Y-54188191D02*
G01*
X148909284Y-54358935D01*
X149045456Y-54287674D01*
X149181628Y-54216413D01*
X149317801Y-54144799D01*
X149454326Y-54073538D01*
X149590498Y-54002277D01*
X149726317Y-53930663D01*
X149862842Y-53859049D01*
X149999015Y-53787788D01*
X150024767Y-53837530D01*
X150050873Y-53886919D01*
X150076626Y-53936660D01*
X150102731Y-53986049D01*
X150128837Y-54035791D01*
X150154590Y-54085180D01*
X150180695Y-54134922D01*
X150206801Y-54184310D01*
X150238198Y-54258394D01*
X150255131Y-54328949D01*
X150256895Y-54395977D01*
X150244548Y-54458772D01*
X150217737Y-54516980D01*
X150177167Y-54570249D01*
X150122840Y-54617874D01*
X150055812Y-54659502D01*
X149983140Y-54690899D01*
X149913290Y-54708538D01*
X149846262Y-54711713D01*
X149783115Y-54700777D01*
X149724201Y-54675377D01*
X149670226Y-54635866D01*
X149621542Y-54581891D01*
X149578856Y-54513452D01*
X149561570Y-54480291D01*
X149544284Y-54447130D01*
X149526998Y-54413969D01*
X149509359Y-54380808D01*
X149492073Y-54347647D01*
X149474787Y-54314133D01*
X149457501Y-54281324D01*
X149440215Y-54247810D01*
X149382359Y-54278149D01*
X149324856Y-54308488D01*
X149267001Y-54338827D01*
X149208792Y-54369166D01*
X149150937Y-54399505D01*
X149093081Y-54429844D01*
X149035578Y-54459830D01*
X148977723Y-54490169D01*
X148969256Y-54473941D01*
X148960437Y-54457360D01*
X148951970Y-54441133D01*
X148943856Y-54424552D01*
X148935037Y-54408324D01*
X148926570Y-54391744D01*
X148917751Y-54375516D01*
X148909284Y-54358935D01*
X149553809Y-54188191D01*
X149571095Y-54220999D01*
X149588381Y-54253808D01*
X149605315Y-54286616D01*
X149622248Y-54319424D01*
X149639534Y-54352233D01*
X149656820Y-54385041D01*
X149674106Y-54417849D01*
X149691392Y-54450658D01*
X149714323Y-54488052D01*
X149740428Y-54518391D01*
X149769003Y-54541322D01*
X149800048Y-54557197D01*
X149833209Y-54564958D01*
X149868487Y-54565310D01*
X149904470Y-54557549D01*
X149942217Y-54541674D01*
X149952448Y-54536383D01*
X149962326Y-54531091D01*
X149972556Y-54525799D01*
X149982787Y-54520508D01*
X149993017Y-54515216D01*
X150002895Y-54509924D01*
X150013126Y-54504633D01*
X150023356Y-54499341D01*
X150057928Y-54477469D01*
X150085092Y-54452069D01*
X150104848Y-54423141D01*
X150116842Y-54391038D01*
X150121428Y-54356819D01*
X150118959Y-54320130D01*
X150108728Y-54281324D01*
X150090737Y-54241108D01*
X150073803Y-54208299D01*
X150056517Y-54175491D01*
X150039231Y-54142683D01*
X150021945Y-54109874D01*
X150005012Y-54077066D01*
X149987726Y-54044258D01*
X149970792Y-54011449D01*
X149953506Y-53978641D01*
X149903412Y-54004747D01*
X149853670Y-54031205D01*
X149803576Y-54057310D01*
X149753481Y-54083416D01*
X149703740Y-54109522D01*
X149653645Y-54135980D01*
X149603903Y-54162085D01*
X149553809Y-54188191D01*
G37*
G36*
X148380399Y-52580547D02*
G01*
X147795493Y-52900869D01*
X147910499Y-52798916D01*
X148025505Y-52696964D01*
X148140510Y-52595011D01*
X148255516Y-52493058D01*
X148370874Y-52391105D01*
X148485880Y-52289153D01*
X148600885Y-52187553D01*
X148715891Y-52085600D01*
X148753285Y-52127228D01*
X148789974Y-52169208D01*
X148827368Y-52211189D01*
X148864410Y-52252816D01*
X148901452Y-52294797D01*
X148938493Y-52336778D01*
X148975535Y-52378405D01*
X149012577Y-52420386D01*
X149061260Y-52484591D01*
X149094421Y-52549150D01*
X149112413Y-52613708D01*
X149115235Y-52677561D01*
X149103241Y-52740708D01*
X149076782Y-52801739D01*
X149035155Y-52861005D01*
X148980121Y-52917803D01*
X148916974Y-52965780D01*
X148853474Y-52999294D01*
X148789268Y-53018344D01*
X148725768Y-53022578D01*
X148662268Y-53012347D01*
X148600532Y-52986594D01*
X148540207Y-52946025D01*
X148482352Y-52889933D01*
X148457657Y-52862064D01*
X148432610Y-52833841D01*
X148407916Y-52805972D01*
X148383221Y-52778103D01*
X148358527Y-52749880D01*
X148333480Y-52722011D01*
X148308785Y-52693789D01*
X148284091Y-52665919D01*
X148235055Y-52708958D01*
X148186371Y-52752350D01*
X148137688Y-52795389D01*
X148088652Y-52838780D01*
X148039968Y-52881819D01*
X147990932Y-52925211D01*
X147942602Y-52968250D01*
X147893566Y-53011641D01*
X147881218Y-52997883D01*
X147869224Y-52983772D01*
X147856877Y-52970014D01*
X147844530Y-52956255D01*
X147832182Y-52942144D01*
X147819835Y-52928386D01*
X147807841Y-52914628D01*
X147795493Y-52900869D01*
X148380399Y-52580547D01*
X148404741Y-52608416D01*
X148429435Y-52635933D01*
X148453777Y-52663450D01*
X148478471Y-52691319D01*
X148503166Y-52719189D01*
X148527507Y-52746705D01*
X148551849Y-52774222D01*
X148576543Y-52802091D01*
X148607941Y-52832783D01*
X148640396Y-52856066D01*
X148673910Y-52871589D01*
X148707777Y-52879350D01*
X148741643Y-52879350D01*
X148775863Y-52871236D01*
X148809024Y-52855008D01*
X148841832Y-52830666D01*
X148850299Y-52822905D01*
X148858766Y-52815497D01*
X148867585Y-52808089D01*
X148876052Y-52800328D01*
X148884518Y-52792566D01*
X148892985Y-52785158D01*
X148901805Y-52777397D01*
X148910271Y-52769989D01*
X148938493Y-52740355D01*
X148958602Y-52709311D01*
X148970949Y-52676503D01*
X148975182Y-52642636D01*
X148971655Y-52608064D01*
X148960366Y-52573139D01*
X148940963Y-52537861D01*
X148914152Y-52502936D01*
X148889457Y-52475419D01*
X148865116Y-52447903D01*
X148840774Y-52420033D01*
X148816080Y-52392164D01*
X148791385Y-52364647D01*
X148767043Y-52336778D01*
X148742349Y-52309261D01*
X148718007Y-52281391D01*
X148675674Y-52318786D01*
X148633693Y-52356180D01*
X148591713Y-52393575D01*
X148549380Y-52430969D01*
X148506693Y-52468364D01*
X148464713Y-52505758D01*
X148422732Y-52543153D01*
X148380399Y-52580547D01*
G37*
G36*
X147415764Y-51320848D02*
G01*
X147553347Y-51169154D01*
X147525125Y-51084487D01*
X147468681Y-51006876D01*
X147387542Y-50936320D01*
X147295820Y-50886931D01*
X147204097Y-50862237D01*
X147115903Y-50862237D01*
X147024181Y-50886931D01*
X146935986Y-50936320D01*
X146847792Y-51006876D01*
X146759597Y-51098598D01*
X146671403Y-51215015D01*
X146597672Y-51334959D01*
X146541228Y-51447848D01*
X146502070Y-51557209D01*
X146487958Y-51659515D01*
X146498542Y-51751237D01*
X146526764Y-51835904D01*
X146583208Y-51913515D01*
X146664347Y-51984070D01*
X146756070Y-52033459D01*
X146847792Y-52058154D01*
X146935986Y-52058154D01*
X147027708Y-52033459D01*
X147115903Y-51984070D01*
X147204097Y-51913515D01*
X147292292Y-51818265D01*
X147380486Y-51705376D01*
X147454570Y-51585431D01*
X147511367Y-51469015D01*
X147549820Y-51363181D01*
X147563931Y-51260876D01*
X147553347Y-51169154D01*
X147415764Y-51320848D01*
X147394597Y-51387876D01*
X147359320Y-51461959D01*
X147309931Y-51536042D01*
X147295820Y-51557209D01*
X147281708Y-51574848D01*
X147267597Y-51596015D01*
X147253486Y-51617181D01*
X147225264Y-51659515D01*
X147211153Y-51680681D01*
X147197042Y-51701848D01*
X147144125Y-51772404D01*
X147087681Y-51828848D01*
X147031236Y-51874709D01*
X146974792Y-51906459D01*
X146914820Y-51924098D01*
X146854847Y-51924098D01*
X146794875Y-51909987D01*
X146734903Y-51878237D01*
X146685867Y-51832376D01*
X146650236Y-51779459D01*
X146629422Y-51723015D01*
X146625542Y-51663042D01*
X146636125Y-51599542D01*
X146657645Y-51532515D01*
X146692570Y-51458431D01*
X146741958Y-51384348D01*
X146756070Y-51363181D01*
X146770181Y-51342015D01*
X146784292Y-51320848D01*
X146798403Y-51303209D01*
X146812514Y-51282042D01*
X146826625Y-51260876D01*
X146854847Y-51218542D01*
X146907764Y-51147987D01*
X146964208Y-51091542D01*
X147020653Y-51045681D01*
X147077097Y-51013931D01*
X147137070Y-50996292D01*
X147197042Y-50992765D01*
X147253486Y-51010404D01*
X147316986Y-51042154D01*
X147366375Y-51088015D01*
X147401653Y-51137404D01*
X147423172Y-51193848D01*
X147426347Y-51253820D01*
X147415764Y-51320848D01*
G37*
G36*
X147003120Y-51345507D02*
G01*
X146985481Y-51349035D01*
X146971370Y-51356443D01*
X146957259Y-51366674D01*
X146946676Y-51380785D01*
X146943148Y-51384665D01*
X146943148Y-51388193D01*
X146939620Y-51394896D01*
X146932212Y-51401951D01*
X146929037Y-51405479D01*
X146929037Y-51409007D01*
X146925509Y-51412535D01*
X146914926Y-51426646D01*
X146911398Y-51444285D01*
X146907517Y-51458396D01*
X146911398Y-51476388D01*
X146918453Y-51493674D01*
X146929037Y-51511313D01*
X146943148Y-51528951D01*
X146967842Y-51546943D01*
X146989009Y-51560701D01*
X147013703Y-51567757D01*
X147031342Y-51575165D01*
X147048981Y-51575165D01*
X147066267Y-51571285D01*
X147080731Y-51560701D01*
X147094489Y-51550118D01*
X147105426Y-51539535D01*
X147108953Y-51532479D01*
X147108953Y-51528951D01*
X147116009Y-51521896D01*
X147119537Y-51518368D01*
X147119537Y-51515193D01*
X147122712Y-51511313D01*
X147126592Y-51508138D01*
X147137176Y-51490146D01*
X147140703Y-51476388D01*
X147144584Y-51458396D01*
X147140703Y-51444285D01*
X147133648Y-51426646D01*
X147122712Y-51409007D01*
X147108953Y-51391368D01*
X147084259Y-51373729D01*
X147063092Y-51359618D01*
X147038751Y-51349035D01*
X147020759Y-51345507D01*
X147003120Y-51345507D01*
G37*
G36*
X145609506Y-50375510D02*
G01*
X145743562Y-50213232D01*
X145715692Y-50125038D01*
X145662423Y-50047427D01*
X145591867Y-49987454D01*
X145496617Y-49941593D01*
X145394664Y-49913371D01*
X145302589Y-49913371D01*
X145214395Y-49934538D01*
X145133256Y-49980399D01*
X145055645Y-50050954D01*
X144988617Y-50139149D01*
X144925470Y-50252038D01*
X144868673Y-50382566D01*
X144826339Y-50516621D01*
X144798117Y-50643621D01*
X144791062Y-50756510D01*
X144798117Y-50858816D01*
X144829867Y-50947010D01*
X144879256Y-51021093D01*
X144953692Y-51081066D01*
X145045062Y-51130454D01*
X145147367Y-51155149D01*
X145242617Y-51158677D01*
X145330812Y-51133982D01*
X145411950Y-51088121D01*
X145486034Y-51021093D01*
X145556942Y-50929371D01*
X145616914Y-50820010D01*
X145673006Y-50685954D01*
X145719220Y-50551899D01*
X145747442Y-50428427D01*
X145754145Y-50315538D01*
X145743562Y-50213232D01*
X145609506Y-50375510D01*
X145595395Y-50456649D01*
X145567173Y-50537788D01*
X145556942Y-50562482D01*
X145549534Y-50587177D01*
X145539303Y-50608343D01*
X145531895Y-50633038D01*
X145521312Y-50657732D01*
X145514256Y-50678899D01*
X145503673Y-50703593D01*
X145493089Y-50728288D01*
X145461339Y-50809427D01*
X145422887Y-50879982D01*
X145376673Y-50936427D01*
X145330812Y-50982288D01*
X145278248Y-51010510D01*
X145221450Y-51028149D01*
X145158303Y-51028149D01*
X145090923Y-51010510D01*
X145030950Y-50978760D01*
X144985089Y-50936427D01*
X144949812Y-50887038D01*
X144932173Y-50830593D01*
X144925470Y-50763566D01*
X144932173Y-50693010D01*
X144949812Y-50615399D01*
X144978034Y-50530732D01*
X144985089Y-50506038D01*
X144995673Y-50484871D01*
X145002728Y-50460177D01*
X145013664Y-50435482D01*
X145023895Y-50414316D01*
X145030950Y-50389621D01*
X145041887Y-50364927D01*
X145048589Y-50343760D01*
X145083867Y-50262621D01*
X145122673Y-50192066D01*
X145165006Y-50135621D01*
X145214395Y-50089760D01*
X145267312Y-50058010D01*
X145323756Y-50043899D01*
X145383728Y-50043899D01*
X145451109Y-50061538D01*
X145514256Y-50093288D01*
X145560117Y-50132093D01*
X145591867Y-50181482D01*
X145609506Y-50241454D01*
X145616914Y-50304954D01*
X145609506Y-50375510D01*
G37*
G36*
X145239090Y-50424757D02*
G01*
X145221804Y-50432165D01*
X145207340Y-50438868D01*
X145193229Y-50449451D01*
X145182646Y-50463915D01*
X145175943Y-50477674D01*
X145175943Y-50481201D01*
X145172062Y-50488257D01*
X145172062Y-50492138D01*
X145168534Y-50495313D01*
X145168534Y-50502368D01*
X145165007Y-50505896D01*
X145165007Y-50509424D01*
X145161479Y-50512951D01*
X145158304Y-50530943D01*
X145158304Y-50562693D01*
X145165007Y-50579979D01*
X145175943Y-50594443D01*
X145190054Y-50608201D01*
X145210868Y-50622313D01*
X145235562Y-50632896D01*
X145259904Y-50639951D01*
X145285304Y-50643479D01*
X145306471Y-50643479D01*
X145323757Y-50639951D01*
X145338221Y-50632896D01*
X145348451Y-50622313D01*
X145359034Y-50608201D01*
X145366443Y-50590915D01*
X145369618Y-50587035D01*
X145369618Y-50583507D01*
X145373146Y-50576451D01*
X145373146Y-50572924D01*
X145376673Y-50569396D01*
X145376673Y-50566221D01*
X145380201Y-50559165D01*
X145380201Y-50555285D01*
X145387257Y-50537646D01*
X145387257Y-50523535D01*
X145383729Y-50505896D01*
X145380201Y-50492138D01*
X145369618Y-50477674D01*
X145355507Y-50463915D01*
X145334693Y-50449451D01*
X145309998Y-50438868D01*
X145281776Y-50428285D01*
X145256729Y-50424757D01*
X145239090Y-50424757D01*
G37*
G36*
X143637549Y-49994474D02*
G01*
X143785716Y-49842780D01*
X143768077Y-49729891D01*
X143732799Y-49634641D01*
X143679882Y-49557030D01*
X143612855Y-49497057D01*
X143528188Y-49454724D01*
X143425882Y-49430030D01*
X143323577Y-49430030D01*
X143228327Y-49451196D01*
X143150716Y-49493530D01*
X143083688Y-49557030D01*
X143027243Y-49641696D01*
X142981735Y-49747530D01*
X142946105Y-49871002D01*
X142924938Y-50012113D01*
X142914355Y-50153224D01*
X142917882Y-50280224D01*
X142935521Y-50393113D01*
X142970799Y-50488363D01*
X143020188Y-50565974D01*
X143087216Y-50629474D01*
X143171882Y-50671807D01*
X143274188Y-50692974D01*
X143380021Y-50696502D01*
X143471743Y-50675335D01*
X143552882Y-50629474D01*
X143619910Y-50565974D01*
X143676355Y-50481307D01*
X143722216Y-50379002D01*
X143753966Y-50255530D01*
X143778660Y-50114418D01*
X143789243Y-49969780D01*
X143785716Y-49842780D01*
X143637549Y-49994474D01*
X143634021Y-50019168D01*
X143630493Y-50043863D01*
X143630493Y-50068557D01*
X143626966Y-50096780D01*
X143623438Y-50121474D01*
X143619910Y-50146168D01*
X143612855Y-50195557D01*
X143599096Y-50283752D01*
X143577577Y-50357835D01*
X143549355Y-50424863D01*
X143514077Y-50481307D01*
X143471743Y-50523641D01*
X143418827Y-50551863D01*
X143358855Y-50565974D01*
X143291827Y-50565974D01*
X143224799Y-50551863D01*
X143168355Y-50523641D01*
X143126021Y-50481307D01*
X143094271Y-50431918D01*
X143073105Y-50368418D01*
X143058993Y-50297863D01*
X143058993Y-50216724D01*
X143066049Y-50128530D01*
X143066049Y-50103835D01*
X143069930Y-50079141D01*
X143080160Y-50005057D01*
X143083688Y-49980363D01*
X143087216Y-49955668D01*
X143087216Y-49930974D01*
X143101327Y-49842780D01*
X143122493Y-49765168D01*
X143150716Y-49698141D01*
X143189521Y-49641696D01*
X143231855Y-49599363D01*
X143281243Y-49571141D01*
X143341216Y-49557030D01*
X143411771Y-49557030D01*
X143478799Y-49574668D01*
X143535243Y-49602891D01*
X143577577Y-49641696D01*
X143609327Y-49694613D01*
X143630493Y-49754585D01*
X143641077Y-49828668D01*
X143644605Y-49906280D01*
X143637549Y-49994474D01*
G37*
G36*
X143313135Y-49959302D02*
G01*
X143291616Y-49966358D01*
X143277857Y-49973413D01*
X143263746Y-49983644D01*
X143253163Y-49998108D01*
X143249635Y-50011866D01*
X143246107Y-50029858D01*
X143246107Y-50033385D01*
X143242227Y-50040088D01*
X143242227Y-50065135D01*
X143238699Y-50068663D01*
X143238699Y-50085949D01*
X143242227Y-50103588D01*
X143249635Y-50118052D01*
X143256691Y-50132163D01*
X143270449Y-50142394D01*
X143288088Y-50153330D01*
X143313135Y-50160385D01*
X143337829Y-50163913D01*
X143366052Y-50167441D01*
X143390746Y-50163913D01*
X143411913Y-50160385D01*
X143426024Y-50149802D01*
X143440135Y-50139219D01*
X143447191Y-50128635D01*
X143454246Y-50110996D01*
X143457774Y-50093358D01*
X143457774Y-50079246D01*
X143460949Y-50075366D01*
X143460949Y-50022802D01*
X143454246Y-50008338D01*
X143443663Y-49994580D01*
X143432727Y-49980116D01*
X143415441Y-49973413D01*
X143390746Y-49962830D01*
X143362171Y-49959302D01*
X143334302Y-49955774D01*
X143313135Y-49959302D01*
G37*
G36*
X141402032Y-50548794D02*
G01*
X141739287Y-50480708D01*
X141685312Y-50555497D01*
X141614757Y-50613352D01*
X141527621Y-50653216D01*
X141424257Y-50675794D01*
X141381571Y-50681086D01*
X141338884Y-50686025D01*
X141296198Y-50690963D01*
X141253512Y-50696255D01*
X141211179Y-50701194D01*
X141168493Y-50706486D01*
X141125807Y-50711425D01*
X141083121Y-50716716D01*
X141064776Y-50563963D01*
X141046432Y-50411211D01*
X141028087Y-50258811D01*
X141009743Y-50106058D01*
X140991398Y-49953305D01*
X140973054Y-49800552D01*
X140954709Y-49648152D01*
X140936718Y-49495400D01*
X140979404Y-49490461D01*
X141022090Y-49485169D01*
X141064423Y-49480230D01*
X141107109Y-49474938D01*
X141149796Y-49470000D01*
X141192129Y-49464708D01*
X141234815Y-49459769D01*
X141277501Y-49454477D01*
X141383334Y-49452008D01*
X141477526Y-49470352D01*
X141559371Y-49509511D01*
X141629926Y-49569483D01*
X141688840Y-49649916D01*
X141736112Y-49750811D01*
X141771743Y-49871461D01*
X141795379Y-50011866D01*
X141805609Y-50153683D01*
X141799612Y-50279272D01*
X141777387Y-50388280D01*
X141739287Y-50480708D01*
X141402032Y-50548794D01*
X141469412Y-50533977D01*
X141526915Y-50507166D01*
X141573834Y-50469066D01*
X141610523Y-50420030D01*
X141636276Y-50360411D01*
X141651798Y-50291266D01*
X141656737Y-50212244D01*
X141651093Y-50124755D01*
X141648271Y-50101119D01*
X141645448Y-50077836D01*
X141642626Y-50054200D01*
X141639804Y-50030211D01*
X141636982Y-50006575D01*
X141633807Y-49982938D01*
X141630984Y-49959655D01*
X141628515Y-49936019D01*
X141613346Y-49849588D01*
X141589709Y-49774094D01*
X141558312Y-49710594D01*
X141519154Y-49659088D01*
X141471882Y-49619930D01*
X141417201Y-49593825D01*
X141355112Y-49581477D01*
X141285968Y-49583241D01*
X141262332Y-49586063D01*
X141239048Y-49588533D01*
X141215765Y-49591708D01*
X141192129Y-49594177D01*
X141169198Y-49597000D01*
X141145562Y-49600175D01*
X141122279Y-49602644D01*
X141098996Y-49605466D01*
X141113459Y-49726116D01*
X141127923Y-49847119D01*
X141142387Y-49967769D01*
X141156851Y-50088419D01*
X141171315Y-50209069D01*
X141185779Y-50329719D01*
X141200243Y-50450369D01*
X141214707Y-50571019D01*
X141237990Y-50568550D01*
X141261626Y-50565727D01*
X141284909Y-50562905D01*
X141308193Y-50560083D01*
X141331829Y-50557261D01*
X141355112Y-50554438D01*
X141378748Y-50551616D01*
X141402032Y-50548794D01*
G37*
G36*
X139597115Y-50999573D02*
G01*
X139908265Y-50852465D01*
X139873340Y-50938190D01*
X139819012Y-51010862D01*
X139744223Y-51070834D01*
X139649326Y-51117401D01*
X139609109Y-51132570D01*
X139569245Y-51147740D01*
X139529029Y-51162909D01*
X139488812Y-51178079D01*
X139448595Y-51193601D01*
X139408379Y-51208770D01*
X139368515Y-51223940D01*
X139327945Y-51239109D01*
X139273618Y-51095529D01*
X139219290Y-50951595D01*
X139164609Y-50808015D01*
X139109929Y-50664081D01*
X139055601Y-50520501D01*
X139001273Y-50376920D01*
X138946593Y-50232987D01*
X138892265Y-50089406D01*
X138932129Y-50074237D01*
X138972345Y-50058715D01*
X139012915Y-50043898D01*
X139052779Y-50028729D01*
X139092643Y-50013206D01*
X139133212Y-49998037D01*
X139173429Y-49982867D01*
X139213293Y-49967698D01*
X139315245Y-49939476D01*
X139410848Y-49934890D01*
X139500101Y-49953234D01*
X139583004Y-49994509D01*
X139659556Y-50058362D01*
X139729406Y-50144792D01*
X139792906Y-50253448D01*
X139849704Y-50383976D01*
X139893801Y-50519442D01*
X139918143Y-50642562D01*
X139923081Y-50753687D01*
X139908265Y-50852465D01*
X139597115Y-50999573D01*
X139659204Y-50968881D01*
X139708240Y-50929017D01*
X139744929Y-50881040D01*
X139768212Y-50824242D01*
X139779501Y-50760390D01*
X139777737Y-50689481D01*
X139763626Y-50611870D01*
X139736815Y-50528615D01*
X139728701Y-50506390D01*
X139720234Y-50484165D01*
X139711415Y-50461940D01*
X139703301Y-50439715D01*
X139694834Y-50417137D01*
X139686368Y-50394912D01*
X139677901Y-50372687D01*
X139669434Y-50350462D01*
X139633804Y-50270381D01*
X139592881Y-50203001D01*
X139547020Y-50148673D01*
X139496573Y-50108104D01*
X139441893Y-50081292D01*
X139382626Y-50069298D01*
X139319479Y-50072120D01*
X139252451Y-50090465D01*
X139230579Y-50098931D01*
X139208354Y-50107045D01*
X139186481Y-50115512D01*
X139164256Y-50123979D01*
X139142384Y-50132445D01*
X139120159Y-50140559D01*
X139098287Y-50148673D01*
X139076062Y-50157140D01*
X139119454Y-50271087D01*
X139162493Y-50384329D01*
X139205531Y-50498276D01*
X139248570Y-50611870D01*
X139291962Y-50725465D01*
X139335001Y-50839059D01*
X139378040Y-50952654D01*
X139421079Y-51066248D01*
X139442951Y-51058134D01*
X139465176Y-51049667D01*
X139487048Y-51041554D01*
X139508920Y-51033087D01*
X139531145Y-51024620D01*
X139553018Y-51016154D01*
X139575243Y-51008040D01*
X139597115Y-50999573D01*
G37*
G36*
X137741257Y-52175241D02*
G01*
X137653415Y-52048947D01*
X137565573Y-51922652D01*
X137477732Y-51796358D01*
X137390243Y-51669710D01*
X137302401Y-51543416D01*
X137214560Y-51417122D01*
X137126718Y-51290827D01*
X137038876Y-51164533D01*
X137116487Y-51110205D01*
X137194451Y-51056230D01*
X137272415Y-51002255D01*
X137350379Y-50947927D01*
X137427637Y-50893952D01*
X137505601Y-50839977D01*
X137583565Y-50786002D01*
X137661176Y-50731674D01*
X137670701Y-50745080D01*
X137679521Y-50758133D01*
X137689046Y-50771538D01*
X137698218Y-50784591D01*
X137707037Y-50797644D01*
X137716562Y-50811049D01*
X137725382Y-50824102D01*
X137734554Y-50837508D01*
X137672112Y-50880899D01*
X137609318Y-50924291D01*
X137546876Y-50968035D01*
X137484082Y-51011427D01*
X137421640Y-51055172D01*
X137359198Y-51098563D01*
X137296404Y-51141955D01*
X137233962Y-51185699D01*
X137263596Y-51228033D01*
X137292876Y-51270719D01*
X137322510Y-51313405D01*
X137352143Y-51355738D01*
X137381423Y-51398424D01*
X137411057Y-51440758D01*
X137440690Y-51483444D01*
X137470323Y-51526130D01*
X137530648Y-51484149D01*
X137591326Y-51441816D01*
X137652004Y-51399835D01*
X137712329Y-51357855D01*
X137772654Y-51315874D01*
X137833332Y-51273894D01*
X137894010Y-51231913D01*
X137954335Y-51189933D01*
X137963507Y-51202985D01*
X137972326Y-51216038D01*
X137981851Y-51229444D01*
X137991023Y-51242497D01*
X137999843Y-51255902D01*
X138009368Y-51269308D01*
X138018187Y-51282360D01*
X138027712Y-51295413D01*
X137967035Y-51337394D01*
X137906710Y-51379727D01*
X137846385Y-51421708D01*
X137785707Y-51463335D01*
X137725029Y-51505669D01*
X137664704Y-51547649D01*
X137604379Y-51589630D01*
X137543701Y-51631610D01*
X137574393Y-51675708D01*
X137605085Y-51719805D01*
X137635776Y-51764255D01*
X137666468Y-51808352D01*
X137697512Y-51852449D01*
X137728204Y-51896547D01*
X137758896Y-51940997D01*
X137789587Y-51985094D01*
X137852029Y-51941349D01*
X137914471Y-51897958D01*
X137977265Y-51854566D01*
X138040060Y-51810822D01*
X138102501Y-51767430D01*
X138165296Y-51724038D01*
X138227737Y-51680294D01*
X138290532Y-51636902D01*
X138299704Y-51649955D01*
X138308523Y-51663008D01*
X138318048Y-51676413D01*
X138327221Y-51689466D01*
X138336393Y-51702872D01*
X138345918Y-51715924D01*
X138354737Y-51728977D01*
X138364262Y-51742383D01*
X138286298Y-51796358D01*
X138208335Y-51850685D01*
X138130723Y-51904660D01*
X138052760Y-51958988D01*
X137974796Y-52012963D01*
X137896832Y-52066938D01*
X137819221Y-52121266D01*
X137741257Y-52175241D01*
G37*
G36*
X136434180Y-53455753D02*
G01*
X136319174Y-53353800D01*
X136204169Y-53251847D01*
X136088810Y-53149895D01*
X135973805Y-53048295D01*
X135858799Y-52946342D01*
X135743794Y-52844389D01*
X135628788Y-52742436D01*
X135513783Y-52640484D01*
X135576224Y-52569575D01*
X135639372Y-52498667D01*
X135702166Y-52427759D01*
X135764960Y-52356850D01*
X135827402Y-52285942D01*
X135890197Y-52215034D01*
X135953344Y-52144125D01*
X136015785Y-52073217D01*
X136028133Y-52083800D01*
X136040127Y-52094736D01*
X136052122Y-52105320D01*
X136064116Y-52115903D01*
X136076110Y-52126486D01*
X136088458Y-52137070D01*
X136100452Y-52147653D01*
X136112447Y-52158589D01*
X136061647Y-52215386D01*
X136011552Y-52272536D01*
X135960752Y-52329686D01*
X135910305Y-52386836D01*
X135859505Y-52443634D01*
X135809058Y-52500784D01*
X135758610Y-52557934D01*
X135707810Y-52615084D01*
X135746969Y-52649303D01*
X135785422Y-52683522D01*
X135824227Y-52717742D01*
X135863033Y-52752314D01*
X135901838Y-52786534D01*
X135940644Y-52820753D01*
X135979097Y-52854972D01*
X136017902Y-52889545D01*
X136066585Y-52834159D01*
X136115622Y-52779478D01*
X136164305Y-52724092D01*
X136212988Y-52669411D01*
X136261672Y-52614025D01*
X136310355Y-52558992D01*
X136359391Y-52503959D01*
X136408074Y-52448925D01*
X136420069Y-52459509D01*
X136432063Y-52470445D01*
X136444058Y-52481028D01*
X136456052Y-52491611D01*
X136468399Y-52502195D01*
X136480394Y-52512778D01*
X136492388Y-52523361D01*
X136504383Y-52534297D01*
X136455699Y-52589331D01*
X136407016Y-52644364D01*
X136357980Y-52699397D01*
X136309297Y-52754431D01*
X136260613Y-52809464D01*
X136211577Y-52864497D01*
X136162894Y-52919531D01*
X136114210Y-52974564D01*
X136154427Y-53010195D01*
X136194644Y-53045825D01*
X136235213Y-53081456D01*
X136275430Y-53117086D01*
X136315294Y-53152717D01*
X136355510Y-53188347D01*
X136396080Y-53223978D01*
X136436297Y-53259609D01*
X136486744Y-53202811D01*
X136537191Y-53145661D01*
X136587991Y-53088511D01*
X136638438Y-53031714D01*
X136688885Y-52974564D01*
X136739333Y-52917414D01*
X136789780Y-52860617D01*
X136840227Y-52803467D01*
X136852574Y-52814050D01*
X136864569Y-52824634D01*
X136876563Y-52835570D01*
X136888558Y-52845800D01*
X136900199Y-52856736D01*
X136912194Y-52867320D01*
X136924541Y-52877903D01*
X136936535Y-52888839D01*
X136873741Y-52959747D01*
X136810594Y-53030303D01*
X136748152Y-53101211D01*
X136685358Y-53172120D01*
X136622563Y-53243028D01*
X136559769Y-53313936D01*
X136496974Y-53384845D01*
X136434180Y-53455753D01*
G37*
G36*
X135257701Y-54994535D02*
G01*
X135254174Y-54977602D01*
X135250646Y-54960668D01*
X135247118Y-54943382D01*
X135243590Y-54926449D01*
X135240062Y-54909516D01*
X135236182Y-54892229D01*
X135233007Y-54875649D01*
X135229479Y-54858363D01*
X135283454Y-54846016D01*
X135332843Y-54830141D01*
X135377999Y-54810385D01*
X135418568Y-54786043D01*
X135455962Y-54756763D01*
X135489124Y-54722543D01*
X135519462Y-54682679D01*
X135546626Y-54636466D01*
X135572732Y-54578963D01*
X135587549Y-54524635D01*
X135592135Y-54473835D01*
X135587196Y-54427268D01*
X135571674Y-54384582D01*
X135545921Y-54346129D01*
X135511349Y-54312616D01*
X135466899Y-54284393D01*
X135427740Y-54267107D01*
X135390699Y-54258288D01*
X135354010Y-54257229D01*
X135318732Y-54264991D01*
X135283101Y-54281571D01*
X135247471Y-54307677D01*
X135210782Y-54343307D01*
X135173035Y-54389168D01*
X135162451Y-54402927D01*
X135151868Y-54416685D01*
X135141285Y-54430796D01*
X135131054Y-54444554D01*
X135120471Y-54458313D01*
X135109887Y-54472424D01*
X135099304Y-54486182D01*
X135088721Y-54500293D01*
X135032982Y-54564499D01*
X134976537Y-54612124D01*
X134919740Y-54644579D01*
X134863296Y-54663277D01*
X134807204Y-54669274D01*
X134751465Y-54663982D01*
X134697490Y-54649166D01*
X134645279Y-54625882D01*
X134578251Y-54582491D01*
X134527099Y-54531338D01*
X134491115Y-54472777D01*
X134470654Y-54408218D01*
X134464657Y-54338368D01*
X134473124Y-54263579D01*
X134496054Y-54185263D01*
X134532743Y-54103418D01*
X134568374Y-54042388D01*
X134607179Y-53989471D01*
X134648454Y-53943963D01*
X134692551Y-53906568D01*
X134738765Y-53875877D01*
X134787801Y-53852241D01*
X134838954Y-53835660D01*
X134891518Y-53825429D01*
X134895399Y-53842010D01*
X134899279Y-53858943D01*
X134903160Y-53875524D01*
X134907040Y-53892104D01*
X134911274Y-53909038D01*
X134914801Y-53925971D01*
X134919035Y-53942552D01*
X134922915Y-53959132D01*
X134881993Y-53967952D01*
X134842129Y-53980299D01*
X134804735Y-53996527D01*
X134768399Y-54017693D01*
X134734532Y-54044504D01*
X134702429Y-54076960D01*
X134672443Y-54116824D01*
X134644574Y-54163743D01*
X134620232Y-54217366D01*
X134605062Y-54267813D01*
X134599418Y-54314732D01*
X134603299Y-54358477D01*
X134615999Y-54397988D01*
X134638224Y-54433618D01*
X134670326Y-54465016D01*
X134711601Y-54491474D01*
X134747585Y-54506996D01*
X134782862Y-54515816D01*
X134818493Y-54516874D01*
X134853771Y-54509466D01*
X134890107Y-54493238D01*
X134927149Y-54467485D01*
X134964896Y-54431149D01*
X135004407Y-54384229D01*
X135014990Y-54370824D01*
X135024868Y-54357771D01*
X135035099Y-54344366D01*
X135045329Y-54330960D01*
X135055560Y-54317907D01*
X135065790Y-54304149D01*
X135075668Y-54291096D01*
X135086251Y-54277691D01*
X135142343Y-54213485D01*
X135199140Y-54165154D01*
X135255937Y-54132346D01*
X135312382Y-54112943D01*
X135368474Y-54106593D01*
X135424565Y-54111179D01*
X135479246Y-54126349D01*
X135533221Y-54149985D01*
X135601660Y-54194082D01*
X135655282Y-54246293D01*
X135694087Y-54306618D01*
X135718076Y-54373999D01*
X135726190Y-54447729D01*
X135719135Y-54527104D01*
X135695851Y-54611418D01*
X135656693Y-54700318D01*
X135616476Y-54767699D01*
X135573085Y-54825554D01*
X135526518Y-54873179D01*
X135476776Y-54912338D01*
X135425271Y-54943029D01*
X135370943Y-54966666D01*
X135315204Y-54983599D01*
X135257701Y-54994535D01*
G37*
G36*
X134697526Y-56786328D02*
G01*
X134690117Y-56770806D01*
X134682356Y-56754931D01*
X134675301Y-56739409D01*
X134667539Y-56723534D01*
X134660131Y-56708011D01*
X134652723Y-56692136D01*
X134645314Y-56676614D01*
X134637553Y-56661092D01*
X134687295Y-56636045D01*
X134731392Y-56608881D01*
X134770198Y-56578542D01*
X134804064Y-56545028D01*
X134832992Y-56507986D01*
X134857334Y-56466711D01*
X134877089Y-56420850D01*
X134892612Y-56369697D01*
X134903548Y-56307609D01*
X134905312Y-56251164D01*
X134897550Y-56200717D01*
X134881323Y-56156620D01*
X134855923Y-56118872D01*
X134822409Y-56087828D01*
X134780075Y-56063486D01*
X134730334Y-56046553D01*
X134688706Y-56039497D01*
X134649901Y-56039497D01*
X134614623Y-56047611D01*
X134581814Y-56063486D01*
X134551476Y-56088181D01*
X134522901Y-56122047D01*
X134496089Y-56165439D01*
X134469984Y-56218709D01*
X134463281Y-56234936D01*
X134456226Y-56250811D01*
X134449523Y-56266686D01*
X134442467Y-56282914D01*
X134436117Y-56298789D01*
X134429062Y-56315017D01*
X134422359Y-56330892D01*
X134415303Y-56346767D01*
X134376498Y-56422614D01*
X134333106Y-56482586D01*
X134285481Y-56527742D01*
X134234681Y-56559139D01*
X134181764Y-56578542D01*
X134127084Y-56587009D01*
X134070992Y-56585245D01*
X134014195Y-56575367D01*
X133939053Y-56549261D01*
X133876964Y-56511867D01*
X133828281Y-56463536D01*
X133793003Y-56406034D01*
X133770073Y-56339359D01*
X133760901Y-56264922D01*
X133764076Y-56183078D01*
X133779951Y-56094884D01*
X133800059Y-56027150D01*
X133824753Y-55966472D01*
X133854034Y-55912497D01*
X133887901Y-55865578D01*
X133925648Y-55824656D01*
X133967628Y-55790084D01*
X134012784Y-55761861D01*
X134061467Y-55739284D01*
X134069581Y-55754806D01*
X134077342Y-55769975D01*
X134085103Y-55785145D01*
X134092864Y-55800667D01*
X134100978Y-55815836D01*
X134108387Y-55831006D01*
X134116501Y-55846175D01*
X134124262Y-55861697D01*
X134086514Y-55880042D01*
X134051237Y-55901209D01*
X134018428Y-55926256D01*
X133988442Y-55955536D01*
X133961631Y-55989403D01*
X133938701Y-56029267D01*
X133918945Y-56074422D01*
X133903070Y-56126986D01*
X133892487Y-56184842D01*
X133889664Y-56237406D01*
X133895662Y-56284325D01*
X133909420Y-56325600D01*
X133931292Y-56361231D01*
X133961631Y-56390159D01*
X134000084Y-56413089D01*
X134046651Y-56428964D01*
X134085456Y-56435667D01*
X134121792Y-56435314D01*
X134156717Y-56427906D01*
X134189526Y-56412384D01*
X134220570Y-56388042D01*
X134249851Y-56353822D01*
X134278778Y-56309725D01*
X134305589Y-56254692D01*
X134312292Y-56239170D01*
X134318995Y-56224000D01*
X134325345Y-56208478D01*
X134332401Y-56193309D01*
X134339103Y-56177786D01*
X134345806Y-56162264D01*
X134352156Y-56147095D01*
X134359212Y-56131925D01*
X134398370Y-56055725D01*
X134441762Y-55995400D01*
X134489034Y-55949892D01*
X134539481Y-55917789D01*
X134592398Y-55897681D01*
X134647784Y-55888861D01*
X134704934Y-55890272D01*
X134762789Y-55900503D01*
X134839342Y-55926609D01*
X134904253Y-55964709D01*
X134956464Y-56014097D01*
X134995975Y-56073364D01*
X135021728Y-56142861D01*
X135033723Y-56221884D01*
X135031253Y-56309372D01*
X135014320Y-56404975D01*
X134991742Y-56480470D01*
X134963167Y-56546439D01*
X134929300Y-56603942D01*
X134890495Y-56654036D01*
X134847809Y-56696370D01*
X134800889Y-56732000D01*
X134750442Y-56761986D01*
X134697526Y-56786328D01*
G37*
G36*
X134258952Y-57959879D02*
G01*
X133687805Y-57914371D01*
X133778469Y-57867451D01*
X133886772Y-57833937D01*
X134013066Y-57813123D01*
X134155941Y-57805010D01*
X134298816Y-57808890D01*
X134425816Y-57825823D01*
X134535177Y-57856162D01*
X134627252Y-57900260D01*
X134700277Y-57958468D01*
X134753899Y-58031846D01*
X134787413Y-58120393D01*
X134799761Y-58224462D01*
X134790588Y-58328885D01*
X134759897Y-58418490D01*
X134708391Y-58493279D01*
X134637130Y-58554310D01*
X134546466Y-58600876D01*
X134438163Y-58634743D01*
X134311869Y-58655557D01*
X134168994Y-58663671D01*
X134026119Y-58659790D01*
X133899119Y-58642857D01*
X133789405Y-58612518D01*
X133697683Y-58568421D01*
X133624658Y-58509860D01*
X133571036Y-58436835D01*
X133537522Y-58348287D01*
X133525174Y-58243865D01*
X133534347Y-58139443D01*
X133565038Y-58049837D01*
X133616544Y-57975048D01*
X133687805Y-57914371D01*
X134258952Y-57959879D01*
X134233905Y-57960232D01*
X134208505Y-57960585D01*
X134183458Y-57960937D01*
X134158411Y-57961290D01*
X134133363Y-57961643D01*
X134107963Y-57962348D01*
X134082916Y-57962701D01*
X134057869Y-57963054D01*
X133969322Y-57967993D01*
X133889947Y-57980693D01*
X133820449Y-58001507D01*
X133761888Y-58030787D01*
X133715322Y-58068887D01*
X133680749Y-58116512D01*
X133660288Y-58174015D01*
X133653938Y-58242101D01*
X133662758Y-58309835D01*
X133684983Y-58366632D01*
X133720613Y-58413198D01*
X133768238Y-58450240D01*
X133827505Y-58477404D01*
X133897708Y-58496101D01*
X133977436Y-58506332D01*
X134065983Y-58508801D01*
X134091030Y-58508448D01*
X134116430Y-58508096D01*
X134141477Y-58507390D01*
X134166524Y-58507037D01*
X134191924Y-58506685D01*
X134216972Y-58506332D01*
X134242019Y-58505979D01*
X134267066Y-58505626D01*
X134355613Y-58500687D01*
X134434988Y-58487987D01*
X134504486Y-58467173D01*
X134563047Y-58437893D01*
X134609613Y-58399793D01*
X134644186Y-58351815D01*
X134664647Y-58294312D01*
X134670997Y-58226579D01*
X134662530Y-58158846D01*
X134639952Y-58102048D01*
X134604322Y-58055482D01*
X134556344Y-58018440D01*
X134497077Y-57990923D01*
X134427227Y-57972579D01*
X134347499Y-57962348D01*
X134258952Y-57959879D01*
G37*
G36*
X135079231Y-60345609D02*
G01*
X134929653Y-60382651D01*
X134780428Y-60419692D01*
X134631203Y-60456734D01*
X134481978Y-60494128D01*
X134332400Y-60531170D01*
X134183175Y-60568212D01*
X134033950Y-60605253D01*
X133884373Y-60642648D01*
X133880139Y-60624656D01*
X133875553Y-60606665D01*
X133870967Y-60588673D01*
X133866381Y-60570681D01*
X133862148Y-60552690D01*
X133857562Y-60534698D01*
X133852975Y-60516706D01*
X133848742Y-60498715D01*
X133982445Y-60465553D01*
X134116148Y-60432392D01*
X134249498Y-60398878D01*
X134383200Y-60366070D01*
X134517256Y-60332556D01*
X134650959Y-60299395D01*
X134784662Y-60266234D01*
X134918364Y-60233073D01*
X134900725Y-60162165D01*
X134883087Y-60091256D01*
X134865800Y-60020701D01*
X134848162Y-59949792D01*
X134830523Y-59878884D01*
X134812884Y-59807976D01*
X134795245Y-59737067D01*
X134777959Y-59666512D01*
X134793128Y-59662278D01*
X134809003Y-59658751D01*
X134824525Y-59654870D01*
X134840048Y-59650637D01*
X134855923Y-59647109D01*
X134871445Y-59642876D01*
X134887320Y-59639348D01*
X134902842Y-59635115D01*
X134925067Y-59724015D01*
X134946939Y-59812915D01*
X134969164Y-59901462D01*
X134991037Y-59990362D01*
X135013262Y-60079262D01*
X135035134Y-60168162D01*
X135057359Y-60256709D01*
X135079231Y-60345609D01*
G37*
G36*
X135804084Y-62023561D02*
G01*
X135667911Y-62095528D01*
X135531739Y-62167494D01*
X135395567Y-62239108D01*
X135259042Y-62311075D01*
X135122870Y-62383042D01*
X134987050Y-62454655D01*
X134850525Y-62526622D01*
X134714353Y-62598589D01*
X134705886Y-62582008D01*
X134697067Y-62565780D01*
X134688600Y-62549553D01*
X134679781Y-62533325D01*
X134671314Y-62516744D01*
X134662847Y-62500517D01*
X134654028Y-62484289D01*
X134645561Y-62467708D01*
X134767622Y-62403503D01*
X134889331Y-62339297D01*
X135011392Y-62274739D01*
X135133453Y-62210533D01*
X135255161Y-62145975D01*
X135377222Y-62081769D01*
X135499284Y-62017564D01*
X135620992Y-61953005D01*
X135587125Y-61888800D01*
X135552906Y-61824242D01*
X135518686Y-61760036D01*
X135484820Y-61695478D01*
X135450600Y-61631272D01*
X135416381Y-61567067D01*
X135382514Y-61502508D01*
X135348295Y-61437950D01*
X135362406Y-61430542D01*
X135376870Y-61423133D01*
X135390981Y-61415372D01*
X135405092Y-61407964D01*
X135419556Y-61400555D01*
X135433667Y-61392794D01*
X135448131Y-61385386D01*
X135462242Y-61377978D01*
X135504928Y-61458764D01*
X135547614Y-61539197D01*
X135590653Y-61619983D01*
X135633339Y-61700769D01*
X135676025Y-61781555D01*
X135718711Y-61861989D01*
X135761397Y-61942775D01*
X135804084Y-62023561D01*
G37*
G36*
X136514119Y-63959006D02*
G01*
X136401936Y-64050375D01*
X136293280Y-64119520D01*
X136188858Y-64166439D01*
X136089375Y-64190428D01*
X135994125Y-64191134D01*
X135904872Y-64168556D01*
X135820911Y-64121637D01*
X135742947Y-64050375D01*
X135695322Y-63987581D01*
X135663219Y-63925845D01*
X135644875Y-63865520D01*
X135638878Y-63806253D01*
X135642053Y-63749103D01*
X135653694Y-63693364D01*
X135670628Y-63639742D01*
X135691794Y-63588237D01*
X135707669Y-63595292D01*
X135723897Y-63602348D01*
X135739772Y-63609403D01*
X135756000Y-63616459D01*
X135771875Y-63623162D01*
X135787397Y-63630217D01*
X135803625Y-63637273D01*
X135819500Y-63644328D01*
X135801155Y-63683839D01*
X135786339Y-63723350D01*
X135776461Y-63762509D01*
X135772228Y-63802020D01*
X135775050Y-63841884D01*
X135786339Y-63882453D01*
X135807153Y-63923023D01*
X135838903Y-63964650D01*
X135890055Y-64010864D01*
X135945442Y-64040498D01*
X136004708Y-64054609D01*
X136066444Y-64053198D01*
X136131355Y-64037323D01*
X136198030Y-64007337D01*
X136266117Y-63964650D01*
X136334908Y-63908912D01*
X136353605Y-63892331D01*
X136372655Y-63875398D01*
X136391000Y-63858817D01*
X136409697Y-63841884D01*
X136428394Y-63825303D01*
X136447092Y-63808723D01*
X136465789Y-63791789D01*
X136484486Y-63775209D01*
X136547633Y-63713120D01*
X136597728Y-63650325D01*
X136634769Y-63587531D01*
X136657700Y-63525089D01*
X136666167Y-63463353D01*
X136658758Y-63403028D01*
X136635828Y-63344820D01*
X136595258Y-63288728D01*
X136557864Y-63252745D01*
X136519764Y-63227345D01*
X136480605Y-63211470D01*
X136441447Y-63204414D01*
X136401936Y-63204062D01*
X136361367Y-63209353D01*
X136320444Y-63219937D01*
X136279169Y-63233342D01*
X136273878Y-63216762D01*
X136268939Y-63200181D01*
X136263647Y-63183600D01*
X136258708Y-63166667D01*
X136253769Y-63150087D01*
X136248478Y-63133506D01*
X136243186Y-63116925D01*
X136238247Y-63099992D01*
X136291517Y-63084823D01*
X136346550Y-63073887D01*
X136403347Y-63068948D01*
X136460850Y-63071770D01*
X136519058Y-63084823D01*
X136576914Y-63109870D01*
X136634769Y-63148675D01*
X136691567Y-63203003D01*
X136753655Y-63288375D01*
X136790697Y-63377275D01*
X136803397Y-63468645D01*
X136791755Y-63562484D01*
X136756478Y-63659145D01*
X136698269Y-63757570D01*
X136617483Y-63857406D01*
X136514119Y-63959006D01*
G37*
G36*
X138070610Y-65197326D02*
G01*
X137983121Y-65312684D01*
X137894221Y-65406170D01*
X137803910Y-65476726D01*
X137712893Y-65523645D01*
X137621171Y-65546929D01*
X137528743Y-65546223D01*
X137435963Y-65520823D01*
X137343182Y-65470023D01*
X137282152Y-65420634D01*
X137236291Y-65368423D01*
X137204188Y-65314095D01*
X137183374Y-65258004D01*
X137173143Y-65201559D01*
X137171027Y-65144762D01*
X137174907Y-65088318D01*
X137183021Y-65033637D01*
X137200307Y-65036459D01*
X137217593Y-65039634D01*
X137234880Y-65042457D01*
X137251813Y-65045279D01*
X137269099Y-65048454D01*
X137286032Y-65051276D01*
X137303318Y-65054451D01*
X137320605Y-65057273D01*
X137312491Y-65099959D01*
X137307552Y-65141940D01*
X137307199Y-65182509D01*
X137312491Y-65222020D01*
X137324838Y-65260120D01*
X137345299Y-65296457D01*
X137375285Y-65331029D01*
X137416207Y-65363837D01*
X137476532Y-65396645D01*
X137537563Y-65412168D01*
X137598241Y-65411462D01*
X137658566Y-65395587D01*
X137717480Y-65364543D01*
X137774982Y-65319740D01*
X137830721Y-65261884D01*
X137884696Y-65191329D01*
X137898807Y-65170868D01*
X137912918Y-65150054D01*
X137927030Y-65129593D01*
X137941493Y-65108779D01*
X137955605Y-65087965D01*
X137969716Y-65067151D01*
X137983827Y-65046690D01*
X137997938Y-65025876D01*
X138044152Y-64950382D01*
X138078018Y-64877709D01*
X138099185Y-64807859D01*
X138106593Y-64741537D01*
X138099891Y-64679448D01*
X138078371Y-64622651D01*
X138042035Y-64571498D01*
X137989824Y-64526695D01*
X137944668Y-64500590D01*
X137901277Y-64485068D01*
X137859649Y-64479070D01*
X137819785Y-64481540D01*
X137781332Y-64490712D01*
X137743232Y-64505882D01*
X137706191Y-64525637D01*
X137669149Y-64548568D01*
X137660330Y-64533751D01*
X137651510Y-64518582D01*
X137642338Y-64503765D01*
X137633518Y-64488595D01*
X137624346Y-64473779D01*
X137615527Y-64458962D01*
X137606707Y-64443793D01*
X137597535Y-64428976D01*
X137645866Y-64401459D01*
X137696666Y-64377470D01*
X137750641Y-64359126D01*
X137807085Y-64348190D01*
X137866705Y-64347132D01*
X137928793Y-64357362D01*
X137994057Y-64381351D01*
X138062496Y-64420509D01*
X138142930Y-64488948D01*
X138200080Y-64565854D01*
X138234299Y-64651932D01*
X138245588Y-64746123D01*
X138234652Y-64848076D01*
X138201491Y-64957437D01*
X138146810Y-65073854D01*
X138070610Y-65197326D01*
G37*
G36*
X149956540Y-107022694D02*
G01*
X149812959Y-107022694D01*
X149669379Y-107022694D01*
X149525446Y-107022694D01*
X149381865Y-107022694D01*
X149238637Y-107022694D01*
X149095057Y-107022694D01*
X148951123Y-107022694D01*
X148807543Y-107022694D01*
X148807543Y-106996236D01*
X148807543Y-106969425D01*
X148807543Y-106942966D01*
X148807543Y-106916508D01*
X148807543Y-106890050D01*
X148807543Y-106863238D01*
X148807543Y-106836780D01*
X148807543Y-106809969D01*
X148879509Y-106745058D01*
X148951123Y-106680500D01*
X149023090Y-106615588D01*
X149095057Y-106550677D01*
X149167023Y-106485766D01*
X149238637Y-106420855D01*
X149310251Y-106355944D01*
X149382218Y-106291386D01*
X149442543Y-106234236D01*
X149497929Y-106176380D01*
X149546965Y-106117466D01*
X149589298Y-106057141D01*
X149623518Y-105995758D01*
X149649271Y-105933669D01*
X149665146Y-105869816D01*
X149670437Y-105804552D01*
X149670437Y-105801025D01*
X149670437Y-105797144D01*
X149670437Y-105793616D01*
X149670437Y-105789736D01*
X149670437Y-105786208D01*
X149670437Y-105782327D01*
X149670437Y-105778447D01*
X149670437Y-105774919D01*
X149665498Y-105701188D01*
X149649976Y-105636277D01*
X149624576Y-105580538D01*
X149588593Y-105533972D01*
X149542732Y-105497283D01*
X149487346Y-105470472D01*
X149422082Y-105454244D01*
X149347293Y-105448952D01*
X149273562Y-105454244D01*
X149209004Y-105469766D01*
X149152912Y-105494813D01*
X149104229Y-105529033D01*
X149063307Y-105571719D01*
X149028734Y-105621813D01*
X149000512Y-105678963D01*
X148977934Y-105742816D01*
X148954651Y-105734350D01*
X148931721Y-105725530D01*
X148908437Y-105716711D01*
X148885154Y-105708244D01*
X148861871Y-105699777D01*
X148838940Y-105690958D01*
X148816009Y-105682138D01*
X148792726Y-105673672D01*
X148822007Y-105597825D01*
X148860812Y-105524800D01*
X148909848Y-105456361D01*
X148970879Y-105394977D01*
X149044609Y-105343119D01*
X149131746Y-105303255D01*
X149234051Y-105277502D01*
X149352584Y-105268330D01*
X149473940Y-105277855D01*
X149580832Y-105305372D01*
X149672201Y-105349469D01*
X149748401Y-105408736D01*
X149808726Y-105481408D01*
X149852118Y-105566427D01*
X149878576Y-105662383D01*
X149887748Y-105767511D01*
X149880340Y-105862408D01*
X149859879Y-105952013D01*
X149826365Y-106037033D01*
X149781209Y-106118172D01*
X149725471Y-106196136D01*
X149659501Y-106272336D01*
X149585065Y-106347477D01*
X149502868Y-106422266D01*
X149442896Y-106474830D01*
X149382571Y-106527394D01*
X149322598Y-106579605D01*
X149262626Y-106632169D01*
X149202301Y-106684733D01*
X149142329Y-106737297D01*
X149082004Y-106789861D01*
X149022384Y-106842425D01*
X149139154Y-106842425D01*
X149255923Y-106842425D01*
X149372693Y-106842425D01*
X149489462Y-106842425D01*
X149606232Y-106842425D01*
X149723001Y-106842425D01*
X149839771Y-106842425D01*
X149956540Y-106842425D01*
X149956540Y-106865002D01*
X149956540Y-106887580D01*
X149956540Y-106909805D01*
X149956540Y-106932383D01*
X149956540Y-106954961D01*
X149956540Y-106977538D01*
X149956540Y-107000116D01*
X149956540Y-107022694D01*
G37*
G36*
X136392164Y-105944217D02*
G01*
X136361472Y-106052167D01*
X136331134Y-106159764D01*
X136300442Y-106267714D01*
X136269750Y-106375311D01*
X136239411Y-106483261D01*
X136208720Y-106590859D01*
X136178381Y-106698809D01*
X136148042Y-106806406D01*
X136124759Y-106887898D01*
X136101828Y-106969389D01*
X136078192Y-107051234D01*
X136055261Y-107132725D01*
X136031978Y-107214217D01*
X136009047Y-107295709D01*
X135986117Y-107377200D01*
X135962834Y-107458692D01*
X135961070Y-107458692D01*
X135959659Y-107458692D01*
X135958600Y-107458692D01*
X135956836Y-107458692D01*
X135955425Y-107458692D01*
X135953661Y-107458692D01*
X135952250Y-107458692D01*
X135950839Y-107458692D01*
X135927909Y-107377200D01*
X135904625Y-107295709D01*
X135881342Y-107214217D01*
X135858059Y-107132725D01*
X135835128Y-107051234D01*
X135811845Y-106969389D01*
X135788914Y-106887898D01*
X135765984Y-106806406D01*
X135735292Y-106698809D01*
X135704953Y-106590859D01*
X135674261Y-106483261D01*
X135643922Y-106375311D01*
X135613231Y-106267714D01*
X135582892Y-106159764D01*
X135552200Y-106052167D01*
X135521861Y-105944217D01*
X135494345Y-105944217D01*
X135467181Y-105944217D01*
X135439664Y-105944217D01*
X135412147Y-105944217D01*
X135384984Y-105944217D01*
X135357114Y-105944217D01*
X135329597Y-105944217D01*
X135302434Y-105944217D01*
X135302434Y-105944570D01*
X135302786Y-105945275D01*
X135302786Y-105945981D01*
X135303139Y-105946334D01*
X135303139Y-105947039D01*
X135303492Y-105947745D01*
X135303492Y-105948098D01*
X135303845Y-105948803D01*
X135303139Y-105948450D01*
X135302434Y-105948450D01*
X135301728Y-105948098D01*
X135301375Y-105947745D01*
X135300670Y-105947392D01*
X135299964Y-105947039D01*
X135299611Y-105946686D01*
X135298906Y-105946686D01*
X135274564Y-106002778D01*
X135247400Y-106054989D01*
X135215650Y-106102261D01*
X135178256Y-106143889D01*
X135133806Y-106178109D01*
X135081242Y-106203861D01*
X135018800Y-106220442D01*
X134946128Y-106226086D01*
X134850172Y-106215856D01*
X134767975Y-106185517D01*
X134698125Y-106136481D01*
X134641681Y-106070159D01*
X134597936Y-105987961D01*
X134566539Y-105890242D01*
X134548195Y-105779117D01*
X134542197Y-105655292D01*
X134542197Y-105620014D01*
X134542197Y-105584736D01*
X134542197Y-105549459D01*
X134542197Y-105514181D01*
X134542197Y-105478903D01*
X134542197Y-105443978D01*
X134542197Y-105408348D01*
X134542197Y-105373423D01*
X134548195Y-105249598D01*
X134566539Y-105138120D01*
X134597936Y-105040753D01*
X134641681Y-104958556D01*
X134698125Y-104892234D01*
X134767975Y-104843198D01*
X134850172Y-104813211D01*
X134946128Y-104802981D01*
X135018800Y-104808625D01*
X135081242Y-104824853D01*
X135133806Y-104850606D01*
X135178256Y-104884825D01*
X135215650Y-104926100D01*
X135247400Y-104973725D01*
X135274564Y-105025936D01*
X135298906Y-105082028D01*
X135321131Y-105071798D01*
X135343003Y-105061567D01*
X135365581Y-105051336D01*
X135387453Y-105041106D01*
X135410031Y-105030875D01*
X135431903Y-105020645D01*
X135454128Y-105010414D01*
X135476353Y-105000184D01*
X135442486Y-104929981D01*
X135402622Y-104861895D01*
X135355350Y-104798042D01*
X135298200Y-104740892D01*
X135230467Y-104692561D01*
X135150034Y-104654814D01*
X135056195Y-104630825D01*
X134946128Y-104622359D01*
X134799020Y-104637175D01*
X134672020Y-104680920D01*
X134564775Y-104753592D01*
X134477286Y-104853428D01*
X134409553Y-104980075D01*
X134361222Y-105133181D01*
X134332295Y-105311334D01*
X134322770Y-105514181D01*
X134332295Y-105717028D01*
X134361222Y-105895534D01*
X134409553Y-106048286D01*
X134477286Y-106175286D01*
X134564775Y-106275123D01*
X134672020Y-106347442D01*
X134799020Y-106391539D01*
X134946128Y-106406356D01*
X135023386Y-106401770D01*
X135092884Y-106389775D01*
X135154972Y-106370725D01*
X135210359Y-106345325D01*
X135259747Y-106314281D01*
X135303492Y-106278650D01*
X135342297Y-106238786D01*
X135376870Y-106196100D01*
X135431197Y-106380250D01*
X135485878Y-106564400D01*
X135540206Y-106748550D01*
X135594534Y-106932700D01*
X135649567Y-107116498D01*
X135703895Y-107300648D01*
X135758222Y-107484798D01*
X135812550Y-107668948D01*
X135847828Y-107668948D01*
X135883106Y-107668948D01*
X135918031Y-107668948D01*
X135953309Y-107668948D01*
X135988234Y-107668948D01*
X136023511Y-107668948D01*
X136058789Y-107668948D01*
X136093714Y-107668948D01*
X136157567Y-107453048D01*
X136221420Y-107237853D01*
X136284920Y-107021953D01*
X136348772Y-106806406D01*
X136412625Y-106590859D01*
X136476478Y-106375311D01*
X136540331Y-106159764D01*
X136604184Y-105944217D01*
X136577372Y-105944217D01*
X136550914Y-105944217D01*
X136524456Y-105944217D01*
X136497997Y-105944217D01*
X136471539Y-105944217D01*
X136444728Y-105944217D01*
X136418622Y-105944217D01*
X136392164Y-105944217D01*
G37*
G36*
X148842044Y-92101994D02*
G01*
X148842044Y-92079416D01*
X148842044Y-92056838D01*
X148842044Y-92034261D01*
X148842044Y-92011683D01*
X148842044Y-91989105D01*
X148842044Y-91966527D01*
X148842044Y-91944302D01*
X148842044Y-91921725D01*
X148903780Y-91921725D01*
X148965516Y-91921725D01*
X149026900Y-91921725D01*
X149088636Y-91921725D01*
X149150372Y-91921725D01*
X149212108Y-91921725D01*
X149273844Y-91921725D01*
X149335227Y-91921725D01*
X149335227Y-91747805D01*
X149335227Y-91573886D01*
X149335227Y-91399966D01*
X149335227Y-91226047D01*
X149335227Y-91052127D01*
X149335227Y-90878208D01*
X149335227Y-90704288D01*
X149335227Y-90530369D01*
X149333463Y-90530369D01*
X149330994Y-90530369D01*
X149328877Y-90530369D01*
X149326761Y-90530369D01*
X149324291Y-90530369D01*
X149322175Y-90530369D01*
X149319705Y-90530369D01*
X149317941Y-90530369D01*
X149263613Y-90581169D01*
X149209286Y-90631969D01*
X149155311Y-90682416D01*
X149100630Y-90733216D01*
X149046655Y-90783663D01*
X148992680Y-90834463D01*
X148938000Y-90885263D01*
X148884025Y-90935711D01*
X148868855Y-90919483D01*
X148853686Y-90903255D01*
X148838516Y-90886675D01*
X148823700Y-90870447D01*
X148808530Y-90853866D01*
X148793361Y-90837638D01*
X148778191Y-90821411D01*
X148763022Y-90804830D01*
X148820172Y-90751208D01*
X148877322Y-90697938D01*
X148934119Y-90644669D01*
X148991269Y-90591047D01*
X149048419Y-90537425D01*
X149105216Y-90484155D01*
X149162013Y-90430886D01*
X149219163Y-90377263D01*
X149259733Y-90377263D01*
X149299950Y-90377263D01*
X149340519Y-90377263D01*
X149380736Y-90377263D01*
X149421305Y-90377263D01*
X149461875Y-90377263D01*
X149502091Y-90377263D01*
X149542308Y-90377263D01*
X149542308Y-90570233D01*
X149542308Y-90763555D01*
X149542308Y-90956525D01*
X149542308Y-91149494D01*
X149542308Y-91342463D01*
X149542308Y-91535433D01*
X149542308Y-91728402D01*
X149542308Y-91921725D01*
X149599105Y-91921725D01*
X149655902Y-91921725D01*
X149712700Y-91921725D01*
X149769144Y-91921725D01*
X149825588Y-91921725D01*
X149882386Y-91921725D01*
X149939183Y-91921725D01*
X149995980Y-91921725D01*
X149995980Y-91944302D01*
X149995980Y-91966527D01*
X149995980Y-91989105D01*
X149995980Y-92011683D01*
X149995980Y-92034261D01*
X149995980Y-92056838D01*
X149995980Y-92079416D01*
X149995980Y-92101994D01*
X149851341Y-92101994D01*
X149707408Y-92101994D01*
X149563122Y-92101994D01*
X149419188Y-92101994D01*
X149274902Y-92101994D01*
X149130263Y-92101994D01*
X148986330Y-92101994D01*
X148842044Y-92101994D01*
G37*
G36*
X135135393Y-79920824D02*
G01*
X135133277Y-79920824D01*
X135130807Y-79920824D01*
X135128691Y-79920824D01*
X135126927Y-79920824D01*
X135124810Y-79920824D01*
X135122693Y-79920824D01*
X135120224Y-79920824D01*
X135118107Y-79920824D01*
X135118107Y-80103563D01*
X135118107Y-80285949D01*
X135118107Y-80468335D01*
X135118107Y-80651074D01*
X135118107Y-80833460D01*
X135118107Y-81016199D01*
X135118107Y-81198585D01*
X135118107Y-81381324D01*
X135094824Y-81381324D01*
X135071188Y-81381324D01*
X135047904Y-81381324D01*
X135024974Y-81381324D01*
X135001338Y-81381324D01*
X134978054Y-81381324D01*
X134954418Y-81381324D01*
X134931135Y-81381324D01*
X134931135Y-81165777D01*
X134931135Y-80949877D01*
X134931135Y-80734330D01*
X134931135Y-80518782D01*
X134931135Y-80303235D01*
X134931135Y-80087688D01*
X134931135Y-79872141D01*
X134931135Y-79656593D01*
X134967471Y-79656593D01*
X135004513Y-79656593D01*
X135040849Y-79656593D01*
X135077891Y-79656593D01*
X135114227Y-79656593D01*
X135150916Y-79656593D01*
X135187604Y-79656593D01*
X135224293Y-79656593D01*
X135297671Y-79837216D01*
X135371049Y-80017838D01*
X135444427Y-80198813D01*
X135517452Y-80379435D01*
X135590829Y-80560057D01*
X135664207Y-80740680D01*
X135737585Y-80921302D01*
X135810963Y-81102277D01*
X135813079Y-81102277D01*
X135815196Y-81102277D01*
X135817666Y-81102277D01*
X135819429Y-81102277D01*
X135821546Y-81102277D01*
X135824016Y-81102277D01*
X135826132Y-81102277D01*
X135828249Y-81102277D01*
X135828249Y-80921302D01*
X135828249Y-80740680D01*
X135828249Y-80560057D01*
X135828249Y-80379435D01*
X135828249Y-80198813D01*
X135828249Y-80017838D01*
X135828249Y-79837216D01*
X135828249Y-79656593D01*
X135851532Y-79656593D01*
X135875168Y-79656593D01*
X135898452Y-79656593D01*
X135921735Y-79656593D01*
X135945371Y-79656593D01*
X135968654Y-79656593D01*
X135992291Y-79656593D01*
X136015574Y-79656593D01*
X136015574Y-79872141D01*
X136015574Y-80087688D01*
X136015574Y-80303235D01*
X136015574Y-80518782D01*
X136015574Y-80734330D01*
X136015574Y-80949877D01*
X136015574Y-81165777D01*
X136015574Y-81381324D01*
X135979238Y-81381324D01*
X135942196Y-81381324D01*
X135905860Y-81381324D01*
X135868818Y-81381324D01*
X135832482Y-81381324D01*
X135795793Y-81381324D01*
X135759104Y-81381324D01*
X135722416Y-81381324D01*
X135649038Y-81198585D01*
X135575660Y-81016199D01*
X135502282Y-80833460D01*
X135428904Y-80651074D01*
X135355527Y-80468335D01*
X135282149Y-80285949D01*
X135208771Y-80103563D01*
X135135393Y-79920824D01*
G37*
G36*
X134940731Y-78209464D02*
G01*
X134940731Y-78188650D01*
X134940731Y-78168189D01*
X134940731Y-78147375D01*
X134940731Y-78126561D01*
X134940731Y-78106100D01*
X134940731Y-78084933D01*
X134940731Y-78064472D01*
X134940731Y-78043658D01*
X134994353Y-78043658D01*
X135047975Y-78043658D01*
X135101597Y-78043658D01*
X135154867Y-78043658D01*
X135208842Y-78043658D01*
X135262464Y-78043658D01*
X135315733Y-78043658D01*
X135369708Y-78043658D01*
X135369708Y-77869739D01*
X135369708Y-77695467D01*
X135369708Y-77521195D01*
X135369708Y-77347275D01*
X135369708Y-77173003D01*
X135369708Y-76998731D01*
X135369708Y-76824811D01*
X135369708Y-76650539D01*
X135315733Y-76650539D01*
X135262464Y-76650539D01*
X135208842Y-76650539D01*
X135154867Y-76650539D01*
X135101597Y-76650539D01*
X135047975Y-76650539D01*
X134994353Y-76650539D01*
X134940731Y-76650539D01*
X134940731Y-76629725D01*
X134940731Y-76609264D01*
X134940731Y-76588450D01*
X134940731Y-76567636D01*
X134940731Y-76547175D01*
X134940731Y-76526361D01*
X134940731Y-76505547D01*
X134940731Y-76484733D01*
X135073728Y-76484733D01*
X135207078Y-76484733D01*
X135340428Y-76484733D01*
X135473425Y-76484733D01*
X135606422Y-76484733D01*
X135739772Y-76484733D01*
X135873122Y-76484733D01*
X136006119Y-76484733D01*
X136006119Y-76505547D01*
X136006119Y-76526361D01*
X136006119Y-76547175D01*
X136006119Y-76567636D01*
X136006119Y-76588450D01*
X136006119Y-76609264D01*
X136006119Y-76629725D01*
X136006119Y-76650539D01*
X135952144Y-76650539D01*
X135898522Y-76650539D01*
X135844900Y-76650539D01*
X135791278Y-76650539D01*
X135737655Y-76650539D01*
X135684033Y-76650539D01*
X135630411Y-76650539D01*
X135576789Y-76650539D01*
X135576789Y-76824811D01*
X135576789Y-76998731D01*
X135576789Y-77173003D01*
X135576789Y-77347275D01*
X135576789Y-77521195D01*
X135576789Y-77695467D01*
X135576789Y-77869739D01*
X135576789Y-78043658D01*
X135630411Y-78043658D01*
X135684033Y-78043658D01*
X135737655Y-78043658D01*
X135791278Y-78043658D01*
X135844900Y-78043658D01*
X135898522Y-78043658D01*
X135952144Y-78043658D01*
X136006119Y-78043658D01*
X136006119Y-78064472D01*
X136006119Y-78084933D01*
X136006119Y-78106100D01*
X136006119Y-78126561D01*
X136006119Y-78147375D01*
X136006119Y-78168189D01*
X136006119Y-78188650D01*
X136006119Y-78209464D01*
X135873122Y-78209464D01*
X135739772Y-78209464D01*
X135606422Y-78209464D01*
X135473425Y-78209464D01*
X135340428Y-78209464D01*
X135207078Y-78209464D01*
X135073728Y-78209464D01*
X134940731Y-78209464D01*
G37*
G36*
X135029631Y-75006736D02*
G01*
X135029631Y-74791189D01*
X135029631Y-74575642D01*
X135029631Y-74360094D01*
X135029631Y-74144547D01*
X135029631Y-73929000D01*
X135029631Y-73713100D01*
X135029631Y-73497553D01*
X135029631Y-73282005D01*
X135055383Y-73282005D01*
X135081136Y-73282005D01*
X135107242Y-73282005D01*
X135132994Y-73282005D01*
X135159100Y-73282005D01*
X135184853Y-73282005D01*
X135210958Y-73282005D01*
X135236711Y-73282005D01*
X135236711Y-73475328D01*
X135236711Y-73668297D01*
X135236711Y-73860914D01*
X135236711Y-74054236D01*
X135236711Y-74247205D01*
X135236711Y-74440175D01*
X135236711Y-74633144D01*
X135236711Y-74826114D01*
X135338664Y-74826114D01*
X135440617Y-74826114D01*
X135542569Y-74826114D01*
X135644875Y-74826114D01*
X135746828Y-74826114D01*
X135848780Y-74826114D01*
X135950733Y-74826114D01*
X136052686Y-74826114D01*
X136052686Y-74848692D01*
X136052686Y-74871269D01*
X136052686Y-74893847D01*
X136052686Y-74916425D01*
X136052686Y-74939003D01*
X136052686Y-74961580D01*
X136052686Y-74984158D01*
X136052686Y-75006736D01*
X135924980Y-75006736D01*
X135797275Y-75006736D01*
X135668864Y-75006736D01*
X135541158Y-75006736D01*
X135413453Y-75006736D01*
X135285394Y-75006736D01*
X135157336Y-75006736D01*
X135029631Y-75006736D01*
G37*
G36*
X149734325Y-81151419D02*
G01*
X149732914Y-81151419D01*
X149731150Y-81151419D01*
X149729739Y-81151419D01*
X149728328Y-81151419D01*
X149726917Y-81151419D01*
X149725506Y-81151419D01*
X149723742Y-81151419D01*
X149722331Y-81151419D01*
X149698694Y-81200808D01*
X149670472Y-81248080D01*
X149636606Y-81292177D01*
X149594625Y-81330983D01*
X149544883Y-81364144D01*
X149485264Y-81389191D01*
X149415061Y-81405066D01*
X149332511Y-81410711D01*
X149201631Y-81396247D01*
X149088742Y-81352502D01*
X148993492Y-81281241D01*
X148915881Y-81182111D01*
X148855203Y-81057227D01*
X148812517Y-80906238D01*
X148786411Y-80730908D01*
X148777944Y-80531236D01*
X148787117Y-80323450D01*
X148815692Y-80141769D01*
X148862964Y-79986900D01*
X148929639Y-79858488D01*
X149015717Y-79757947D01*
X149121197Y-79685627D01*
X149246433Y-79641883D01*
X149391778Y-79627066D01*
X149504667Y-79635533D01*
X149601328Y-79659522D01*
X149683172Y-79696916D01*
X149752669Y-79745600D01*
X149810172Y-79802750D01*
X149857444Y-79866602D01*
X149895897Y-79934688D01*
X149926942Y-80004891D01*
X149904717Y-80015122D01*
X149882492Y-80025352D01*
X149859914Y-80035583D01*
X149838042Y-80045813D01*
X149815817Y-80056044D01*
X149793592Y-80065922D01*
X149771014Y-80076505D01*
X149749142Y-80086383D01*
X149725153Y-80030644D01*
X149697636Y-79978080D01*
X149665886Y-79930808D01*
X149628492Y-79889533D01*
X149584394Y-79855313D01*
X149532536Y-79829561D01*
X149471153Y-79813333D01*
X149399186Y-79807336D01*
X149302525Y-79817919D01*
X149219975Y-79847905D01*
X149150831Y-79896588D01*
X149095092Y-79962911D01*
X149051700Y-80045461D01*
X149021361Y-80142827D01*
X149003369Y-80254305D01*
X148997372Y-80378130D01*
X148997372Y-80411291D01*
X148997372Y-80444805D01*
X148997372Y-80477966D01*
X148997372Y-80511480D01*
X148997372Y-80544994D01*
X148997372Y-80578155D01*
X148997372Y-80611669D01*
X148997372Y-80644830D01*
X149002311Y-80769713D01*
X149017833Y-80883308D01*
X149044292Y-80983850D01*
X149082744Y-81069927D01*
X149135308Y-81139777D01*
X149200925Y-81191988D01*
X149282417Y-81224444D01*
X149379431Y-81235380D01*
X149458453Y-81228677D01*
X149528656Y-81208569D01*
X149589333Y-81176466D01*
X149640133Y-81133427D01*
X149680703Y-81080511D01*
X149710336Y-81018775D01*
X149727975Y-80948925D01*
X149734325Y-80872372D01*
X149734325Y-80850147D01*
X149734325Y-80827922D01*
X149734325Y-80805697D01*
X149734325Y-80783472D01*
X149734325Y-80761247D01*
X149734325Y-80739022D01*
X149734325Y-80716444D01*
X149734325Y-80694219D01*
X149689169Y-80694219D01*
X149643661Y-80694219D01*
X149598153Y-80694219D01*
X149552997Y-80694219D01*
X149507842Y-80694219D01*
X149462333Y-80694219D01*
X149417178Y-80694219D01*
X149372022Y-80694219D01*
X149372022Y-80673758D01*
X149372022Y-80652944D01*
X149372022Y-80632130D01*
X149372022Y-80611669D01*
X149372022Y-80590855D01*
X149372022Y-80570394D01*
X149372022Y-80549580D01*
X149372022Y-80528766D01*
X149441167Y-80528766D01*
X149510664Y-80528766D01*
X149580161Y-80528766D01*
X149649306Y-80528766D01*
X149718803Y-80528766D01*
X149787947Y-80528766D01*
X149857797Y-80528766D01*
X149926942Y-80528766D01*
X149926942Y-80635658D01*
X149926942Y-80741844D01*
X149926942Y-80848383D01*
X149926942Y-80954922D01*
X149926942Y-81061813D01*
X149926942Y-81168000D01*
X149926942Y-81274538D01*
X149926942Y-81381077D01*
X149902953Y-81381077D01*
X149878611Y-81381077D01*
X149854622Y-81381077D01*
X149830281Y-81381077D01*
X149806644Y-81381077D01*
X149782656Y-81381077D01*
X149758314Y-81381077D01*
X149734325Y-81381077D01*
X149734325Y-81352502D01*
X149734325Y-81323927D01*
X149734325Y-81295000D01*
X149734325Y-81266425D01*
X149734325Y-81237497D01*
X149734325Y-81208922D01*
X149734325Y-81180347D01*
X149734325Y-81151419D01*
G37*
G36*
X149765334Y-77486340D02*
G01*
X149973473Y-77147673D01*
X149945251Y-76971284D01*
X149899390Y-76816062D01*
X149835890Y-76689062D01*
X149754751Y-76590284D01*
X149648917Y-76516201D01*
X149525445Y-76470340D01*
X149380806Y-76456229D01*
X149232640Y-76470340D01*
X149109167Y-76516201D01*
X149003334Y-76590284D01*
X148922195Y-76689062D01*
X148858695Y-76816062D01*
X148812834Y-76971284D01*
X148787787Y-77147673D01*
X148777556Y-77348757D01*
X148787787Y-77546312D01*
X148812834Y-77722701D01*
X148858695Y-77877923D01*
X148922195Y-78004923D01*
X149003334Y-78103701D01*
X149109167Y-78177784D01*
X149232640Y-78223646D01*
X149380806Y-78237757D01*
X149525445Y-78223646D01*
X149648917Y-78177784D01*
X149754751Y-78103701D01*
X149835890Y-78004923D01*
X149899390Y-77877923D01*
X149945251Y-77722701D01*
X149973473Y-77546312D01*
X149980528Y-77348757D01*
X149973473Y-77147673D01*
X149765334Y-77486340D01*
X149761806Y-77613340D01*
X149744167Y-77722701D01*
X149715945Y-77821479D01*
X149677140Y-77902618D01*
X149624223Y-77969646D01*
X149557195Y-78019034D01*
X149476056Y-78047257D01*
X149380806Y-78057840D01*
X149282028Y-78047257D01*
X149200537Y-78019034D01*
X149133862Y-77969646D01*
X149080945Y-77902618D01*
X149042140Y-77821479D01*
X149013917Y-77722701D01*
X148996278Y-77613340D01*
X148992751Y-77486340D01*
X148992751Y-77207646D01*
X148996278Y-77080646D01*
X149013917Y-76971284D01*
X149042140Y-76872507D01*
X149080945Y-76791368D01*
X149133862Y-76724340D01*
X149200537Y-76674951D01*
X149282028Y-76646729D01*
X149380806Y-76636146D01*
X149476056Y-76646729D01*
X149557195Y-76674951D01*
X149624223Y-76724340D01*
X149677140Y-76791368D01*
X149715945Y-76872507D01*
X149744167Y-76971284D01*
X149761806Y-77080646D01*
X149765334Y-77207646D01*
X149765334Y-77486340D01*
G37*
G36*
X149341825Y-77204294D02*
G01*
X149306900Y-77211350D01*
X149282206Y-77221580D01*
X149260686Y-77235691D01*
X149246928Y-77253330D01*
X149235992Y-77274850D01*
X149228936Y-77296016D01*
X149225761Y-77320358D01*
X149225761Y-77373627D01*
X149228936Y-77398322D01*
X149235992Y-77419488D01*
X149246928Y-77440655D01*
X149260686Y-77458294D01*
X149282206Y-77472405D01*
X149306900Y-77482636D01*
X149341825Y-77490044D01*
X149380983Y-77493572D01*
X149419789Y-77490044D01*
X149451539Y-77482636D01*
X149475881Y-77472405D01*
X149497400Y-77458294D01*
X149514686Y-77440655D01*
X149525622Y-77419488D01*
X149529150Y-77398322D01*
X149532325Y-77373627D01*
X149532325Y-77320358D01*
X149529150Y-77296016D01*
X149525622Y-77274850D01*
X149514686Y-77253330D01*
X149497400Y-77235691D01*
X149475881Y-77221580D01*
X149451539Y-77211350D01*
X149419789Y-77204294D01*
X149380983Y-77200766D01*
X149341825Y-77204294D01*
G37*
G36*
X148935742Y-75006736D02*
G01*
X148935742Y-74791189D01*
X148935742Y-74575642D01*
X148935742Y-74360094D01*
X148935742Y-74144547D01*
X148935742Y-73929000D01*
X148935742Y-73713100D01*
X148935742Y-73497553D01*
X148935742Y-73282005D01*
X148961495Y-73282005D01*
X148987248Y-73282005D01*
X149013353Y-73282005D01*
X149039459Y-73282005D01*
X149065211Y-73282005D01*
X149090964Y-73282005D01*
X149117070Y-73282005D01*
X149142823Y-73282005D01*
X149142823Y-73475328D01*
X149142823Y-73668297D01*
X149142823Y-73860914D01*
X149142823Y-74054236D01*
X149142823Y-74247205D01*
X149142823Y-74440175D01*
X149142823Y-74633144D01*
X149142823Y-74826114D01*
X149244775Y-74826114D01*
X149346728Y-74826114D01*
X149448681Y-74826114D01*
X149550634Y-74826114D01*
X149652939Y-74826114D01*
X149754892Y-74826114D01*
X149856845Y-74826114D01*
X149958798Y-74826114D01*
X149958798Y-74848692D01*
X149958798Y-74871269D01*
X149958798Y-74893847D01*
X149958798Y-74916425D01*
X149958798Y-74939003D01*
X149958798Y-74961580D01*
X149958798Y-74984158D01*
X149958798Y-75006736D01*
X149831092Y-75006736D01*
X149703034Y-75006736D01*
X149574975Y-75006736D01*
X149447270Y-75006736D01*
X149319564Y-75006736D01*
X149191859Y-75006736D01*
X149063448Y-75006736D01*
X148935742Y-75006736D01*
G37*
G36*
X136407651Y-91038298D02*
G01*
X136376959Y-91146248D01*
X136346620Y-91253845D01*
X136315929Y-91361795D01*
X136285590Y-91469392D01*
X136254898Y-91576990D01*
X136224207Y-91684940D01*
X136194220Y-91792890D01*
X136163529Y-91900487D01*
X136140245Y-91981979D01*
X136117315Y-92063470D01*
X136094032Y-92145315D01*
X136070748Y-92226806D01*
X136047465Y-92308298D01*
X136024534Y-92389790D01*
X136001604Y-92471281D01*
X135978320Y-92552773D01*
X135976909Y-92552773D01*
X135975145Y-92552773D01*
X135974087Y-92552773D01*
X135972323Y-92552773D01*
X135970912Y-92552773D01*
X135969501Y-92552773D01*
X135967737Y-92552773D01*
X135966326Y-92552773D01*
X135943395Y-92471281D01*
X135920112Y-92389790D01*
X135897182Y-92308298D01*
X135873545Y-92226806D01*
X135850615Y-92145315D01*
X135827332Y-92063470D01*
X135804401Y-91981979D01*
X135781470Y-91900487D01*
X135751132Y-91792890D01*
X135720440Y-91684940D01*
X135689748Y-91576990D01*
X135659409Y-91469392D01*
X135629070Y-91361795D01*
X135598379Y-91253845D01*
X135567687Y-91146248D01*
X135537348Y-91038298D01*
X135509832Y-91038298D01*
X135482668Y-91038298D01*
X135455151Y-91038298D01*
X135427987Y-91038298D01*
X135400470Y-91038298D01*
X135372601Y-91038298D01*
X135345437Y-91038298D01*
X135317920Y-91038298D01*
X135317920Y-91038651D01*
X135318273Y-91039356D01*
X135318273Y-91039709D01*
X135318626Y-91040415D01*
X135318626Y-91041120D01*
X135318979Y-91041473D01*
X135318979Y-91042179D01*
X135319332Y-91042884D01*
X135318626Y-91042531D01*
X135317920Y-91042179D01*
X135317568Y-91041826D01*
X135316862Y-91041473D01*
X135316157Y-91041473D01*
X135315451Y-91041120D01*
X135315098Y-91040767D01*
X135314393Y-91040415D01*
X135290404Y-91096506D01*
X135262887Y-91148717D01*
X135231137Y-91196342D01*
X135193743Y-91237617D01*
X135149293Y-91271837D01*
X135096729Y-91297590D01*
X135034640Y-91314170D01*
X134961615Y-91319815D01*
X134866012Y-91309584D01*
X134783462Y-91279245D01*
X134713612Y-91230562D01*
X134657168Y-91164240D01*
X134613423Y-91081690D01*
X134582379Y-90984323D01*
X134563682Y-90872845D01*
X134557684Y-90749020D01*
X134557684Y-90713742D01*
X134557684Y-90678465D01*
X134557684Y-90643187D01*
X134557684Y-90608262D01*
X134557684Y-90572984D01*
X134557684Y-90537706D01*
X134557684Y-90502429D01*
X134557684Y-90467151D01*
X134563682Y-90343326D01*
X134582379Y-90232201D01*
X134613423Y-90134481D01*
X134657168Y-90052284D01*
X134713612Y-89985962D01*
X134783462Y-89937279D01*
X134866012Y-89906940D01*
X134961615Y-89896709D01*
X135034640Y-89902354D01*
X135096729Y-89918934D01*
X135149293Y-89944687D01*
X135193743Y-89978906D01*
X135231137Y-90020181D01*
X135262887Y-90067454D01*
X135290404Y-90119665D01*
X135314393Y-90175756D01*
X135336618Y-90165526D01*
X135358843Y-90155295D01*
X135381068Y-90145065D01*
X135402940Y-90134834D01*
X135425518Y-90124604D01*
X135447390Y-90114373D01*
X135469968Y-90104495D01*
X135491840Y-90094265D01*
X135458326Y-90024062D01*
X135418109Y-89955976D01*
X135370837Y-89892123D01*
X135313687Y-89834620D01*
X135245954Y-89786290D01*
X135165873Y-89748895D01*
X135071682Y-89724554D01*
X134961615Y-89716087D01*
X134814507Y-89730904D01*
X134687507Y-89775001D01*
X134580262Y-89847320D01*
X134492773Y-89947156D01*
X134425040Y-90074156D01*
X134376709Y-90226909D01*
X134347782Y-90405415D01*
X134338257Y-90608262D01*
X134347782Y-90811109D01*
X134376709Y-90989262D01*
X134425040Y-91142367D01*
X134492773Y-91269015D01*
X134580262Y-91368851D01*
X134687507Y-91441523D01*
X134814507Y-91485267D01*
X134961615Y-91500084D01*
X135038873Y-91495851D01*
X135108370Y-91483856D01*
X135170459Y-91464454D01*
X135225845Y-91439054D01*
X135275234Y-91408009D01*
X135318979Y-91372379D01*
X135357784Y-91332867D01*
X135392357Y-91290181D01*
X135446684Y-91474331D01*
X135501365Y-91658481D01*
X135556045Y-91842279D01*
X135610373Y-92026429D01*
X135665054Y-92210579D01*
X135719382Y-92394729D01*
X135773709Y-92578879D01*
X135828037Y-92763029D01*
X135863315Y-92763029D01*
X135898593Y-92763029D01*
X135933518Y-92763029D01*
X135968795Y-92763029D01*
X136003720Y-92763029D01*
X136038998Y-92763029D01*
X136074276Y-92763029D01*
X136109201Y-92763029D01*
X136173054Y-92547129D01*
X136236907Y-92331934D01*
X136300407Y-92116034D01*
X136364259Y-91900487D01*
X136428465Y-91684940D01*
X136491965Y-91469392D01*
X136555818Y-91253845D01*
X136619670Y-91038298D01*
X136592859Y-91038298D01*
X136566401Y-91038298D01*
X136539943Y-91038298D01*
X136513837Y-91038298D01*
X136487379Y-91038298D01*
X136460568Y-91038298D01*
X136434109Y-91038298D01*
X136407651Y-91038298D01*
G37*
G36*
X136791791Y-141589590D02*
G01*
X136816132Y-141590296D01*
X136840474Y-141591354D01*
X136864463Y-141592059D01*
X136888805Y-141593118D01*
X136913499Y-141593823D01*
X136937488Y-141594529D01*
X136961477Y-141595587D01*
X136986171Y-141596293D01*
X136985113Y-141673551D01*
X136990405Y-141745871D01*
X137002752Y-141813957D01*
X137021802Y-141877457D01*
X137048966Y-141937782D01*
X137084596Y-141994579D01*
X137129046Y-142049259D01*
X137182316Y-142101471D01*
X137252166Y-142155446D01*
X137320957Y-142194251D01*
X137388338Y-142217534D01*
X137453955Y-142225648D01*
X137517455Y-142218593D01*
X137577780Y-142197073D01*
X137634930Y-142160384D01*
X137688199Y-142109584D01*
X137724535Y-142062312D01*
X137749230Y-142014334D01*
X137762282Y-141965298D01*
X137763341Y-141914146D01*
X137752757Y-141860876D01*
X137728768Y-141803373D01*
X137692785Y-141741990D01*
X137643043Y-141675668D01*
X137627521Y-141656618D01*
X137612352Y-141637921D01*
X137596830Y-141618871D01*
X137581660Y-141599821D01*
X137566138Y-141581123D01*
X137550616Y-141562073D01*
X137535446Y-141543023D01*
X137519924Y-141523973D01*
X137451132Y-141426607D01*
X137404918Y-141333826D01*
X137379871Y-141245984D01*
X137373168Y-141163082D01*
X137384105Y-141084412D01*
X137409152Y-141011034D01*
X137447252Y-140942596D01*
X137496641Y-140879096D01*
X137578132Y-140802543D01*
X137664563Y-140749626D01*
X137755227Y-140720346D01*
X137850124Y-140713643D01*
X137946785Y-140729165D01*
X138045916Y-140765501D01*
X138145046Y-140822651D01*
X138244177Y-140899909D01*
X138315085Y-140968348D01*
X138374352Y-141038551D01*
X138421977Y-141109812D01*
X138459018Y-141182132D01*
X138485124Y-141255509D01*
X138500646Y-141329593D01*
X138506643Y-141404382D01*
X138503116Y-141479523D01*
X138478774Y-141479171D01*
X138454785Y-141479171D01*
X138430796Y-141478818D01*
X138406455Y-141478818D01*
X138382818Y-141478465D01*
X138358477Y-141478112D01*
X138334488Y-141478112D01*
X138310499Y-141477759D01*
X138312263Y-141418846D01*
X138308735Y-141361343D01*
X138298857Y-141304193D01*
X138282277Y-141248454D01*
X138257230Y-141193068D01*
X138223716Y-141138740D01*
X138179971Y-141084765D01*
X138124938Y-141031496D01*
X138060380Y-140980343D01*
X137996527Y-140943301D01*
X137934085Y-140920018D01*
X137873760Y-140910140D01*
X137815552Y-140914726D01*
X137759813Y-140933423D01*
X137707249Y-140966232D01*
X137657155Y-141013857D01*
X137623641Y-141057248D01*
X137600005Y-141102757D01*
X137586952Y-141150734D01*
X137585188Y-141201182D01*
X137595066Y-141255862D01*
X137618349Y-141314776D01*
X137654685Y-141378276D01*
X137705838Y-141447773D01*
X137720302Y-141465765D01*
X137735118Y-141484109D01*
X137749935Y-141502454D01*
X137764399Y-141520798D01*
X137778863Y-141539143D01*
X137793680Y-141557487D01*
X137808496Y-141575832D01*
X137822960Y-141594176D01*
X137891752Y-141691896D01*
X137938318Y-141784676D01*
X137964424Y-141872871D01*
X137971832Y-141956126D01*
X137962307Y-142035148D01*
X137937260Y-142109232D01*
X137899160Y-142179082D01*
X137848713Y-142244346D01*
X137766516Y-142322662D01*
X137677263Y-142378048D01*
X137582366Y-142411209D01*
X137482882Y-142421087D01*
X137379871Y-142408034D01*
X137274391Y-142372051D01*
X137167146Y-142312784D01*
X137059902Y-142229529D01*
X136980880Y-142152623D01*
X136917027Y-142074307D01*
X136867638Y-141994932D01*
X136830949Y-141914851D01*
X136806255Y-141834065D01*
X136792143Y-141752926D01*
X136787557Y-141671082D01*
X136791791Y-141589590D01*
G37*
G36*
X134625524Y-138272280D02*
G01*
X134645279Y-138265577D01*
X134664682Y-138259227D01*
X134684437Y-138252524D01*
X134703840Y-138245822D01*
X134723243Y-138239119D01*
X134742999Y-138232769D01*
X134762754Y-138226066D01*
X134782157Y-138219716D01*
X134799443Y-138270516D01*
X134816376Y-138321316D01*
X134833662Y-138372116D01*
X134850596Y-138422916D01*
X134867882Y-138473716D01*
X134884815Y-138524869D01*
X134901749Y-138575316D01*
X134919035Y-138626469D01*
X135083782Y-138571083D01*
X135248882Y-138514991D01*
X135413276Y-138459605D01*
X135578024Y-138404219D01*
X135743124Y-138348833D01*
X135907871Y-138293447D01*
X136072971Y-138237355D01*
X136237365Y-138181969D01*
X136220432Y-138131522D01*
X136203146Y-138080369D01*
X136186212Y-138029569D01*
X136168926Y-137978769D01*
X136151640Y-137927969D01*
X136134707Y-137877169D01*
X136117421Y-137826016D01*
X136100487Y-137775569D01*
X136119890Y-137768866D01*
X136139646Y-137762163D01*
X136159401Y-137755461D01*
X136178804Y-137749111D01*
X136198207Y-137742408D01*
X136217962Y-137735705D01*
X136237365Y-137729002D01*
X136257121Y-137722299D01*
X136299454Y-137848594D01*
X136342140Y-137974888D01*
X136384826Y-138101183D01*
X136427160Y-138227124D01*
X136469846Y-138353419D01*
X136512532Y-138479713D01*
X136555218Y-138606008D01*
X136597551Y-138732302D01*
X136577796Y-138738652D01*
X136558393Y-138745355D01*
X136538637Y-138751705D01*
X136519235Y-138758408D01*
X136499479Y-138765111D01*
X136480076Y-138771813D01*
X136460321Y-138778516D01*
X136440918Y-138784866D01*
X136423632Y-138734419D01*
X136406346Y-138683266D01*
X136389412Y-138632466D01*
X136372126Y-138581666D01*
X136354840Y-138530866D01*
X136337907Y-138480066D01*
X136320974Y-138428913D01*
X136303687Y-138378466D01*
X136138940Y-138433852D01*
X135973840Y-138489238D01*
X135809093Y-138544624D01*
X135644346Y-138600716D01*
X135479599Y-138656102D01*
X135314851Y-138711488D01*
X135149751Y-138766874D01*
X134985357Y-138822613D01*
X135002290Y-138873413D01*
X135019224Y-138924213D01*
X135036510Y-138975013D01*
X135053796Y-139025813D01*
X135071082Y-139076613D01*
X135088368Y-139127766D01*
X135104949Y-139178213D01*
X135122235Y-139229366D01*
X135102832Y-139235716D01*
X135083076Y-139242419D01*
X135063321Y-139249122D01*
X135044271Y-139255824D01*
X135024515Y-139262527D01*
X135004760Y-139268877D01*
X134985357Y-139275580D01*
X134965601Y-139281930D01*
X134923268Y-139155988D01*
X134880582Y-139029341D01*
X134838249Y-138903399D01*
X134795210Y-138777105D01*
X134752876Y-138650811D01*
X134710543Y-138524869D01*
X134667857Y-138398222D01*
X134625524Y-138272280D01*
G37*
G36*
X134691317Y-135055970D02*
G01*
X134691669Y-135054559D01*
X134692022Y-135052795D01*
X134692375Y-135051384D01*
X134692728Y-135049973D01*
X134692728Y-135048562D01*
X134693080Y-135047503D01*
X134693433Y-135045739D01*
X134693786Y-135044328D01*
X134649689Y-135011873D01*
X134608767Y-134975184D01*
X134572430Y-134932498D01*
X134542092Y-134884520D01*
X134519867Y-134828781D01*
X134506814Y-134765634D01*
X134504697Y-134693667D01*
X134515280Y-134611470D01*
X134555144Y-134486234D01*
X134620055Y-134383928D01*
X134708955Y-134304201D01*
X134820786Y-134247051D01*
X134955547Y-134211773D01*
X135111828Y-134199073D01*
X135288922Y-134208245D01*
X135486478Y-134238584D01*
X135688267Y-134287973D01*
X135860775Y-134351473D01*
X136004003Y-134428026D01*
X136116539Y-134518337D01*
X136198030Y-134622406D01*
X136248830Y-134739881D01*
X136267175Y-134871467D01*
X136253417Y-135017164D01*
X136223078Y-135125820D01*
X136180392Y-135216131D01*
X136127475Y-135289509D01*
X136066444Y-135347717D01*
X135999417Y-135392873D01*
X135927450Y-135427092D01*
X135853014Y-135451434D01*
X135778225Y-135468014D01*
X135772580Y-135444378D01*
X135766936Y-135420389D01*
X135761292Y-135396753D01*
X135756000Y-135372764D01*
X135750003Y-135349128D01*
X135744358Y-135325492D01*
X135738714Y-135301503D01*
X135733069Y-135277867D01*
X135792689Y-135265167D01*
X135849133Y-135248234D01*
X135902050Y-135226362D01*
X135949675Y-135198139D01*
X135992008Y-135161803D01*
X136027639Y-135115589D01*
X136055508Y-135058439D01*
X136075264Y-134989295D01*
X136083730Y-134892281D01*
X136070325Y-134805498D01*
X136036105Y-134727887D01*
X135981778Y-134660153D01*
X135909458Y-134601945D01*
X135819500Y-134552909D01*
X135714019Y-134513751D01*
X135594075Y-134484117D01*
X135561267Y-134477414D01*
X135528458Y-134471064D01*
X135495650Y-134464362D01*
X135463194Y-134458364D01*
X135430386Y-134451662D01*
X135397578Y-134445312D01*
X135364769Y-134438609D01*
X135331961Y-134431906D01*
X135208842Y-134412503D01*
X135094894Y-134405095D01*
X134990825Y-134411798D01*
X134898750Y-134432964D01*
X134819728Y-134470712D01*
X134756228Y-134525039D01*
X134708250Y-134598417D01*
X134678264Y-134691551D01*
X134669444Y-134770220D01*
X134675442Y-134842892D01*
X134695197Y-134908862D01*
X134727300Y-134967070D01*
X134771750Y-135017164D01*
X134826430Y-135058087D01*
X134891342Y-135089484D01*
X134965425Y-135110298D01*
X134987297Y-135114884D01*
X135008817Y-135119117D01*
X135030689Y-135122998D01*
X135052208Y-135127584D01*
X135074433Y-135132170D01*
X135095953Y-135136403D01*
X135117825Y-135140284D01*
X135139697Y-135144870D01*
X135148517Y-135100420D01*
X135156983Y-135055970D01*
X135166155Y-135011520D01*
X135174975Y-134967423D01*
X135183794Y-134922973D01*
X135192614Y-134878523D01*
X135201080Y-134834073D01*
X135210253Y-134789623D01*
X135230361Y-134793856D01*
X135250822Y-134797737D01*
X135271283Y-134801617D01*
X135291392Y-134805498D01*
X135312205Y-134809731D01*
X135332314Y-134813612D01*
X135352775Y-134817492D01*
X135373236Y-134821726D01*
X135359830Y-134889459D01*
X135345719Y-134957898D01*
X135331961Y-135025984D01*
X135318555Y-135093717D01*
X135305150Y-135161803D01*
X135291392Y-135229889D01*
X135277633Y-135298328D01*
X135264228Y-135366062D01*
X135159805Y-135345248D01*
X135055030Y-135324434D01*
X134950608Y-135303620D01*
X134846186Y-135283159D01*
X134741764Y-135262345D01*
X134637342Y-135241531D01*
X134532567Y-135220717D01*
X134428144Y-135199903D01*
X134433083Y-135176620D01*
X134437669Y-135152631D01*
X134442255Y-135129348D01*
X134447194Y-135106064D01*
X134451780Y-135082076D01*
X134456367Y-135058792D01*
X134461305Y-135034803D01*
X134465892Y-135011520D01*
X134494114Y-135017164D01*
X134522336Y-135022456D01*
X134550558Y-135028101D01*
X134578780Y-135033745D01*
X134607003Y-135039389D01*
X134634872Y-135045034D01*
X134663094Y-135050326D01*
X134691317Y-135055970D01*
G37*
G36*
X137686470Y-131674950D02*
G01*
X137687882Y-131673186D01*
X137689293Y-131671775D01*
X137690704Y-131670011D01*
X137692115Y-131668247D01*
X137693879Y-131666836D01*
X137694937Y-131665072D01*
X137696348Y-131663661D01*
X137697759Y-131661897D01*
X137561234Y-131541600D01*
X137424357Y-131420950D01*
X137287479Y-131300300D01*
X137150954Y-131180356D01*
X137014429Y-131060058D01*
X136877551Y-130939408D01*
X136740673Y-130818758D01*
X136604148Y-130698461D01*
X136619670Y-130681175D01*
X136635193Y-130663536D01*
X136650362Y-130645897D01*
X136665884Y-130628258D01*
X136681054Y-130610267D01*
X136696576Y-130592981D01*
X136712098Y-130575342D01*
X136727620Y-130557703D01*
X136889193Y-130699872D01*
X137050765Y-130842394D01*
X137212337Y-130984564D01*
X137373557Y-131126733D01*
X137535129Y-131268903D01*
X137696701Y-131411072D01*
X137858273Y-131553242D01*
X138019845Y-131695764D01*
X137995857Y-131723281D01*
X137971515Y-131750797D01*
X137946820Y-131778314D01*
X137922832Y-131805831D01*
X137898843Y-131833347D01*
X137874148Y-131860864D01*
X137849807Y-131888381D01*
X137825818Y-131916250D01*
X137641668Y-131852044D01*
X137457870Y-131787839D01*
X137274073Y-131723986D01*
X137090276Y-131659428D01*
X136906126Y-131595222D01*
X136722682Y-131531369D01*
X136538532Y-131467164D01*
X136354734Y-131402958D01*
X136353323Y-131404722D01*
X136351912Y-131406486D01*
X136350501Y-131407897D01*
X136349090Y-131409661D01*
X136347326Y-131411425D01*
X136345915Y-131412836D01*
X136344504Y-131414600D01*
X136343093Y-131416364D01*
X136478559Y-131535250D01*
X136614026Y-131654489D01*
X136749493Y-131773728D01*
X136884959Y-131892967D01*
X137020073Y-132012206D01*
X137155540Y-132131444D01*
X137291007Y-132250683D01*
X137426473Y-132369922D01*
X137410951Y-132387561D01*
X137395429Y-132404847D01*
X137379907Y-132422486D01*
X137364384Y-132440125D01*
X137348862Y-132457764D01*
X137333340Y-132475403D01*
X137317818Y-132492689D01*
X137302295Y-132510328D01*
X137140723Y-132368158D01*
X136979504Y-132225989D01*
X136817932Y-132083467D01*
X136656359Y-131941297D01*
X136494787Y-131799481D01*
X136333215Y-131656958D01*
X136171995Y-131514789D01*
X136010423Y-131372619D01*
X136034412Y-131344750D01*
X136059107Y-131317233D01*
X136083095Y-131289717D01*
X136107084Y-131262200D01*
X136131779Y-131234683D01*
X136155768Y-131207167D01*
X136180109Y-131179650D01*
X136204451Y-131152133D01*
X136389659Y-131217397D01*
X136575220Y-131282661D01*
X136760076Y-131347925D01*
X136945284Y-131413542D01*
X137130845Y-131478806D01*
X137315701Y-131544422D01*
X137501262Y-131609333D01*
X137686470Y-131674950D01*
G37*
G36*
X141958398Y-129215490D02*
G01*
X141957692Y-128999943D01*
X141957339Y-128784396D01*
X141956986Y-128569201D01*
X141956281Y-128353654D01*
X141955575Y-128137754D01*
X141955223Y-127922559D01*
X141954870Y-127707365D01*
X141954164Y-127491465D01*
X141980270Y-127491465D01*
X142006023Y-127491465D01*
X142032128Y-127491112D01*
X142057881Y-127491112D01*
X142083634Y-127491112D01*
X142110092Y-127490759D01*
X142135845Y-127490759D01*
X142161598Y-127490759D01*
X142161950Y-127683729D01*
X142162656Y-127876698D01*
X142163009Y-128069668D01*
X142163714Y-128262637D01*
X142164067Y-128455607D01*
X142164420Y-128648576D01*
X142165125Y-128841193D01*
X142165478Y-129034162D01*
X142267784Y-129034162D01*
X142369736Y-129033809D01*
X142472042Y-129033457D01*
X142574348Y-129033457D01*
X142676300Y-129033457D01*
X142778606Y-129033104D01*
X142880559Y-129032751D01*
X142982864Y-129032751D01*
X142982864Y-129055329D01*
X142982864Y-129077554D01*
X142982864Y-129100484D01*
X142982864Y-129122709D01*
X142983217Y-129145287D01*
X142983217Y-129167865D01*
X142983217Y-129190443D01*
X142983217Y-129212668D01*
X142855159Y-129213021D01*
X142727100Y-129213373D01*
X142598689Y-129213726D01*
X142470984Y-129214079D01*
X142342925Y-129214432D01*
X142214867Y-129214784D01*
X142086456Y-129215137D01*
X141958398Y-129215490D01*
G37*
G36*
X139179920Y-126856284D02*
G01*
X138998239Y-126747276D01*
X139162634Y-126593112D01*
X139192267Y-126610045D01*
X139222253Y-126626978D01*
X139251886Y-126643912D01*
X139281520Y-126660845D01*
X139311153Y-126677778D01*
X139340786Y-126695065D01*
X139370773Y-126711998D01*
X139400406Y-126728931D01*
X139350311Y-126948712D01*
X139300570Y-127168492D01*
X139250475Y-127388273D01*
X139200381Y-127608053D01*
X139150286Y-127827834D01*
X139100192Y-128047615D01*
X139050450Y-128267395D01*
X139000356Y-128487176D01*
X138976720Y-128473417D01*
X138952731Y-128460012D01*
X138929095Y-128446606D01*
X138905459Y-128432848D01*
X138881117Y-128419090D01*
X138857481Y-128405684D01*
X138833845Y-128392278D01*
X138809856Y-128378167D01*
X138824673Y-128316078D01*
X138839489Y-128253637D01*
X138854306Y-128191195D01*
X138869123Y-128128753D01*
X138883939Y-128066665D01*
X138898756Y-128004223D01*
X138913573Y-127941781D01*
X138928389Y-127879340D01*
X138863125Y-127841945D01*
X138797156Y-127804551D01*
X138731539Y-127766803D01*
X138666275Y-127729409D01*
X138600306Y-127691662D01*
X138535042Y-127654267D01*
X138469073Y-127616520D01*
X138403809Y-127579126D01*
X138357242Y-127623576D01*
X138311028Y-127668026D01*
X138264461Y-127712123D01*
X138218248Y-127756573D01*
X138172034Y-127801023D01*
X138125467Y-127845120D01*
X138079253Y-127889570D01*
X138032686Y-127934020D01*
X138009756Y-127920615D01*
X137986120Y-127907209D01*
X137962836Y-127893803D01*
X137939553Y-127880398D01*
X137916623Y-127866992D01*
X137893339Y-127853940D01*
X137869703Y-127840534D01*
X137846773Y-127827128D01*
X138011167Y-127672612D01*
X138175561Y-127518448D01*
X138340309Y-127364284D01*
X138504703Y-127210120D01*
X138669098Y-127055603D01*
X138833845Y-126901792D01*
X138998239Y-126747276D01*
X139179920Y-126856284D01*
X139177450Y-126854873D01*
X139174981Y-126853462D01*
X139172511Y-126852051D01*
X139170395Y-126850640D01*
X139167925Y-126849228D01*
X139165456Y-126848170D01*
X139162986Y-126846759D01*
X139160517Y-126845348D01*
X139082553Y-126920490D01*
X139004589Y-126995984D01*
X138926625Y-127071126D01*
X138848661Y-127146267D01*
X138770345Y-127221409D01*
X138692381Y-127296903D01*
X138614417Y-127372398D01*
X138536453Y-127447540D01*
X138591134Y-127478937D01*
X138646167Y-127510334D01*
X138701200Y-127541378D01*
X138755881Y-127572776D01*
X138810561Y-127604173D01*
X138865242Y-127635570D01*
X138920628Y-127666967D01*
X138975309Y-127698365D01*
X139000709Y-127592884D01*
X139026461Y-127487756D01*
X139052214Y-127382628D01*
X139077614Y-127277148D01*
X139103014Y-127172020D01*
X139128414Y-127066892D01*
X139154520Y-126961765D01*
X139179920Y-126856284D01*
G37*
G36*
X136591977Y-124226996D02*
G01*
X136590919Y-124224879D01*
X136589508Y-124223115D01*
X136588450Y-124221352D01*
X136587391Y-124219588D01*
X136586333Y-124217471D01*
X136585275Y-124215707D01*
X136584216Y-124213943D01*
X136583158Y-124211827D01*
X136425114Y-124303549D01*
X136267422Y-124395271D01*
X136109730Y-124486640D01*
X135951686Y-124578363D01*
X135793641Y-124670085D01*
X135635950Y-124761807D01*
X135478258Y-124853177D01*
X135320566Y-124944899D01*
X135308572Y-124924790D01*
X135296930Y-124904329D01*
X135284936Y-124884221D01*
X135273294Y-124864113D01*
X135261652Y-124843652D01*
X135249305Y-124823543D01*
X135237664Y-124803435D01*
X135226022Y-124782974D01*
X135412289Y-124675024D01*
X135598908Y-124566721D01*
X135785527Y-124458065D01*
X135971794Y-124350115D01*
X136158414Y-124241813D01*
X136345033Y-124133157D01*
X136531300Y-124025207D01*
X136717566Y-123916904D01*
X136736264Y-123948654D01*
X136754608Y-123980404D01*
X136772952Y-124012154D01*
X136791297Y-124043552D01*
X136809994Y-124075302D01*
X136828339Y-124107052D01*
X136846683Y-124138802D01*
X136865027Y-124170552D01*
X136745789Y-124324715D01*
X136626197Y-124478879D01*
X136506958Y-124632690D01*
X136387366Y-124787207D01*
X136267775Y-124941371D01*
X136148536Y-125095535D01*
X136028944Y-125249346D01*
X135909352Y-125403863D01*
X135910411Y-125405979D01*
X135911469Y-125407743D01*
X135912527Y-125409507D01*
X135913586Y-125411271D01*
X135914997Y-125413388D01*
X135916055Y-125415152D01*
X135917114Y-125416915D01*
X135918172Y-125419032D01*
X136074452Y-125328015D01*
X136230733Y-125237352D01*
X136387014Y-125146688D01*
X136543294Y-125056024D01*
X136699575Y-124965007D01*
X136855855Y-124874343D01*
X137011783Y-124783679D01*
X137168416Y-124692663D01*
X137180058Y-124713124D01*
X137191700Y-124733585D01*
X137203694Y-124753693D01*
X137215688Y-124774154D01*
X137227330Y-124794263D01*
X137239325Y-124814724D01*
X137250966Y-124835185D01*
X137262608Y-124855293D01*
X137076341Y-124963596D01*
X136890075Y-125072252D01*
X136703102Y-125180202D01*
X136516836Y-125288504D01*
X136330569Y-125396454D01*
X136143597Y-125505110D01*
X135957330Y-125613413D01*
X135771064Y-125721363D01*
X135752366Y-125689613D01*
X135734022Y-125658215D01*
X135716030Y-125626113D01*
X135697333Y-125594363D01*
X135678636Y-125562613D01*
X135660291Y-125530510D01*
X135642300Y-125498760D01*
X135623602Y-125467363D01*
X135744605Y-125312140D01*
X135865608Y-125157271D01*
X135986611Y-125002049D01*
X136107966Y-124847179D01*
X136228969Y-124691957D01*
X136349619Y-124537088D01*
X136470975Y-124381865D01*
X136591977Y-124226996D01*
G37*
G36*
X134645844Y-121628011D02*
G01*
X134645844Y-121626600D01*
X134645844Y-121624836D01*
X134645844Y-121623072D01*
X134645844Y-121621661D01*
X134645844Y-121620603D01*
X134645844Y-121618839D01*
X134645844Y-121617075D01*
X134645844Y-121615664D01*
X134596102Y-121592380D01*
X134549182Y-121564158D01*
X134505085Y-121530292D01*
X134465927Y-121488311D01*
X134432766Y-121438569D01*
X134407719Y-121378950D01*
X134391138Y-121308394D01*
X134385494Y-121225492D01*
X134399957Y-121094611D01*
X134443349Y-120981369D01*
X134514610Y-120885767D01*
X134613035Y-120807803D01*
X134738271Y-120746772D01*
X134888907Y-120703380D01*
X135064591Y-120677275D01*
X135263910Y-120668103D01*
X135471344Y-120676922D01*
X135652671Y-120704792D01*
X135808246Y-120752064D01*
X135936305Y-120818386D01*
X136036846Y-120904111D01*
X136109519Y-121009944D01*
X136153969Y-121135533D01*
X136169138Y-121281583D01*
X136161024Y-121394119D01*
X136137388Y-121490780D01*
X136099641Y-121573683D01*
X136051310Y-121642828D01*
X135994160Y-121700683D01*
X135931013Y-121747955D01*
X135862574Y-121786761D01*
X135792724Y-121818158D01*
X135782494Y-121796286D01*
X135772263Y-121773708D01*
X135762032Y-121751483D01*
X135751802Y-121729258D01*
X135741219Y-121707386D01*
X135730988Y-121684808D01*
X135721110Y-121662583D01*
X135710880Y-121640358D01*
X135766619Y-121616017D01*
X135818830Y-121588147D01*
X135866102Y-121556044D01*
X135907377Y-121518650D01*
X135941596Y-121474200D01*
X135966996Y-121422342D01*
X135983224Y-121360958D01*
X135988869Y-121288992D01*
X135977932Y-121192330D01*
X135947594Y-121109075D01*
X135898910Y-121039930D01*
X135832235Y-120984192D01*
X135750038Y-120941153D01*
X135652671Y-120910814D01*
X135540841Y-120893175D01*
X135417369Y-120887178D01*
X135383855Y-120887178D01*
X135350694Y-120887178D01*
X135317180Y-120887530D01*
X135284019Y-120887530D01*
X135250857Y-120887530D01*
X135217344Y-120887883D01*
X135184182Y-120887883D01*
X135151021Y-120887883D01*
X135026138Y-120893528D01*
X134912896Y-120909050D01*
X134812355Y-120936214D01*
X134726277Y-120975372D01*
X134656074Y-121027583D01*
X134604216Y-121093905D01*
X134572113Y-121175397D01*
X134561177Y-121272411D01*
X134568232Y-121351786D01*
X134588341Y-121421636D01*
X134620796Y-121482667D01*
X134663835Y-121533114D01*
X134716752Y-121573683D01*
X134778841Y-121603317D01*
X134848691Y-121620955D01*
X134925244Y-121627305D01*
X134947469Y-121627305D01*
X134969694Y-121627305D01*
X134991566Y-121626953D01*
X135014144Y-121626953D01*
X135036369Y-121626953D01*
X135058594Y-121626600D01*
X135080466Y-121626600D01*
X135103044Y-121626600D01*
X135103044Y-121581092D01*
X135102691Y-121535583D01*
X135102691Y-121490428D01*
X135102691Y-121444919D01*
X135102338Y-121399764D01*
X135102338Y-121354608D01*
X135101985Y-121309100D01*
X135101985Y-121263592D01*
X135122799Y-121263592D01*
X135143260Y-121263592D01*
X135164074Y-121263592D01*
X135184535Y-121263592D01*
X135205349Y-121263592D01*
X135226163Y-121263592D01*
X135246624Y-121263592D01*
X135267438Y-121263592D01*
X135267791Y-121333089D01*
X135267791Y-121402233D01*
X135268144Y-121471730D01*
X135268144Y-121541228D01*
X135268496Y-121610725D01*
X135268849Y-121679869D01*
X135268849Y-121749367D01*
X135269202Y-121818864D01*
X135162663Y-121819217D01*
X135056124Y-121819569D01*
X134949585Y-121819922D01*
X134843046Y-121820275D01*
X134736507Y-121820628D01*
X134629969Y-121820980D01*
X134523430Y-121821333D01*
X134417244Y-121821686D01*
X134417244Y-121797344D01*
X134416891Y-121773355D01*
X134416891Y-121749367D01*
X134416538Y-121725025D01*
X134416538Y-121701036D01*
X134416538Y-121677047D01*
X134416185Y-121652705D01*
X134416185Y-121628717D01*
X134444760Y-121628717D01*
X134473688Y-121628717D01*
X134502263Y-121628364D01*
X134530838Y-121628364D01*
X134559766Y-121628364D01*
X134588341Y-121628011D01*
X134617269Y-121628011D01*
X134645844Y-121628011D01*
G37*
G36*
X135731729Y-116828293D02*
G01*
X135749720Y-116838524D01*
X135767712Y-116848754D01*
X135785704Y-116858632D01*
X135803695Y-116868862D01*
X135821687Y-116879446D01*
X135840032Y-116889324D01*
X135857670Y-116899201D01*
X135875662Y-116909432D01*
X135849204Y-116956351D01*
X135822745Y-117002918D01*
X135795934Y-117049485D01*
X135769123Y-117096404D01*
X135742665Y-117143324D01*
X135715854Y-117189537D01*
X135689395Y-117236104D01*
X135662937Y-117283024D01*
X135813926Y-117369101D01*
X135965268Y-117455179D01*
X136116609Y-117541257D01*
X136267951Y-117627687D01*
X136419293Y-117713765D01*
X136570634Y-117799843D01*
X136721976Y-117885921D01*
X136872965Y-117971999D01*
X136899776Y-117925432D01*
X136926587Y-117879218D01*
X136953045Y-117832299D01*
X136979504Y-117785732D01*
X137006315Y-117739165D01*
X137032773Y-117692246D01*
X137059937Y-117645679D01*
X137086395Y-117599465D01*
X137104387Y-117609696D01*
X137122026Y-117619926D01*
X137140018Y-117629804D01*
X137158009Y-117640387D01*
X137176354Y-117650618D01*
X137194345Y-117660496D01*
X137211984Y-117671079D01*
X137229976Y-117681310D01*
X137164007Y-117797021D01*
X137097684Y-117912379D01*
X137031715Y-118027737D01*
X136965745Y-118143801D01*
X136899776Y-118259512D01*
X136833454Y-118374871D01*
X136767484Y-118490229D01*
X136701162Y-118605940D01*
X136683170Y-118595710D01*
X136665179Y-118585479D01*
X136647187Y-118575601D01*
X136629195Y-118565371D01*
X136611204Y-118555140D01*
X136592859Y-118544910D01*
X136575220Y-118535032D01*
X136557229Y-118524801D01*
X136583687Y-118478235D01*
X136610498Y-118431668D01*
X136636957Y-118384749D01*
X136664120Y-118338182D01*
X136690579Y-118291615D01*
X136717037Y-118245049D01*
X136743848Y-118198482D01*
X136770307Y-118151915D01*
X136619318Y-118065837D01*
X136467623Y-117979760D01*
X136316282Y-117893329D01*
X136165293Y-117806899D01*
X136013951Y-117720821D01*
X135862609Y-117634390D01*
X135710915Y-117548312D01*
X135559926Y-117462235D01*
X135533468Y-117509154D01*
X135506304Y-117555721D01*
X135479845Y-117601935D01*
X135453387Y-117648854D01*
X135426929Y-117695774D01*
X135400470Y-117742340D01*
X135373307Y-117788907D01*
X135346848Y-117835474D01*
X135328857Y-117825243D01*
X135311218Y-117815012D01*
X135293226Y-117804782D01*
X135274882Y-117794199D01*
X135256890Y-117783968D01*
X135239251Y-117773737D01*
X135221259Y-117763154D01*
X135203268Y-117752924D01*
X135269237Y-117637212D01*
X135335559Y-117521854D01*
X135401176Y-117406496D01*
X135467498Y-117290785D01*
X135533468Y-117174721D01*
X135599437Y-117059362D01*
X135665759Y-116944004D01*
X135731729Y-116828293D01*
G37*
G36*
X139054543Y-114280321D02*
G01*
X139046076Y-114302899D01*
X139037609Y-114325829D01*
X139029143Y-114348760D01*
X139020323Y-114371690D01*
X139012209Y-114394268D01*
X139003390Y-114417552D01*
X138995276Y-114440129D01*
X138986809Y-114463060D01*
X138913784Y-114436954D01*
X138843229Y-114419315D01*
X138775143Y-114409085D01*
X138708820Y-114406968D01*
X138642851Y-114414024D01*
X138577587Y-114429546D01*
X138511970Y-114454240D01*
X138445295Y-114488460D01*
X138371918Y-114537496D01*
X138313709Y-114590765D01*
X138270318Y-114647210D01*
X138241743Y-114706829D01*
X138228337Y-114769271D01*
X138229748Y-114833124D01*
X138246329Y-114899093D01*
X138278079Y-114965768D01*
X138311593Y-115015157D01*
X138348987Y-115053610D01*
X138391320Y-115081832D01*
X138439298Y-115099118D01*
X138493626Y-115106174D01*
X138555715Y-115101940D01*
X138625212Y-115087124D01*
X138704234Y-115061724D01*
X138726812Y-115052904D01*
X138749743Y-115044438D01*
X138772673Y-115035971D01*
X138795604Y-115027152D01*
X138818181Y-115018685D01*
X138841465Y-115009865D01*
X138864043Y-115001399D01*
X138886620Y-114992932D01*
X139000920Y-114958360D01*
X139103579Y-114943896D01*
X139194595Y-114948129D01*
X139275381Y-114968238D01*
X139346643Y-115003515D01*
X139408379Y-115050788D01*
X139461295Y-115108996D01*
X139506098Y-115176024D01*
X139553018Y-115277624D01*
X139575948Y-115376402D01*
X139574890Y-115472357D01*
X139550901Y-115564079D01*
X139505745Y-115651215D01*
X139440129Y-115733060D01*
X139354404Y-115808907D01*
X139249981Y-115878052D01*
X139162493Y-115923913D01*
X139077120Y-115957779D01*
X138994218Y-115980710D01*
X138914137Y-115992704D01*
X138836526Y-115994115D01*
X138761031Y-115985649D01*
X138688359Y-115967304D01*
X138618509Y-115940140D01*
X138626270Y-115917563D01*
X138634031Y-115894632D01*
X138641793Y-115872054D01*
X138649906Y-115849124D01*
X138657315Y-115826546D01*
X138665076Y-115803615D01*
X138672837Y-115781038D01*
X138680598Y-115758107D01*
X138735984Y-115778568D01*
X138791723Y-115793385D01*
X138848520Y-115802204D01*
X138907081Y-115803968D01*
X138967406Y-115797971D01*
X139029848Y-115783154D01*
X139094759Y-115758460D01*
X139162845Y-115723888D01*
X139231284Y-115678379D01*
X139286670Y-115630049D01*
X139328651Y-115578543D01*
X139356873Y-115524215D01*
X139370984Y-115467418D01*
X139370984Y-115408504D01*
X139356168Y-115347474D01*
X139326887Y-115285032D01*
X139296195Y-115239524D01*
X139260565Y-115202482D01*
X139219643Y-115174965D01*
X139172018Y-115156974D01*
X139117337Y-115149565D01*
X139054190Y-115152740D01*
X138982223Y-115167204D01*
X138900379Y-115193310D01*
X138878506Y-115201424D01*
X138856281Y-115209890D01*
X138834409Y-115217652D01*
X138812184Y-115226118D01*
X138790312Y-115234232D01*
X138768087Y-115242346D01*
X138746215Y-115250460D01*
X138723990Y-115258574D01*
X138609337Y-115292440D01*
X138506679Y-115306904D01*
X138414957Y-115303729D01*
X138333465Y-115284327D01*
X138261851Y-115249754D01*
X138199057Y-115202482D01*
X138145434Y-115143921D01*
X138099220Y-115075482D01*
X138050890Y-114972118D01*
X138026548Y-114869813D01*
X138025137Y-114769271D01*
X138047362Y-114671552D01*
X138091812Y-114578065D01*
X138159898Y-114489518D01*
X138250209Y-114406263D01*
X138362745Y-114330768D01*
X138460818Y-114280321D01*
X138555362Y-114245043D01*
X138646379Y-114223171D01*
X138733868Y-114214352D01*
X138818181Y-114216115D01*
X138899673Y-114228815D01*
X138978343Y-114250335D01*
X139054543Y-114280321D01*
G37*
G36*
X145289114Y-42064912D02*
G01*
X145272533Y-42079376D01*
X145256306Y-42090312D01*
X145239725Y-42098073D01*
X145223497Y-42103012D01*
X145207270Y-42106187D01*
X145190689Y-42107951D01*
X145174461Y-42108656D01*
X145157881Y-42108656D01*
X145141653Y-42106540D01*
X145125072Y-42101248D01*
X145108492Y-42092429D01*
X145092264Y-42081140D01*
X145076036Y-42068087D01*
X145059808Y-42053270D01*
X145043228Y-42037395D01*
X145026647Y-42021168D01*
X144966675Y-41933679D01*
X144906350Y-41846190D01*
X144846378Y-41758701D01*
X144786053Y-41671212D01*
X144726081Y-41583723D01*
X144665756Y-41496234D01*
X144605783Y-41408745D01*
X144546164Y-41321256D01*
X144478078Y-41228829D01*
X144407170Y-41148395D01*
X144333086Y-41079251D01*
X144256181Y-41020690D01*
X144177511Y-40972359D01*
X144097078Y-40933554D01*
X144015939Y-40904273D01*
X143933742Y-40883812D01*
X143851897Y-40873581D01*
X143768995Y-40875698D01*
X143685386Y-40889809D01*
X143600367Y-40916620D01*
X143513231Y-40955426D01*
X143423625Y-41006931D01*
X143330492Y-41070431D01*
X143234536Y-41146279D01*
X143037686Y-41315612D01*
X142841189Y-41485298D01*
X142644339Y-41654631D01*
X142447489Y-41824318D01*
X142250639Y-41993651D01*
X142053789Y-42163337D01*
X141856939Y-42332670D01*
X141660442Y-42502356D01*
X141544025Y-42594431D01*
X141423375Y-42673806D01*
X141299903Y-42739776D01*
X141174314Y-42792340D01*
X141046256Y-42829734D01*
X140916434Y-42853018D01*
X140785906Y-42860426D01*
X140655025Y-42852312D01*
X140527672Y-42827618D01*
X140407728Y-42787401D01*
X140293781Y-42731662D01*
X140185125Y-42660754D01*
X140080350Y-42575734D01*
X139978750Y-42476956D01*
X139879267Y-42364773D01*
X139780842Y-42239890D01*
X139720517Y-42152401D01*
X139660545Y-42064912D01*
X139600220Y-41977423D01*
X139540247Y-41889934D01*
X139479922Y-41802445D01*
X139419950Y-41714956D01*
X139359625Y-41627468D01*
X139299653Y-41539979D01*
X139285542Y-41505406D01*
X139276017Y-41468365D01*
X139271078Y-41429912D01*
X139272489Y-41392518D01*
X139279897Y-41356887D01*
X139293656Y-41324784D01*
X139314470Y-41297973D01*
X139343397Y-41277512D01*
X139359625Y-41263048D01*
X139376206Y-41252112D01*
X139392786Y-41244351D01*
X139409014Y-41239412D01*
X139425595Y-41236237D01*
X139441822Y-41234473D01*
X139458403Y-41234120D01*
X139474984Y-41233768D01*
X139490859Y-41235884D01*
X139507439Y-41241529D01*
X139523667Y-41249995D01*
X139540247Y-41261284D01*
X139556828Y-41274337D01*
X139573056Y-41289154D01*
X139589636Y-41305029D01*
X139605864Y-41321256D01*
X139666189Y-41408745D01*
X139725809Y-41496234D01*
X139786134Y-41583723D01*
X139846106Y-41671212D01*
X139906431Y-41758701D01*
X139966403Y-41846190D01*
X140026728Y-41933679D01*
X140086700Y-42021168D01*
X140154081Y-42113595D01*
X140225342Y-42194029D01*
X140299425Y-42263173D01*
X140376331Y-42322087D01*
X140455353Y-42370065D01*
X140535434Y-42408870D01*
X140616925Y-42438151D01*
X140698770Y-42458612D01*
X140780967Y-42468843D01*
X140863517Y-42466726D01*
X140946772Y-42452615D01*
X141032145Y-42425804D01*
X141119281Y-42386998D01*
X141209239Y-42335493D01*
X141301667Y-42271993D01*
X141398328Y-42196145D01*
X141594825Y-42026812D01*
X141791675Y-41857126D01*
X141988525Y-41687793D01*
X142185022Y-41518106D01*
X142381872Y-41348773D01*
X142578370Y-41179087D01*
X142775220Y-41009754D01*
X142972070Y-40840068D01*
X143088839Y-40747993D01*
X143209136Y-40668618D01*
X143332256Y-40602295D01*
X143458550Y-40550437D01*
X143586608Y-40512690D01*
X143716078Y-40489406D01*
X143846253Y-40481998D01*
X143977486Y-40490112D01*
X144104839Y-40514454D01*
X144224783Y-40555023D01*
X144338731Y-40610762D01*
X144447386Y-40681670D01*
X144552161Y-40766337D01*
X144653761Y-40865468D01*
X144753245Y-40977651D01*
X144852022Y-41102534D01*
X144911995Y-41190023D01*
X144972320Y-41277512D01*
X145031939Y-41365001D01*
X145092264Y-41452490D01*
X145152236Y-41539979D01*
X145212561Y-41627468D01*
X145272533Y-41714956D01*
X145332858Y-41802445D01*
X145359670Y-41822554D01*
X145375192Y-41849718D01*
X145380483Y-41881468D01*
X145376603Y-41917451D01*
X145364256Y-41954845D01*
X145344853Y-41992945D01*
X145319806Y-42030340D01*
X145289114Y-42064912D01*
G37*
G36*
X143802543Y-41277512D02*
G01*
X143837115Y-41279276D01*
X143873804Y-41284920D01*
X143910493Y-41293387D01*
X143944712Y-41304676D01*
X143975051Y-41318081D01*
X143999393Y-41332898D01*
X144015621Y-41348773D01*
X144021265Y-41365001D01*
X144021265Y-41703668D01*
X144021265Y-42043040D01*
X144021265Y-42382059D01*
X144021265Y-42721079D01*
X144021265Y-43060098D01*
X144021265Y-43399118D01*
X144021265Y-43738137D01*
X144021265Y-44077156D01*
X144017032Y-44124076D01*
X144005390Y-44166409D01*
X143986340Y-44203804D01*
X143960940Y-44235554D01*
X143929190Y-44260954D01*
X143892149Y-44280004D01*
X143849815Y-44291645D01*
X143802543Y-44295526D01*
X143755624Y-44291645D01*
X143713290Y-44280004D01*
X143675896Y-44260954D01*
X143644146Y-44235554D01*
X143618746Y-44203804D01*
X143599696Y-44166409D01*
X143588407Y-44124076D01*
X143584174Y-44077156D01*
X143584174Y-43738137D01*
X143584174Y-43399118D01*
X143584174Y-43060098D01*
X143584174Y-42721079D01*
X143584174Y-42382059D01*
X143584174Y-42043040D01*
X143584174Y-41703668D01*
X143584174Y-41365001D01*
X143602518Y-41348773D01*
X143624390Y-41332898D01*
X143649085Y-41318081D01*
X143677307Y-41304676D01*
X143706940Y-41293387D01*
X143737632Y-41284920D01*
X143769735Y-41279276D01*
X143802543Y-41277512D01*
G37*
G36*
X144021336Y-40052632D02*
G01*
X144021336Y-39970788D01*
X144021336Y-39888590D01*
X144021336Y-39806746D01*
X144021336Y-39724549D01*
X144021336Y-39642704D01*
X144021336Y-39560507D01*
X144021336Y-39478663D01*
X144021336Y-39396465D01*
X144013575Y-39316738D01*
X143990644Y-39242654D01*
X143954661Y-39175979D01*
X143906683Y-39117771D01*
X143848475Y-39069793D01*
X143781447Y-39033457D01*
X143707364Y-39010879D01*
X143627989Y-39002765D01*
X143305550Y-39002765D01*
X142983111Y-39002765D01*
X142660672Y-39002765D01*
X142338233Y-39002765D01*
X142015442Y-39002765D01*
X141693355Y-39002765D01*
X141370917Y-39002765D01*
X141048478Y-39002765D01*
X140969103Y-39010879D01*
X140895019Y-39033457D01*
X140827992Y-39069793D01*
X140769783Y-39117771D01*
X140721806Y-39175979D01*
X140685822Y-39242654D01*
X140662892Y-39316738D01*
X140655131Y-39396465D01*
X140655131Y-39702676D01*
X140655131Y-40008888D01*
X140655131Y-40315099D01*
X140655131Y-40621310D01*
X140655131Y-40927521D01*
X140655131Y-41233732D01*
X140655131Y-41539943D01*
X140655131Y-41846154D01*
X140659011Y-41876846D01*
X140669947Y-41903657D01*
X140687233Y-41926235D01*
X140709458Y-41944579D01*
X140735917Y-41958690D01*
X140765550Y-41969274D01*
X140797300Y-41975271D01*
X140829756Y-41977388D01*
X140864681Y-41975271D01*
X140901017Y-41969274D01*
X140937706Y-41959043D01*
X140971925Y-41944579D01*
X141002264Y-41926235D01*
X141026606Y-41903657D01*
X141042833Y-41876846D01*
X141048478Y-41846154D01*
X141048478Y-41561815D01*
X141048478Y-41277476D01*
X141048478Y-40993138D01*
X141048478Y-40708799D01*
X141048478Y-40424460D01*
X141048478Y-40140121D01*
X141048478Y-39855782D01*
X141048478Y-39571443D01*
X141052358Y-39524524D01*
X141064000Y-39481838D01*
X141083050Y-39444443D01*
X141108450Y-39413046D01*
X141140200Y-39387293D01*
X141177594Y-39368596D01*
X141220281Y-39356954D01*
X141266847Y-39352721D01*
X141534958Y-39352721D01*
X141802717Y-39352721D01*
X142070475Y-39352721D01*
X142338233Y-39352721D01*
X142605992Y-39352721D01*
X142873750Y-39352721D01*
X143141508Y-39352721D01*
X143409267Y-39352721D01*
X143456186Y-39356954D01*
X143498872Y-39368596D01*
X143535914Y-39387293D01*
X143567664Y-39413046D01*
X143593064Y-39444443D01*
X143612114Y-39481838D01*
X143623755Y-39524524D01*
X143627989Y-39571443D01*
X143627989Y-39631768D01*
X143627989Y-39691740D01*
X143627989Y-39752065D01*
X143627989Y-39812038D01*
X143627989Y-39872363D01*
X143627989Y-39932335D01*
X143627989Y-39992660D01*
X143627989Y-40052632D01*
X143631869Y-40050868D01*
X143643511Y-40045929D01*
X143662208Y-40038874D01*
X143687961Y-40030760D01*
X143719711Y-40022999D01*
X143756753Y-40015943D01*
X143799439Y-40010651D01*
X143846358Y-40008888D01*
X143891514Y-40010651D01*
X143928908Y-40015943D01*
X143959247Y-40022999D01*
X143983236Y-40030760D01*
X144000522Y-40038874D01*
X144012517Y-40045929D01*
X144019219Y-40050868D01*
X144021336Y-40052632D01*
G37*
G36*
X141048548Y-43202126D02*
G01*
X141048548Y-43311487D01*
X141048548Y-43420848D01*
X141048548Y-43530209D01*
X141048548Y-43639570D01*
X141048548Y-43748932D01*
X141048548Y-43858293D01*
X141048548Y-43967654D01*
X141048548Y-44077015D01*
X141044315Y-44123934D01*
X141032673Y-44166620D01*
X141013623Y-44203662D01*
X140988223Y-44235412D01*
X140956473Y-44261165D01*
X140919432Y-44279862D01*
X140877098Y-44291504D01*
X140829826Y-44295737D01*
X140782907Y-44291504D01*
X140740573Y-44279862D01*
X140703179Y-44261165D01*
X140671429Y-44235412D01*
X140645676Y-44203662D01*
X140626979Y-44166620D01*
X140615337Y-44123934D01*
X140611457Y-44077015D01*
X140611457Y-43967654D01*
X140611457Y-43858293D01*
X140611457Y-43748932D01*
X140611457Y-43639570D01*
X140611457Y-43530209D01*
X140611457Y-43420848D01*
X140611457Y-43311487D01*
X140611457Y-43202126D01*
X140628037Y-43203890D01*
X140645323Y-43209182D01*
X140665079Y-43215884D01*
X140688010Y-43223998D01*
X140714821Y-43232112D01*
X140746571Y-43238815D01*
X140784671Y-43244107D01*
X140829826Y-43245870D01*
X140877098Y-43244107D01*
X140919432Y-43238815D01*
X140956473Y-43232112D01*
X140988223Y-43223998D01*
X141013623Y-43215884D01*
X141032673Y-43209182D01*
X141044315Y-43203890D01*
X141048548Y-43202126D01*
G37*
G36*
X142360106Y-37690679D02*
G01*
X140694642Y-37678332D01*
X140889023Y-37601427D01*
X141088342Y-37533693D01*
X141291189Y-37475838D01*
X141498270Y-37427860D01*
X141708525Y-37390113D01*
X141923014Y-37362949D01*
X142139973Y-37346015D01*
X142360106Y-37340724D01*
X142579887Y-37346015D01*
X142797198Y-37362949D01*
X143011334Y-37390113D01*
X143221589Y-37427860D01*
X143428670Y-37475838D01*
X143631870Y-37533693D01*
X143830837Y-37601427D01*
X144025570Y-37678332D01*
X144215012Y-37764057D01*
X144399514Y-37859307D01*
X144579078Y-37962671D01*
X144752998Y-38074149D01*
X144921273Y-38193740D01*
X145083198Y-38321446D01*
X145238420Y-38456207D01*
X145387292Y-38598377D01*
X145529109Y-38747249D01*
X145664223Y-38902824D01*
X145791575Y-39065101D01*
X145911167Y-39233024D01*
X146022998Y-39406943D01*
X146126009Y-39586507D01*
X146220906Y-39771363D01*
X146306984Y-39961157D01*
X146383536Y-40155538D01*
X146451270Y-40354504D01*
X146509125Y-40557704D01*
X146556750Y-40765138D01*
X146594850Y-40975746D01*
X146622014Y-41189882D01*
X146638595Y-41407193D01*
X146644592Y-41627326D01*
X146634714Y-41847460D01*
X146614606Y-42064771D01*
X146583914Y-42278907D01*
X146542639Y-42489868D01*
X146491839Y-42696949D01*
X146431161Y-42900149D01*
X146361311Y-43099115D01*
X146282289Y-43293849D01*
X146194448Y-43483643D01*
X146098139Y-43668146D01*
X145993364Y-43847710D01*
X145880475Y-44021629D01*
X145760178Y-44189904D01*
X145631767Y-44351829D01*
X145497006Y-44507404D01*
X145354484Y-44656629D01*
X145205611Y-44798446D01*
X145050742Y-44933560D01*
X144889523Y-45060912D01*
X144722306Y-45180504D01*
X144549445Y-45292335D01*
X144371645Y-45395699D01*
X144188553Y-45490596D01*
X144000523Y-45576674D01*
X143808259Y-45653579D01*
X143612114Y-45720960D01*
X143411384Y-45778815D01*
X143207478Y-45826793D01*
X143000045Y-45864540D01*
X142789437Y-45892057D01*
X142576006Y-45908637D01*
X142360106Y-45914282D01*
X142139973Y-45908637D01*
X141923014Y-45892057D01*
X141708525Y-45864540D01*
X141498270Y-45826793D01*
X141291189Y-45778815D01*
X141088342Y-45720960D01*
X140889023Y-45653579D01*
X140694642Y-45576674D01*
X140504848Y-45490596D01*
X140320345Y-45395699D01*
X140140781Y-45292335D01*
X139967214Y-45180504D01*
X139798939Y-45060912D01*
X139637014Y-44933560D01*
X139481439Y-44798446D01*
X139332567Y-44656629D01*
X139190751Y-44507404D01*
X139055989Y-44351829D01*
X138928284Y-44189904D01*
X138809045Y-44021629D01*
X138697214Y-43847710D01*
X138593851Y-43668146D01*
X138499306Y-43483643D01*
X138413228Y-43293849D01*
X138336323Y-43099115D01*
X138268589Y-42900149D01*
X138210734Y-42696949D01*
X138163109Y-42489868D01*
X138125362Y-42278907D01*
X138097845Y-42064771D01*
X138081264Y-41847460D01*
X138075620Y-41627326D01*
X138081264Y-41407193D01*
X138097845Y-41189882D01*
X138125362Y-40975746D01*
X138163109Y-40765138D01*
X138210734Y-40557704D01*
X138268589Y-40354504D01*
X138336323Y-40155538D01*
X138413228Y-39961157D01*
X138499306Y-39771363D01*
X138593851Y-39586507D01*
X138697214Y-39406943D01*
X138809045Y-39233024D01*
X138928284Y-39065101D01*
X139055989Y-38902824D01*
X139190751Y-38747249D01*
X139332567Y-38598377D01*
X139481439Y-38456207D01*
X139637014Y-38321446D01*
X139798939Y-38193740D01*
X139967214Y-38074149D01*
X140140781Y-37962671D01*
X140320345Y-37859307D01*
X140504848Y-37764057D01*
X140694642Y-37678332D01*
X142360106Y-37690679D01*
X142160434Y-37695618D01*
X141962878Y-37710788D01*
X141767792Y-37735482D01*
X141575881Y-37770054D01*
X141386792Y-37813799D01*
X141201584Y-37866715D01*
X141019550Y-37928099D01*
X140841398Y-37998302D01*
X140667478Y-38076618D01*
X140498498Y-38163049D01*
X140333398Y-38257593D01*
X140173942Y-38359546D01*
X140019073Y-38468907D01*
X139869848Y-38585677D01*
X139726620Y-38708796D01*
X139589389Y-38838971D01*
X139458156Y-38975496D01*
X139333978Y-39118018D01*
X139216151Y-39266538D01*
X139105378Y-39420701D01*
X139002014Y-39580157D01*
X138906764Y-39745257D01*
X138818923Y-39914943D01*
X138738842Y-40089568D01*
X138667581Y-40268779D01*
X138604787Y-40451871D01*
X138551164Y-40639196D01*
X138506714Y-40830401D01*
X138471789Y-41025135D01*
X138446037Y-41222690D01*
X138430514Y-41423774D01*
X138425576Y-41627326D01*
X138430514Y-41831232D01*
X138445684Y-42031963D01*
X138470731Y-42229871D01*
X138504951Y-42424604D01*
X138548342Y-42615457D01*
X138601259Y-42802782D01*
X138662995Y-42986226D01*
X138732845Y-43165438D01*
X138811162Y-43339710D01*
X138897945Y-43509749D01*
X138992137Y-43674496D01*
X139094089Y-43834304D01*
X139203451Y-43988468D01*
X139319867Y-44136987D01*
X139442987Y-44279510D01*
X139573162Y-44416035D01*
X139709334Y-44546210D01*
X139852209Y-44669329D01*
X140000728Y-44785746D01*
X140154539Y-44895107D01*
X140313995Y-44997412D01*
X140478742Y-45091604D01*
X140648428Y-45178387D01*
X140823406Y-45256704D01*
X141001912Y-45326907D01*
X141185356Y-45388290D01*
X141372328Y-45441207D01*
X141563181Y-45484951D01*
X141757914Y-45519171D01*
X141955823Y-45544218D01*
X142156553Y-45559035D01*
X142360106Y-45564326D01*
X142559778Y-45559035D01*
X142757334Y-45544218D01*
X142952067Y-45519171D01*
X143144331Y-45484951D01*
X143333067Y-45441207D01*
X143518628Y-45388290D01*
X143700662Y-45326907D01*
X143878462Y-45256704D01*
X144052381Y-45178387D01*
X144221714Y-45091604D01*
X144386462Y-44997412D01*
X144546270Y-44895107D01*
X144700787Y-44785746D01*
X144850012Y-44669329D01*
X144993239Y-44546210D01*
X145130823Y-44416035D01*
X145261703Y-44279510D01*
X145386234Y-44136987D01*
X145503709Y-43988468D01*
X145614481Y-43834304D01*
X145717845Y-43674496D01*
X145813448Y-43509749D01*
X145901289Y-43339710D01*
X145981017Y-43165438D01*
X146052278Y-42986226D01*
X146115073Y-42802782D01*
X146168695Y-42615457D01*
X146213498Y-42424604D01*
X146248423Y-42229871D01*
X146273823Y-42031963D01*
X146289345Y-41831232D01*
X146294284Y-41627326D01*
X146289345Y-41423774D01*
X146273823Y-41222690D01*
X146248423Y-41025135D01*
X146213498Y-40830401D01*
X146168695Y-40639196D01*
X146115073Y-40451871D01*
X146052278Y-40268779D01*
X145981017Y-40089568D01*
X145901289Y-39914943D01*
X145813448Y-39745257D01*
X145717845Y-39580157D01*
X145614481Y-39420701D01*
X145503709Y-39266538D01*
X145386234Y-39118018D01*
X145261703Y-38975496D01*
X145130823Y-38838971D01*
X144993239Y-38708796D01*
X144850012Y-38585677D01*
X144700787Y-38468907D01*
X144546270Y-38359546D01*
X144386462Y-38257593D01*
X144221714Y-38163049D01*
X144052381Y-38076618D01*
X143878462Y-37998302D01*
X143700662Y-37928099D01*
X143518628Y-37866715D01*
X143333067Y-37813799D01*
X143144331Y-37770054D01*
X142952067Y-37735482D01*
X142757334Y-37710788D01*
X142559778Y-37695618D01*
X142360106Y-37690679D01*
G37*
M02*
