G04 #@! TF.GenerationSoftware,KiCad,Pcbnew,(5.1.5-0-10_14)*
G04 #@! TF.CreationDate,2020-10-09T16:59:21-04:00*
G04 #@! TF.ProjectId,AYOM - VCA Panel,41594f4d-202d-4205-9643-412050616e65,rev?*
G04 #@! TF.SameCoordinates,Original*
G04 #@! TF.FileFunction,Profile,NP*
%FSLAX46Y46*%
G04 Gerber Fmt 4.6, Leading zero omitted, Abs format (unit mm)*
G04 Created by KiCad (PCBNEW (5.1.5-0-10_14)) date 2020-10-09 16:59:21*
%MOMM*%
%LPD*%
G04 APERTURE LIST*
%ADD10C,0.100000*%
G04 APERTURE END LIST*
D10*
X148985025Y-148251371D02*
X148972325Y-148315224D01*
X148972325Y-148315224D02*
X148937047Y-148366729D01*
X148937047Y-148366729D02*
X148885542Y-148402007D01*
X148885542Y-148402007D02*
X148822042Y-148414707D01*
X148822042Y-148414707D02*
X148758189Y-148402007D01*
X148758189Y-148402007D02*
X148706684Y-148366729D01*
X148706684Y-148366729D02*
X148671406Y-148315224D01*
X148671406Y-148315224D02*
X148658706Y-148251371D01*
X148658706Y-148251371D02*
X148671406Y-148187871D01*
X148671406Y-148187871D02*
X148706684Y-148136365D01*
X148706684Y-148136365D02*
X148758189Y-148101087D01*
X148758189Y-148101087D02*
X148822042Y-148088387D01*
X148822042Y-148088387D02*
X148885542Y-148101087D01*
X148885542Y-148101087D02*
X148937047Y-148136365D01*
X148937047Y-148136365D02*
X148972325Y-148187871D01*
X148972325Y-148187871D02*
X148985025Y-148251371D01*
X148985025Y-148251371D02*
X148985025Y-148251371D01*
X146392250Y-149402026D02*
X146379197Y-149465879D01*
X146379197Y-149465879D02*
X146344272Y-149517384D01*
X146344272Y-149517384D02*
X146292414Y-149552662D01*
X146292414Y-149552662D02*
X146228914Y-149565362D01*
X146228914Y-149565362D02*
X146165414Y-149552662D01*
X146165414Y-149552662D02*
X146113555Y-149517384D01*
X146113555Y-149517384D02*
X146078630Y-149465879D01*
X146078630Y-149465879D02*
X146065930Y-149402026D01*
X146065930Y-149402026D02*
X146078630Y-149338526D01*
X146078630Y-149338526D02*
X146113555Y-149287020D01*
X146113555Y-149287020D02*
X146165414Y-149251743D01*
X146165414Y-149251743D02*
X146228914Y-149239043D01*
X146228914Y-149239043D02*
X146292414Y-149251743D01*
X146292414Y-149251743D02*
X146344272Y-149287020D01*
X146344272Y-149287020D02*
X146379197Y-149338526D01*
X146379197Y-149338526D02*
X146392250Y-149402026D01*
X146392250Y-149402026D02*
X146392250Y-149402026D01*
X143799121Y-148251371D02*
X143786421Y-148315224D01*
X143786421Y-148315224D02*
X143751496Y-148366729D01*
X143751496Y-148366729D02*
X143699638Y-148402007D01*
X143699638Y-148402007D02*
X143636138Y-148414707D01*
X143636138Y-148414707D02*
X143572638Y-148402007D01*
X143572638Y-148402007D02*
X143520780Y-148366729D01*
X143520780Y-148366729D02*
X143485855Y-148315224D01*
X143485855Y-148315224D02*
X143472802Y-148251371D01*
X143472802Y-148251371D02*
X143485855Y-148187871D01*
X143485855Y-148187871D02*
X143520780Y-148136365D01*
X143520780Y-148136365D02*
X143572638Y-148101087D01*
X143572638Y-148101087D02*
X143636138Y-148088387D01*
X143636138Y-148088387D02*
X143699638Y-148101087D01*
X143699638Y-148101087D02*
X143751496Y-148136365D01*
X143751496Y-148136365D02*
X143786421Y-148187871D01*
X143786421Y-148187871D02*
X143799121Y-148251371D01*
X143799121Y-148251371D02*
X143799121Y-148251371D01*
X141206346Y-149402026D02*
X141193646Y-149465879D01*
X141193646Y-149465879D02*
X141158368Y-149517384D01*
X141158368Y-149517384D02*
X141106863Y-149552662D01*
X141106863Y-149552662D02*
X141043010Y-149565362D01*
X141043010Y-149565362D02*
X140979510Y-149552662D01*
X140979510Y-149552662D02*
X140928004Y-149517384D01*
X140928004Y-149517384D02*
X140892726Y-149465879D01*
X140892726Y-149465879D02*
X140880026Y-149402026D01*
X140880026Y-149402026D02*
X140892726Y-149338526D01*
X140892726Y-149338526D02*
X140928004Y-149287020D01*
X140928004Y-149287020D02*
X140979510Y-149251743D01*
X140979510Y-149251743D02*
X141043010Y-149239043D01*
X141043010Y-149239043D02*
X141106863Y-149251743D01*
X141106863Y-149251743D02*
X141158368Y-149287020D01*
X141158368Y-149287020D02*
X141193646Y-149338526D01*
X141193646Y-149338526D02*
X141206346Y-149402026D01*
X141206346Y-149402026D02*
X141206346Y-149402026D01*
X138613570Y-148251371D02*
X138600518Y-148315224D01*
X138600518Y-148315224D02*
X138565593Y-148366729D01*
X138565593Y-148366729D02*
X138513734Y-148402007D01*
X138513734Y-148402007D02*
X138450234Y-148414707D01*
X138450234Y-148414707D02*
X138386734Y-148402007D01*
X138386734Y-148402007D02*
X138334876Y-148366729D01*
X138334876Y-148366729D02*
X138299951Y-148315224D01*
X138299951Y-148315224D02*
X138287251Y-148251371D01*
X138287251Y-148251371D02*
X138299951Y-148187871D01*
X138299951Y-148187871D02*
X138334876Y-148136365D01*
X138334876Y-148136365D02*
X138386734Y-148101087D01*
X138386734Y-148101087D02*
X138450234Y-148088387D01*
X138450234Y-148088387D02*
X138513734Y-148101087D01*
X138513734Y-148101087D02*
X138565593Y-148136365D01*
X138565593Y-148136365D02*
X138600518Y-148187871D01*
X138600518Y-148187871D02*
X138613570Y-148251371D01*
X138613570Y-148251371D02*
X138613570Y-148251371D01*
X136020442Y-149402026D02*
X136007742Y-149465879D01*
X136007742Y-149465879D02*
X135972817Y-149517384D01*
X135972817Y-149517384D02*
X135920959Y-149552662D01*
X135920959Y-149552662D02*
X135857459Y-149565362D01*
X135857459Y-149565362D02*
X135793959Y-149552662D01*
X135793959Y-149552662D02*
X135742100Y-149517384D01*
X135742100Y-149517384D02*
X135707175Y-149465879D01*
X135707175Y-149465879D02*
X135694123Y-149402026D01*
X135694123Y-149402026D02*
X135707175Y-149338526D01*
X135707175Y-149338526D02*
X135742100Y-149287020D01*
X135742100Y-149287020D02*
X135793959Y-149251743D01*
X135793959Y-149251743D02*
X135857459Y-149239043D01*
X135857459Y-149239043D02*
X135920959Y-149251743D01*
X135920959Y-149251743D02*
X135972817Y-149287020D01*
X135972817Y-149287020D02*
X136007742Y-149338526D01*
X136007742Y-149338526D02*
X136020442Y-149402026D01*
X136020442Y-149402026D02*
X136020442Y-149402026D01*
X148985025Y-145915947D02*
X148972325Y-145979447D01*
X148972325Y-145979447D02*
X148937047Y-146030952D01*
X148937047Y-146030952D02*
X148885542Y-146066230D01*
X148885542Y-146066230D02*
X148822042Y-146078930D01*
X148822042Y-146078930D02*
X148758189Y-146066230D01*
X148758189Y-146066230D02*
X148706684Y-146030952D01*
X148706684Y-146030952D02*
X148671406Y-145979447D01*
X148671406Y-145979447D02*
X148658706Y-145915947D01*
X148658706Y-145915947D02*
X148671406Y-145852094D01*
X148671406Y-145852094D02*
X148706684Y-145800588D01*
X148706684Y-145800588D02*
X148758189Y-145765311D01*
X148758189Y-145765311D02*
X148822042Y-145752611D01*
X148822042Y-145752611D02*
X148885542Y-145765311D01*
X148885542Y-145765311D02*
X148937047Y-145800588D01*
X148937047Y-145800588D02*
X148972325Y-145852094D01*
X148972325Y-145852094D02*
X148985025Y-145915947D01*
X148985025Y-145915947D02*
X148985025Y-145915947D01*
X146392250Y-147066602D02*
X146379197Y-147130102D01*
X146379197Y-147130102D02*
X146344272Y-147181607D01*
X146344272Y-147181607D02*
X146292414Y-147216885D01*
X146292414Y-147216885D02*
X146228914Y-147229585D01*
X146228914Y-147229585D02*
X146165414Y-147216885D01*
X146165414Y-147216885D02*
X146113555Y-147181607D01*
X146113555Y-147181607D02*
X146078630Y-147130102D01*
X146078630Y-147130102D02*
X146065930Y-147066602D01*
X146065930Y-147066602D02*
X146078630Y-147002749D01*
X146078630Y-147002749D02*
X146113555Y-146951244D01*
X146113555Y-146951244D02*
X146165414Y-146915966D01*
X146165414Y-146915966D02*
X146228914Y-146903266D01*
X146228914Y-146903266D02*
X146292414Y-146915966D01*
X146292414Y-146915966D02*
X146344272Y-146951244D01*
X146344272Y-146951244D02*
X146379197Y-147002749D01*
X146379197Y-147002749D02*
X146392250Y-147066602D01*
X146392250Y-147066602D02*
X146392250Y-147066602D01*
X143799121Y-145915947D02*
X143786421Y-145979447D01*
X143786421Y-145979447D02*
X143751496Y-146030952D01*
X143751496Y-146030952D02*
X143699638Y-146066230D01*
X143699638Y-146066230D02*
X143636138Y-146078930D01*
X143636138Y-146078930D02*
X143572638Y-146066230D01*
X143572638Y-146066230D02*
X143520780Y-146030952D01*
X143520780Y-146030952D02*
X143485855Y-145979447D01*
X143485855Y-145979447D02*
X143472802Y-145915947D01*
X143472802Y-145915947D02*
X143485855Y-145852094D01*
X143485855Y-145852094D02*
X143520780Y-145800588D01*
X143520780Y-145800588D02*
X143572638Y-145765311D01*
X143572638Y-145765311D02*
X143636138Y-145752611D01*
X143636138Y-145752611D02*
X143699638Y-145765311D01*
X143699638Y-145765311D02*
X143751496Y-145800588D01*
X143751496Y-145800588D02*
X143786421Y-145852094D01*
X143786421Y-145852094D02*
X143799121Y-145915947D01*
X143799121Y-145915947D02*
X143799121Y-145915947D01*
X141206346Y-147066602D02*
X141193646Y-147130102D01*
X141193646Y-147130102D02*
X141158368Y-147181607D01*
X141158368Y-147181607D02*
X141106863Y-147216885D01*
X141106863Y-147216885D02*
X141043010Y-147229585D01*
X141043010Y-147229585D02*
X140979510Y-147216885D01*
X140979510Y-147216885D02*
X140928004Y-147181607D01*
X140928004Y-147181607D02*
X140892726Y-147130102D01*
X140892726Y-147130102D02*
X140880026Y-147066602D01*
X140880026Y-147066602D02*
X140892726Y-147002749D01*
X140892726Y-147002749D02*
X140928004Y-146951244D01*
X140928004Y-146951244D02*
X140979510Y-146915966D01*
X140979510Y-146915966D02*
X141043010Y-146903266D01*
X141043010Y-146903266D02*
X141106863Y-146915966D01*
X141106863Y-146915966D02*
X141158368Y-146951244D01*
X141158368Y-146951244D02*
X141193646Y-147002749D01*
X141193646Y-147002749D02*
X141206346Y-147066602D01*
X141206346Y-147066602D02*
X141206346Y-147066602D01*
X138613570Y-145915947D02*
X138600518Y-145979447D01*
X138600518Y-145979447D02*
X138565593Y-146030952D01*
X138565593Y-146030952D02*
X138513734Y-146066230D01*
X138513734Y-146066230D02*
X138450234Y-146078930D01*
X138450234Y-146078930D02*
X138386734Y-146066230D01*
X138386734Y-146066230D02*
X138334876Y-146030952D01*
X138334876Y-146030952D02*
X138299951Y-145979447D01*
X138299951Y-145979447D02*
X138287251Y-145915947D01*
X138287251Y-145915947D02*
X138299951Y-145852094D01*
X138299951Y-145852094D02*
X138334876Y-145800588D01*
X138334876Y-145800588D02*
X138386734Y-145765311D01*
X138386734Y-145765311D02*
X138450234Y-145752611D01*
X138450234Y-145752611D02*
X138513734Y-145765311D01*
X138513734Y-145765311D02*
X138565593Y-145800588D01*
X138565593Y-145800588D02*
X138600518Y-145852094D01*
X138600518Y-145852094D02*
X138613570Y-145915947D01*
X138613570Y-145915947D02*
X138613570Y-145915947D01*
X136020442Y-147066602D02*
X136007742Y-147130102D01*
X136007742Y-147130102D02*
X135972817Y-147181607D01*
X135972817Y-147181607D02*
X135920959Y-147216885D01*
X135920959Y-147216885D02*
X135857459Y-147229585D01*
X135857459Y-147229585D02*
X135793959Y-147216885D01*
X135793959Y-147216885D02*
X135742100Y-147181607D01*
X135742100Y-147181607D02*
X135707175Y-147130102D01*
X135707175Y-147130102D02*
X135694123Y-147066602D01*
X135694123Y-147066602D02*
X135707175Y-147002749D01*
X135707175Y-147002749D02*
X135742100Y-146951244D01*
X135742100Y-146951244D02*
X135793959Y-146915966D01*
X135793959Y-146915966D02*
X135857459Y-146903266D01*
X135857459Y-146903266D02*
X135920959Y-146915966D01*
X135920959Y-146915966D02*
X135972817Y-146951244D01*
X135972817Y-146951244D02*
X136007742Y-147002749D01*
X136007742Y-147002749D02*
X136020442Y-147066602D01*
X136020442Y-147066602D02*
X136020442Y-147066602D01*
X132200000Y-28999996D02*
X152520000Y-28999996D01*
X152520000Y-28999996D02*
X152520000Y-157500710D01*
X152520000Y-157500710D02*
X132200000Y-157500710D01*
X132200000Y-157500710D02*
X132200000Y-28999996D01*
X132200000Y-28999996D02*
X132200000Y-28999996D01*
X138550176Y-30400171D02*
X138693757Y-30400171D01*
X138693757Y-30400171D02*
X138837337Y-30400171D01*
X138837337Y-30400171D02*
X138981271Y-30400171D01*
X138981271Y-30400171D02*
X139125204Y-30400171D01*
X139125204Y-30400171D02*
X139268785Y-30400171D01*
X139268785Y-30400171D02*
X139412365Y-30400171D01*
X139412365Y-30400171D02*
X139556298Y-30400171D01*
X139556298Y-30400171D02*
X139700232Y-30400171D01*
X139700232Y-30400171D02*
X139843812Y-30400171D01*
X139843812Y-30400171D02*
X139987393Y-30400171D01*
X139987393Y-30400171D02*
X140131326Y-30400171D01*
X140131326Y-30400171D02*
X140275260Y-30400171D01*
X140275260Y-30400171D02*
X140418840Y-30400171D01*
X140418840Y-30400171D02*
X140562421Y-30400171D01*
X140562421Y-30400171D02*
X140706354Y-30400171D01*
X140706354Y-30400171D02*
X140850287Y-30400171D01*
X140850287Y-30400171D02*
X141013976Y-30408285D01*
X141013976Y-30408285D02*
X141173432Y-30432627D01*
X141173432Y-30432627D02*
X141326537Y-30471785D01*
X141326537Y-30471785D02*
X141473646Y-30525407D01*
X141473646Y-30525407D02*
X141613698Y-30592788D01*
X141613698Y-30592788D02*
X141745637Y-30672516D01*
X141745637Y-30672516D02*
X141868757Y-30764591D01*
X141868757Y-30764591D02*
X141982351Y-30867954D01*
X141982351Y-30867954D02*
X142085362Y-30981196D01*
X142085362Y-30981196D02*
X142177085Y-31104316D01*
X142177085Y-31104316D02*
X142257518Y-31236254D01*
X142257518Y-31236254D02*
X142324546Y-31376307D01*
X142324546Y-31376307D02*
X142378521Y-31523416D01*
X142378521Y-31523416D02*
X142417679Y-31676874D01*
X142417679Y-31676874D02*
X142441668Y-31835977D01*
X142441668Y-31835977D02*
X142450134Y-32000018D01*
X142450134Y-32000018D02*
X142441668Y-32164060D01*
X142441668Y-32164060D02*
X142417679Y-32323163D01*
X142417679Y-32323163D02*
X142378521Y-32476621D01*
X142378521Y-32476621D02*
X142324546Y-32623729D01*
X142324546Y-32623729D02*
X142257518Y-32763782D01*
X142257518Y-32763782D02*
X142177085Y-32895721D01*
X142177085Y-32895721D02*
X142085362Y-33018841D01*
X142085362Y-33018841D02*
X141982351Y-33132435D01*
X141982351Y-33132435D02*
X141868757Y-33235446D01*
X141868757Y-33235446D02*
X141745637Y-33327168D01*
X141745637Y-33327168D02*
X141613698Y-33407249D01*
X141613698Y-33407249D02*
X141473646Y-33474629D01*
X141473646Y-33474629D02*
X141326537Y-33528252D01*
X141326537Y-33528252D02*
X141173432Y-33567410D01*
X141173432Y-33567410D02*
X141013976Y-33591752D01*
X141013976Y-33591752D02*
X140850287Y-33599866D01*
X140850287Y-33599866D02*
X140706354Y-33599866D01*
X140706354Y-33599866D02*
X140562421Y-33599866D01*
X140562421Y-33599866D02*
X140418840Y-33599866D01*
X140418840Y-33599866D02*
X140275260Y-33599866D01*
X140275260Y-33599866D02*
X140131326Y-33599866D01*
X140131326Y-33599866D02*
X139987393Y-33599866D01*
X139987393Y-33599866D02*
X139843812Y-33599866D01*
X139843812Y-33599866D02*
X139700232Y-33599866D01*
X139700232Y-33599866D02*
X139556298Y-33599866D01*
X139556298Y-33599866D02*
X139412365Y-33599866D01*
X139412365Y-33599866D02*
X139268785Y-33599866D01*
X139268785Y-33599866D02*
X139125204Y-33599866D01*
X139125204Y-33599866D02*
X138981271Y-33599866D01*
X138981271Y-33599866D02*
X138837337Y-33599866D01*
X138837337Y-33599866D02*
X138693757Y-33599866D01*
X138693757Y-33599866D02*
X138550176Y-33599866D01*
X138550176Y-33599866D02*
X138385782Y-33591752D01*
X138385782Y-33591752D02*
X138226679Y-33567410D01*
X138226679Y-33567410D02*
X138073221Y-33528252D01*
X138073221Y-33528252D02*
X137926112Y-33474629D01*
X137926112Y-33474629D02*
X137786412Y-33407249D01*
X137786412Y-33407249D02*
X137654473Y-33327168D01*
X137654473Y-33327168D02*
X137531001Y-33235446D01*
X137531001Y-33235446D02*
X137417760Y-33132435D01*
X137417760Y-33132435D02*
X137314748Y-33018841D01*
X137314748Y-33018841D02*
X137222674Y-32895721D01*
X137222674Y-32895721D02*
X137142946Y-32763782D01*
X137142946Y-32763782D02*
X137075565Y-32623729D01*
X137075565Y-32623729D02*
X137021943Y-32476621D01*
X137021943Y-32476621D02*
X136982785Y-32323163D01*
X136982785Y-32323163D02*
X136958443Y-32164060D01*
X136958443Y-32164060D02*
X136950329Y-32000018D01*
X136950329Y-32000018D02*
X136958443Y-31835977D01*
X136958443Y-31835977D02*
X136982785Y-31676874D01*
X136982785Y-31676874D02*
X137021943Y-31523416D01*
X137021943Y-31523416D02*
X137075565Y-31376307D01*
X137075565Y-31376307D02*
X137142946Y-31236254D01*
X137142946Y-31236254D02*
X137222674Y-31104316D01*
X137222674Y-31104316D02*
X137314748Y-30981196D01*
X137314748Y-30981196D02*
X137417760Y-30867954D01*
X137417760Y-30867954D02*
X137531001Y-30764591D01*
X137531001Y-30764591D02*
X137654473Y-30672516D01*
X137654473Y-30672516D02*
X137786412Y-30592788D01*
X137786412Y-30592788D02*
X137926112Y-30525407D01*
X137926112Y-30525407D02*
X138073221Y-30471785D01*
X138073221Y-30471785D02*
X138226679Y-30432627D01*
X138226679Y-30432627D02*
X138385782Y-30408285D01*
X138385782Y-30408285D02*
X138550176Y-30400171D01*
X138550176Y-30400171D02*
X138550176Y-30400171D01*
X138550176Y-152899500D02*
X138693757Y-152899500D01*
X138693757Y-152899500D02*
X138837337Y-152899500D01*
X138837337Y-152899500D02*
X138981271Y-152899500D01*
X138981271Y-152899500D02*
X139125204Y-152899500D01*
X139125204Y-152899500D02*
X139268785Y-152899500D01*
X139268785Y-152899500D02*
X139412365Y-152899500D01*
X139412365Y-152899500D02*
X139556298Y-152899500D01*
X139556298Y-152899500D02*
X139700232Y-152899500D01*
X139700232Y-152899500D02*
X139843812Y-152899500D01*
X139843812Y-152899500D02*
X139987393Y-152899500D01*
X139987393Y-152899500D02*
X140131326Y-152899500D01*
X140131326Y-152899500D02*
X140275260Y-152899500D01*
X140275260Y-152899500D02*
X140418840Y-152899500D01*
X140418840Y-152899500D02*
X140562421Y-152899500D01*
X140562421Y-152899500D02*
X140706354Y-152899500D01*
X140706354Y-152899500D02*
X140850287Y-152899500D01*
X140850287Y-152899500D02*
X141013976Y-152907614D01*
X141013976Y-152907614D02*
X141173432Y-152931956D01*
X141173432Y-152931956D02*
X141326537Y-152971114D01*
X141326537Y-152971114D02*
X141473646Y-153024736D01*
X141473646Y-153024736D02*
X141613698Y-153092117D01*
X141613698Y-153092117D02*
X141745637Y-153171845D01*
X141745637Y-153171845D02*
X141868757Y-153263920D01*
X141868757Y-153263920D02*
X141982351Y-153366931D01*
X141982351Y-153366931D02*
X142085362Y-153480525D01*
X142085362Y-153480525D02*
X142177085Y-153603645D01*
X142177085Y-153603645D02*
X142257518Y-153735583D01*
X142257518Y-153735583D02*
X142324546Y-153875636D01*
X142324546Y-153875636D02*
X142378521Y-154022745D01*
X142378521Y-154022745D02*
X142417679Y-154176203D01*
X142417679Y-154176203D02*
X142441668Y-154335306D01*
X142441668Y-154335306D02*
X142450134Y-154499347D01*
X142450134Y-154499347D02*
X142441668Y-154663389D01*
X142441668Y-154663389D02*
X142417679Y-154822845D01*
X142417679Y-154822845D02*
X142378521Y-154976656D01*
X142378521Y-154976656D02*
X142324546Y-155124117D01*
X142324546Y-155124117D02*
X142257518Y-155263817D01*
X142257518Y-155263817D02*
X142177085Y-155396108D01*
X142177085Y-155396108D02*
X142085362Y-155519228D01*
X142085362Y-155519228D02*
X141982351Y-155632822D01*
X141982351Y-155632822D02*
X141868757Y-155735833D01*
X141868757Y-155735833D02*
X141745637Y-155827908D01*
X141745637Y-155827908D02*
X141613698Y-155907989D01*
X141613698Y-155907989D02*
X141473646Y-155975369D01*
X141473646Y-155975369D02*
X141326537Y-156028639D01*
X141326537Y-156028639D02*
X141173432Y-156068150D01*
X141173432Y-156068150D02*
X141013976Y-156092492D01*
X141013976Y-156092492D02*
X140850287Y-156100606D01*
X140850287Y-156100606D02*
X140706354Y-156100606D01*
X140706354Y-156100606D02*
X140562421Y-156100606D01*
X140562421Y-156100606D02*
X140418840Y-156100606D01*
X140418840Y-156100606D02*
X140275260Y-156100606D01*
X140275260Y-156100606D02*
X140131326Y-156100606D01*
X140131326Y-156100606D02*
X139987393Y-156100606D01*
X139987393Y-156100606D02*
X139843812Y-156100606D01*
X139843812Y-156100606D02*
X139700232Y-156100606D01*
X139700232Y-156100606D02*
X139556298Y-156100606D01*
X139556298Y-156100606D02*
X139412365Y-156100606D01*
X139412365Y-156100606D02*
X139268785Y-156100606D01*
X139268785Y-156100606D02*
X139125204Y-156100606D01*
X139125204Y-156100606D02*
X138981271Y-156100606D01*
X138981271Y-156100606D02*
X138837337Y-156100606D01*
X138837337Y-156100606D02*
X138693757Y-156100606D01*
X138693757Y-156100606D02*
X138550176Y-156100606D01*
X138550176Y-156100606D02*
X138385782Y-156092492D01*
X138385782Y-156092492D02*
X138226679Y-156068150D01*
X138226679Y-156068150D02*
X138073221Y-156028639D01*
X138073221Y-156028639D02*
X137926112Y-155975369D01*
X137926112Y-155975369D02*
X137786412Y-155907989D01*
X137786412Y-155907989D02*
X137654473Y-155827908D01*
X137654473Y-155827908D02*
X137531001Y-155735833D01*
X137531001Y-155735833D02*
X137417760Y-155632822D01*
X137417760Y-155632822D02*
X137314748Y-155519228D01*
X137314748Y-155519228D02*
X137222674Y-155396108D01*
X137222674Y-155396108D02*
X137142946Y-155263817D01*
X137142946Y-155263817D02*
X137075565Y-155124117D01*
X137075565Y-155124117D02*
X137021943Y-154976656D01*
X137021943Y-154976656D02*
X136982785Y-154822845D01*
X136982785Y-154822845D02*
X136958443Y-154663389D01*
X136958443Y-154663389D02*
X136950329Y-154499347D01*
X136950329Y-154499347D02*
X136958443Y-154335306D01*
X136958443Y-154335306D02*
X136982785Y-154176203D01*
X136982785Y-154176203D02*
X137021943Y-154022745D01*
X137021943Y-154022745D02*
X137075565Y-153875636D01*
X137075565Y-153875636D02*
X137142946Y-153735583D01*
X137142946Y-153735583D02*
X137222674Y-153603645D01*
X137222674Y-153603645D02*
X137314748Y-153480525D01*
X137314748Y-153480525D02*
X137417760Y-153366931D01*
X137417760Y-153366931D02*
X137531001Y-153263920D01*
X137531001Y-153263920D02*
X137654473Y-153171845D01*
X137654473Y-153171845D02*
X137786412Y-153092117D01*
X137786412Y-153092117D02*
X137926112Y-153024736D01*
X137926112Y-153024736D02*
X138073221Y-152971114D01*
X138073221Y-152971114D02*
X138226679Y-152931956D01*
X138226679Y-152931956D02*
X138385782Y-152907614D01*
X138385782Y-152907614D02*
X138550176Y-152899500D01*
X138550176Y-152899500D02*
X138550176Y-152899500D01*
X146111121Y-58155915D02*
X146106182Y-58348884D01*
X146106182Y-58348884D02*
X146091718Y-58539384D01*
X146091718Y-58539384D02*
X146067729Y-58727062D01*
X146067729Y-58727062D02*
X146034921Y-58911565D01*
X146034921Y-58911565D02*
X145992941Y-59092892D01*
X145992941Y-59092892D02*
X145942141Y-59271045D01*
X145942141Y-59271045D02*
X145883227Y-59445317D01*
X145883227Y-59445317D02*
X145816199Y-59615709D01*
X145816199Y-59615709D02*
X145741057Y-59781515D01*
X145741057Y-59781515D02*
X145658507Y-59943440D01*
X145658507Y-59943440D02*
X145568196Y-60100426D01*
X145568196Y-60100426D02*
X145470829Y-60252473D01*
X145470829Y-60252473D02*
X145366054Y-60399581D01*
X145366054Y-60399581D02*
X145254577Y-60541398D01*
X145254577Y-60541398D02*
X145136749Y-60677217D01*
X145136749Y-60677217D02*
X145012924Y-60807745D01*
X145012924Y-60807745D02*
X144882749Y-60931570D01*
X144882749Y-60931570D02*
X144746577Y-61049751D01*
X144746577Y-61049751D02*
X144604407Y-61160876D01*
X144604407Y-61160876D02*
X144457652Y-61265298D01*
X144457652Y-61265298D02*
X144305604Y-61363017D01*
X144305604Y-61363017D02*
X144148618Y-61453329D01*
X144148618Y-61453329D02*
X143987046Y-61536231D01*
X143987046Y-61536231D02*
X143820888Y-61611020D01*
X143820888Y-61611020D02*
X143650143Y-61678401D01*
X143650143Y-61678401D02*
X143476224Y-61737315D01*
X143476224Y-61737315D02*
X143298071Y-61787762D01*
X143298071Y-61787762D02*
X143116743Y-61829742D01*
X143116743Y-61829742D02*
X142931888Y-61862551D01*
X142931888Y-61862551D02*
X142744563Y-61886540D01*
X142744563Y-61886540D02*
X142554063Y-61901003D01*
X142554063Y-61901003D02*
X142361093Y-61905942D01*
X142361093Y-61905942D02*
X142168124Y-61901003D01*
X142168124Y-61901003D02*
X141977624Y-61886540D01*
X141977624Y-61886540D02*
X141789946Y-61862551D01*
X141789946Y-61862551D02*
X141605443Y-61829742D01*
X141605443Y-61829742D02*
X141423763Y-61787762D01*
X141423763Y-61787762D02*
X141245963Y-61737315D01*
X141245963Y-61737315D02*
X141071691Y-61678401D01*
X141071691Y-61678401D02*
X140901299Y-61611020D01*
X140901299Y-61611020D02*
X140735493Y-61536231D01*
X140735493Y-61536231D02*
X140573568Y-61453329D01*
X140573568Y-61453329D02*
X140416230Y-61363017D01*
X140416230Y-61363017D02*
X140264535Y-61265298D01*
X140264535Y-61265298D02*
X140117427Y-61160876D01*
X140117427Y-61160876D02*
X139975610Y-61049751D01*
X139975610Y-61049751D02*
X139839791Y-60931570D01*
X139839791Y-60931570D02*
X139709616Y-60807745D01*
X139709616Y-60807745D02*
X139585085Y-60677217D01*
X139585085Y-60677217D02*
X139467257Y-60541398D01*
X139467257Y-60541398D02*
X139356132Y-60399581D01*
X139356132Y-60399581D02*
X139251710Y-60252473D01*
X139251710Y-60252473D02*
X139153991Y-60100426D01*
X139153991Y-60100426D02*
X139063327Y-59943440D01*
X139063327Y-59943440D02*
X138980777Y-59781515D01*
X138980777Y-59781515D02*
X138905635Y-59615709D01*
X138905635Y-59615709D02*
X138838607Y-59445317D01*
X138838607Y-59445317D02*
X138779693Y-59271045D01*
X138779693Y-59271045D02*
X138728893Y-59092892D01*
X138728893Y-59092892D02*
X138687266Y-58911565D01*
X138687266Y-58911565D02*
X138654105Y-58727062D01*
X138654105Y-58727062D02*
X138630468Y-58539384D01*
X138630468Y-58539384D02*
X138616005Y-58348884D01*
X138616005Y-58348884D02*
X138611066Y-58155915D01*
X138611066Y-58155915D02*
X138616005Y-57962945D01*
X138616005Y-57962945D02*
X138630468Y-57772445D01*
X138630468Y-57772445D02*
X138654105Y-57584767D01*
X138654105Y-57584767D02*
X138687266Y-57399912D01*
X138687266Y-57399912D02*
X138728893Y-57218584D01*
X138728893Y-57218584D02*
X138779693Y-57040784D01*
X138779693Y-57040784D02*
X138838607Y-56866512D01*
X138838607Y-56866512D02*
X138905635Y-56696120D01*
X138905635Y-56696120D02*
X138980777Y-56530315D01*
X138980777Y-56530315D02*
X139063327Y-56368390D01*
X139063327Y-56368390D02*
X139153991Y-56211404D01*
X139153991Y-56211404D02*
X139251710Y-56059356D01*
X139251710Y-56059356D02*
X139356132Y-55912248D01*
X139356132Y-55912248D02*
X139467257Y-55770431D01*
X139467257Y-55770431D02*
X139585085Y-55634612D01*
X139585085Y-55634612D02*
X139709616Y-55504084D01*
X139709616Y-55504084D02*
X139839791Y-55379906D01*
X139839791Y-55379906D02*
X139975610Y-55262079D01*
X139975610Y-55262079D02*
X140117427Y-55150954D01*
X140117427Y-55150954D02*
X140264535Y-55046531D01*
X140264535Y-55046531D02*
X140416230Y-54948812D01*
X140416230Y-54948812D02*
X140573568Y-54858501D01*
X140573568Y-54858501D02*
X140735493Y-54775598D01*
X140735493Y-54775598D02*
X140901299Y-54700456D01*
X140901299Y-54700456D02*
X141071691Y-54633429D01*
X141071691Y-54633429D02*
X141245963Y-54574515D01*
X141245963Y-54574515D02*
X141423763Y-54524068D01*
X141423763Y-54524068D02*
X141605443Y-54482087D01*
X141605443Y-54482087D02*
X141789946Y-54449279D01*
X141789946Y-54449279D02*
X141977624Y-54425290D01*
X141977624Y-54425290D02*
X142168124Y-54410826D01*
X142168124Y-54410826D02*
X142361093Y-54405887D01*
X142361093Y-54405887D02*
X142554063Y-54410826D01*
X142554063Y-54410826D02*
X142744563Y-54425290D01*
X142744563Y-54425290D02*
X142931888Y-54449279D01*
X142931888Y-54449279D02*
X143116743Y-54482087D01*
X143116743Y-54482087D02*
X143298071Y-54524068D01*
X143298071Y-54524068D02*
X143476224Y-54574515D01*
X143476224Y-54574515D02*
X143650143Y-54633429D01*
X143650143Y-54633429D02*
X143820888Y-54700456D01*
X143820888Y-54700456D02*
X143987046Y-54775598D01*
X143987046Y-54775598D02*
X144148618Y-54858501D01*
X144148618Y-54858501D02*
X144305604Y-54948812D01*
X144305604Y-54948812D02*
X144457652Y-55046531D01*
X144457652Y-55046531D02*
X144604407Y-55150954D01*
X144604407Y-55150954D02*
X144746577Y-55262079D01*
X144746577Y-55262079D02*
X144882749Y-55379906D01*
X144882749Y-55379906D02*
X145012924Y-55504084D01*
X145012924Y-55504084D02*
X145136749Y-55634612D01*
X145136749Y-55634612D02*
X145254577Y-55770431D01*
X145254577Y-55770431D02*
X145366054Y-55912248D01*
X145366054Y-55912248D02*
X145470829Y-56059356D01*
X145470829Y-56059356D02*
X145568196Y-56211404D01*
X145568196Y-56211404D02*
X145658507Y-56368390D01*
X145658507Y-56368390D02*
X145741057Y-56530315D01*
X145741057Y-56530315D02*
X145816199Y-56696120D01*
X145816199Y-56696120D02*
X145883227Y-56866512D01*
X145883227Y-56866512D02*
X145942141Y-57040784D01*
X145942141Y-57040784D02*
X145992941Y-57218584D01*
X145992941Y-57218584D02*
X146034921Y-57399912D01*
X146034921Y-57399912D02*
X146067729Y-57584767D01*
X146067729Y-57584767D02*
X146091718Y-57772445D01*
X146091718Y-57772445D02*
X146106182Y-57962945D01*
X146106182Y-57962945D02*
X146111121Y-58155915D01*
X146111121Y-58155915D02*
X146111121Y-58155915D01*
X145535106Y-136198013D02*
X145534047Y-136279857D01*
X145534047Y-136279857D02*
X145530872Y-136361349D01*
X145530872Y-136361349D02*
X145525933Y-136442135D01*
X145525933Y-136442135D02*
X145518525Y-136522568D01*
X145518525Y-136522568D02*
X145509706Y-136602296D01*
X145509706Y-136602296D02*
X145498417Y-136681318D01*
X145498417Y-136681318D02*
X145485364Y-136759988D01*
X145485364Y-136759988D02*
X145470194Y-136837599D01*
X145470194Y-136837599D02*
X145453967Y-136914857D01*
X145453967Y-136914857D02*
X145435269Y-136991410D01*
X145435269Y-136991410D02*
X145414456Y-137067257D01*
X145414456Y-137067257D02*
X145392231Y-137142046D01*
X145392231Y-137142046D02*
X145367889Y-137216482D01*
X145367889Y-137216482D02*
X145342136Y-137289860D01*
X145342136Y-137289860D02*
X145314619Y-137362179D01*
X145314619Y-137362179D02*
X145285339Y-137433793D01*
X145285339Y-137433793D02*
X145254647Y-137504349D01*
X145254647Y-137504349D02*
X145221839Y-137574199D01*
X145221839Y-137574199D02*
X145187619Y-137643343D01*
X145187619Y-137643343D02*
X145151636Y-137711429D01*
X145151636Y-137711429D02*
X145114594Y-137778104D01*
X145114594Y-137778104D02*
X145075083Y-137844427D01*
X145075083Y-137844427D02*
X145034867Y-137909338D01*
X145034867Y-137909338D02*
X144992886Y-137972838D01*
X144992886Y-137972838D02*
X144949142Y-138035985D01*
X144949142Y-138035985D02*
X144904339Y-138097721D01*
X144904339Y-138097721D02*
X144857772Y-138158399D01*
X144857772Y-138158399D02*
X144809794Y-138217665D01*
X144809794Y-138217665D02*
X144760758Y-138275874D01*
X144760758Y-138275874D02*
X144709958Y-138332671D01*
X144709958Y-138332671D02*
X144658453Y-138388410D01*
X144658453Y-138388410D02*
X144604831Y-138442738D01*
X144604831Y-138442738D02*
X144550503Y-138496360D01*
X144550503Y-138496360D02*
X144494764Y-138548218D01*
X144494764Y-138548218D02*
X144437967Y-138598665D01*
X144437967Y-138598665D02*
X144379758Y-138647702D01*
X144379758Y-138647702D02*
X144320139Y-138695679D01*
X144320139Y-138695679D02*
X144259814Y-138742246D01*
X144259814Y-138742246D02*
X144198078Y-138787049D01*
X144198078Y-138787049D02*
X144134931Y-138830793D01*
X144134931Y-138830793D02*
X144071431Y-138872774D01*
X144071431Y-138872774D02*
X144006167Y-138913343D01*
X144006167Y-138913343D02*
X143940197Y-138952502D01*
X143940197Y-138952502D02*
X143873169Y-138989543D01*
X143873169Y-138989543D02*
X143805436Y-139025879D01*
X143805436Y-139025879D02*
X143736292Y-139059746D01*
X143736292Y-139059746D02*
X143666442Y-139092554D01*
X143666442Y-139092554D02*
X143595886Y-139123599D01*
X143595886Y-139123599D02*
X143524272Y-139152879D01*
X143524272Y-139152879D02*
X143451600Y-139180396D01*
X143451600Y-139180396D02*
X143378222Y-139206149D01*
X143378222Y-139206149D02*
X143304139Y-139230490D01*
X143304139Y-139230490D02*
X143229350Y-139252363D01*
X143229350Y-139252363D02*
X143153503Y-139273177D01*
X143153503Y-139273177D02*
X143076950Y-139291874D01*
X143076950Y-139291874D02*
X142999692Y-139308454D01*
X142999692Y-139308454D02*
X142922081Y-139323271D01*
X142922081Y-139323271D02*
X142843411Y-139336324D01*
X142843411Y-139336324D02*
X142764389Y-139347613D01*
X142764389Y-139347613D02*
X142684661Y-139356432D01*
X142684661Y-139356432D02*
X142604228Y-139363840D01*
X142604228Y-139363840D02*
X142523442Y-139368779D01*
X142523442Y-139368779D02*
X142441950Y-139371954D01*
X142441950Y-139371954D02*
X142360106Y-139373013D01*
X142360106Y-139373013D02*
X142278261Y-139371954D01*
X142278261Y-139371954D02*
X142196417Y-139368779D01*
X142196417Y-139368779D02*
X142115983Y-139363840D01*
X142115983Y-139363840D02*
X142035197Y-139356432D01*
X142035197Y-139356432D02*
X141955822Y-139347613D01*
X141955822Y-139347613D02*
X141876447Y-139336324D01*
X141876447Y-139336324D02*
X141797778Y-139323271D01*
X141797778Y-139323271D02*
X141720167Y-139308454D01*
X141720167Y-139308454D02*
X141642908Y-139291874D01*
X141642908Y-139291874D02*
X141566708Y-139273177D01*
X141566708Y-139273177D02*
X141490861Y-139252363D01*
X141490861Y-139252363D02*
X141415720Y-139230490D01*
X141415720Y-139230490D02*
X141341636Y-139206149D01*
X141341636Y-139206149D02*
X141268258Y-139180396D01*
X141268258Y-139180396D02*
X141195939Y-139152879D01*
X141195939Y-139152879D02*
X141124325Y-139123599D01*
X141124325Y-139123599D02*
X141053417Y-139092554D01*
X141053417Y-139092554D02*
X140983567Y-139059746D01*
X140983567Y-139059746D02*
X140914422Y-139025879D01*
X140914422Y-139025879D02*
X140846689Y-138989543D01*
X140846689Y-138989543D02*
X140780014Y-138952502D01*
X140780014Y-138952502D02*
X140713692Y-138913343D01*
X140713692Y-138913343D02*
X140648781Y-138872774D01*
X140648781Y-138872774D02*
X140584928Y-138830793D01*
X140584928Y-138830793D02*
X140522133Y-138787049D01*
X140522133Y-138787049D02*
X140460397Y-138742246D01*
X140460397Y-138742246D02*
X140399720Y-138695679D01*
X140399720Y-138695679D02*
X140340453Y-138647702D01*
X140340453Y-138647702D02*
X140282245Y-138598665D01*
X140282245Y-138598665D02*
X140225095Y-138548218D01*
X140225095Y-138548218D02*
X140169356Y-138496360D01*
X140169356Y-138496360D02*
X140115028Y-138442738D01*
X140115028Y-138442738D02*
X140061758Y-138388410D01*
X140061758Y-138388410D02*
X140009900Y-138332671D01*
X140009900Y-138332671D02*
X139959100Y-138275874D01*
X139959100Y-138275874D02*
X139910064Y-138217665D01*
X139910064Y-138217665D02*
X139862086Y-138158399D01*
X139862086Y-138158399D02*
X139815872Y-138097721D01*
X139815872Y-138097721D02*
X139770717Y-138035985D01*
X139770717Y-138035985D02*
X139727325Y-137972838D01*
X139727325Y-137972838D02*
X139685345Y-137909338D01*
X139685345Y-137909338D02*
X139644775Y-137844427D01*
X139644775Y-137844427D02*
X139605617Y-137778104D01*
X139605617Y-137778104D02*
X139568222Y-137711429D01*
X139568222Y-137711429D02*
X139532239Y-137643343D01*
X139532239Y-137643343D02*
X139498372Y-137574199D01*
X139498372Y-137574199D02*
X139465564Y-137504349D01*
X139465564Y-137504349D02*
X139434520Y-137433793D01*
X139434520Y-137433793D02*
X139405239Y-137362179D01*
X139405239Y-137362179D02*
X139377722Y-137289860D01*
X139377722Y-137289860D02*
X139351970Y-137216482D01*
X139351970Y-137216482D02*
X139327628Y-137142046D01*
X139327628Y-137142046D02*
X139305403Y-137067257D01*
X139305403Y-137067257D02*
X139284942Y-136991410D01*
X139284942Y-136991410D02*
X139266245Y-136914857D01*
X139266245Y-136914857D02*
X139249664Y-136837599D01*
X139249664Y-136837599D02*
X139234847Y-136759988D01*
X139234847Y-136759988D02*
X139221795Y-136681318D01*
X139221795Y-136681318D02*
X139210506Y-136602296D01*
X139210506Y-136602296D02*
X139201333Y-136522568D01*
X139201333Y-136522568D02*
X139194278Y-136442135D01*
X139194278Y-136442135D02*
X139189339Y-136361349D01*
X139189339Y-136361349D02*
X139186164Y-136279857D01*
X139186164Y-136279857D02*
X139185106Y-136198013D01*
X139185106Y-136198013D02*
X139186164Y-136116168D01*
X139186164Y-136116168D02*
X139189339Y-136034677D01*
X139189339Y-136034677D02*
X139194278Y-135953890D01*
X139194278Y-135953890D02*
X139201333Y-135873457D01*
X139201333Y-135873457D02*
X139210506Y-135793729D01*
X139210506Y-135793729D02*
X139221795Y-135714354D01*
X139221795Y-135714354D02*
X139234847Y-135636038D01*
X139234847Y-135636038D02*
X139249664Y-135558427D01*
X139249664Y-135558427D02*
X139266245Y-135481168D01*
X139266245Y-135481168D02*
X139284942Y-135404615D01*
X139284942Y-135404615D02*
X139305403Y-135328768D01*
X139305403Y-135328768D02*
X139327628Y-135253627D01*
X139327628Y-135253627D02*
X139351970Y-135179543D01*
X139351970Y-135179543D02*
X139377722Y-135106165D01*
X139377722Y-135106165D02*
X139405239Y-135033846D01*
X139405239Y-135033846D02*
X139434520Y-134962232D01*
X139434520Y-134962232D02*
X139465564Y-134891324D01*
X139465564Y-134891324D02*
X139498372Y-134821474D01*
X139498372Y-134821474D02*
X139532239Y-134752329D01*
X139532239Y-134752329D02*
X139568222Y-134684596D01*
X139568222Y-134684596D02*
X139605617Y-134617921D01*
X139605617Y-134617921D02*
X139644775Y-134551599D01*
X139644775Y-134551599D02*
X139685345Y-134486688D01*
X139685345Y-134486688D02*
X139727325Y-134422835D01*
X139727325Y-134422835D02*
X139770717Y-134360041D01*
X139770717Y-134360041D02*
X139815872Y-134298304D01*
X139815872Y-134298304D02*
X139862086Y-134237627D01*
X139862086Y-134237627D02*
X139910064Y-134178360D01*
X139910064Y-134178360D02*
X139959100Y-134120152D01*
X139959100Y-134120152D02*
X140009900Y-134063002D01*
X140009900Y-134063002D02*
X140061758Y-134007616D01*
X140061758Y-134007616D02*
X140115028Y-133952935D01*
X140115028Y-133952935D02*
X140169356Y-133899666D01*
X140169356Y-133899666D02*
X140225095Y-133847807D01*
X140225095Y-133847807D02*
X140282245Y-133797007D01*
X140282245Y-133797007D02*
X140340453Y-133747971D01*
X140340453Y-133747971D02*
X140399720Y-133700346D01*
X140399720Y-133700346D02*
X140460397Y-133653779D01*
X140460397Y-133653779D02*
X140522133Y-133608624D01*
X140522133Y-133608624D02*
X140584928Y-133565232D01*
X140584928Y-133565232D02*
X140648781Y-133523252D01*
X140648781Y-133523252D02*
X140713692Y-133482682D01*
X140713692Y-133482682D02*
X140780014Y-133443524D01*
X140780014Y-133443524D02*
X140846689Y-133406129D01*
X140846689Y-133406129D02*
X140914422Y-133370146D01*
X140914422Y-133370146D02*
X140983567Y-133336279D01*
X140983567Y-133336279D02*
X141053417Y-133303471D01*
X141053417Y-133303471D02*
X141124325Y-133272427D01*
X141124325Y-133272427D02*
X141195939Y-133243146D01*
X141195939Y-133243146D02*
X141268258Y-133215629D01*
X141268258Y-133215629D02*
X141341636Y-133189877D01*
X141341636Y-133189877D02*
X141415720Y-133165535D01*
X141415720Y-133165535D02*
X141490861Y-133143663D01*
X141490861Y-133143663D02*
X141566708Y-133122849D01*
X141566708Y-133122849D02*
X141642908Y-133104152D01*
X141642908Y-133104152D02*
X141720167Y-133087571D01*
X141720167Y-133087571D02*
X141797778Y-133072754D01*
X141797778Y-133072754D02*
X141876447Y-133059702D01*
X141876447Y-133059702D02*
X141955822Y-133048413D01*
X141955822Y-133048413D02*
X142035197Y-133039241D01*
X142035197Y-133039241D02*
X142115983Y-133032185D01*
X142115983Y-133032185D02*
X142196417Y-133027246D01*
X142196417Y-133027246D02*
X142278261Y-133024071D01*
X142278261Y-133024071D02*
X142360106Y-133023013D01*
X142360106Y-133023013D02*
X142441950Y-133024071D01*
X142441950Y-133024071D02*
X142523442Y-133027246D01*
X142523442Y-133027246D02*
X142604228Y-133032185D01*
X142604228Y-133032185D02*
X142684661Y-133039241D01*
X142684661Y-133039241D02*
X142764389Y-133048413D01*
X142764389Y-133048413D02*
X142843411Y-133059702D01*
X142843411Y-133059702D02*
X142922081Y-133072754D01*
X142922081Y-133072754D02*
X142999692Y-133087571D01*
X142999692Y-133087571D02*
X143076950Y-133104152D01*
X143076950Y-133104152D02*
X143153503Y-133122849D01*
X143153503Y-133122849D02*
X143229350Y-133143663D01*
X143229350Y-133143663D02*
X143304139Y-133165535D01*
X143304139Y-133165535D02*
X143378222Y-133189877D01*
X143378222Y-133189877D02*
X143451600Y-133215629D01*
X143451600Y-133215629D02*
X143524272Y-133243146D01*
X143524272Y-133243146D02*
X143595886Y-133272427D01*
X143595886Y-133272427D02*
X143666442Y-133303471D01*
X143666442Y-133303471D02*
X143736292Y-133336279D01*
X143736292Y-133336279D02*
X143805436Y-133370146D01*
X143805436Y-133370146D02*
X143873169Y-133406129D01*
X143873169Y-133406129D02*
X143940197Y-133443524D01*
X143940197Y-133443524D02*
X144006167Y-133482682D01*
X144006167Y-133482682D02*
X144071431Y-133523252D01*
X144071431Y-133523252D02*
X144134931Y-133565232D01*
X144134931Y-133565232D02*
X144198078Y-133608624D01*
X144198078Y-133608624D02*
X144259814Y-133653779D01*
X144259814Y-133653779D02*
X144320139Y-133700346D01*
X144320139Y-133700346D02*
X144379758Y-133747971D01*
X144379758Y-133747971D02*
X144437967Y-133797007D01*
X144437967Y-133797007D02*
X144494764Y-133847807D01*
X144494764Y-133847807D02*
X144550503Y-133899666D01*
X144550503Y-133899666D02*
X144604831Y-133952935D01*
X144604831Y-133952935D02*
X144658453Y-134007616D01*
X144658453Y-134007616D02*
X144709958Y-134063002D01*
X144709958Y-134063002D02*
X144760758Y-134120152D01*
X144760758Y-134120152D02*
X144809794Y-134178360D01*
X144809794Y-134178360D02*
X144857772Y-134237627D01*
X144857772Y-134237627D02*
X144904339Y-134298304D01*
X144904339Y-134298304D02*
X144949142Y-134360041D01*
X144949142Y-134360041D02*
X144992886Y-134422835D01*
X144992886Y-134422835D02*
X145034867Y-134486688D01*
X145034867Y-134486688D02*
X145075083Y-134551599D01*
X145075083Y-134551599D02*
X145114594Y-134617921D01*
X145114594Y-134617921D02*
X145151636Y-134684596D01*
X145151636Y-134684596D02*
X145187619Y-134752329D01*
X145187619Y-134752329D02*
X145221839Y-134821474D01*
X145221839Y-134821474D02*
X145254647Y-134891324D01*
X145254647Y-134891324D02*
X145285339Y-134962232D01*
X145285339Y-134962232D02*
X145314619Y-135033846D01*
X145314619Y-135033846D02*
X145342136Y-135106165D01*
X145342136Y-135106165D02*
X145367889Y-135179543D01*
X145367889Y-135179543D02*
X145392231Y-135253627D01*
X145392231Y-135253627D02*
X145414456Y-135328768D01*
X145414456Y-135328768D02*
X145435269Y-135404615D01*
X145435269Y-135404615D02*
X145453967Y-135481168D01*
X145453967Y-135481168D02*
X145470194Y-135558427D01*
X145470194Y-135558427D02*
X145485364Y-135636038D01*
X145485364Y-135636038D02*
X145498417Y-135714354D01*
X145498417Y-135714354D02*
X145509706Y-135793729D01*
X145509706Y-135793729D02*
X145518525Y-135873457D01*
X145518525Y-135873457D02*
X145525933Y-135953890D01*
X145525933Y-135953890D02*
X145530872Y-136034677D01*
X145530872Y-136034677D02*
X145534047Y-136116168D01*
X145534047Y-136116168D02*
X145535106Y-136198013D01*
X145535106Y-136198013D02*
X145535106Y-136198013D01*
X145534753Y-77285148D02*
X145530519Y-77448484D01*
X145530519Y-77448484D02*
X145518525Y-77609704D01*
X145518525Y-77609704D02*
X145498064Y-77768806D01*
X145498064Y-77768806D02*
X145470194Y-77925087D01*
X145470194Y-77925087D02*
X145434917Y-78078545D01*
X145434917Y-78078545D02*
X145392231Y-78229181D01*
X145392231Y-78229181D02*
X145342136Y-78376643D01*
X145342136Y-78376643D02*
X145285339Y-78520929D01*
X145285339Y-78520929D02*
X145221839Y-78661687D01*
X145221839Y-78661687D02*
X145151636Y-78798565D01*
X145151636Y-78798565D02*
X145075083Y-78931562D01*
X145075083Y-78931562D02*
X144992533Y-79060326D01*
X144992533Y-79060326D02*
X144903986Y-79184856D01*
X144903986Y-79184856D02*
X144809794Y-79304801D01*
X144809794Y-79304801D02*
X144709958Y-79419806D01*
X144709958Y-79419806D02*
X144604831Y-79530226D01*
X144604831Y-79530226D02*
X144494764Y-79635354D01*
X144494764Y-79635354D02*
X144379758Y-79735190D01*
X144379758Y-79735190D02*
X144259461Y-79829381D01*
X144259461Y-79829381D02*
X144134931Y-79917929D01*
X144134931Y-79917929D02*
X144006167Y-80000479D01*
X144006167Y-80000479D02*
X143873169Y-80077031D01*
X143873169Y-80077031D02*
X143736292Y-80146881D01*
X143736292Y-80146881D02*
X143595886Y-80210734D01*
X143595886Y-80210734D02*
X143451600Y-80267531D01*
X143451600Y-80267531D02*
X143304139Y-80317273D01*
X143304139Y-80317273D02*
X143153503Y-80360312D01*
X143153503Y-80360312D02*
X142999692Y-80395590D01*
X142999692Y-80395590D02*
X142843411Y-80423459D01*
X142843411Y-80423459D02*
X142684661Y-80443920D01*
X142684661Y-80443920D02*
X142523442Y-80455915D01*
X142523442Y-80455915D02*
X142359753Y-80460148D01*
X142359753Y-80460148D02*
X142196417Y-80455915D01*
X142196417Y-80455915D02*
X142035197Y-80443920D01*
X142035197Y-80443920D02*
X141876447Y-80423459D01*
X141876447Y-80423459D02*
X141720167Y-80395590D01*
X141720167Y-80395590D02*
X141566356Y-80360312D01*
X141566356Y-80360312D02*
X141415720Y-80317273D01*
X141415720Y-80317273D02*
X141268258Y-80267531D01*
X141268258Y-80267531D02*
X141123972Y-80210734D01*
X141123972Y-80210734D02*
X140983567Y-80146881D01*
X140983567Y-80146881D02*
X140846689Y-80077031D01*
X140846689Y-80077031D02*
X140713692Y-80000479D01*
X140713692Y-80000479D02*
X140584928Y-79917929D01*
X140584928Y-79917929D02*
X140460397Y-79829381D01*
X140460397Y-79829381D02*
X140340100Y-79735190D01*
X140340100Y-79735190D02*
X140225095Y-79635354D01*
X140225095Y-79635354D02*
X140115028Y-79530226D01*
X140115028Y-79530226D02*
X140009900Y-79419806D01*
X140009900Y-79419806D02*
X139910064Y-79304801D01*
X139910064Y-79304801D02*
X139815520Y-79184856D01*
X139815520Y-79184856D02*
X139727325Y-79060326D01*
X139727325Y-79060326D02*
X139644775Y-78931562D01*
X139644775Y-78931562D02*
X139568222Y-78798565D01*
X139568222Y-78798565D02*
X139498020Y-78661687D01*
X139498020Y-78661687D02*
X139434520Y-78520929D01*
X139434520Y-78520929D02*
X139377722Y-78376643D01*
X139377722Y-78376643D02*
X139327628Y-78229181D01*
X139327628Y-78229181D02*
X139284942Y-78078545D01*
X139284942Y-78078545D02*
X139249664Y-77925087D01*
X139249664Y-77925087D02*
X139221442Y-77768806D01*
X139221442Y-77768806D02*
X139201333Y-77609704D01*
X139201333Y-77609704D02*
X139188986Y-77448484D01*
X139188986Y-77448484D02*
X139184753Y-77285148D01*
X139184753Y-77285148D02*
X139188986Y-77121812D01*
X139188986Y-77121812D02*
X139201333Y-76960593D01*
X139201333Y-76960593D02*
X139221442Y-76801490D01*
X139221442Y-76801490D02*
X139249664Y-76645562D01*
X139249664Y-76645562D02*
X139284942Y-76491751D01*
X139284942Y-76491751D02*
X139327628Y-76341115D01*
X139327628Y-76341115D02*
X139377722Y-76193654D01*
X139377722Y-76193654D02*
X139434520Y-76049368D01*
X139434520Y-76049368D02*
X139498020Y-75908609D01*
X139498020Y-75908609D02*
X139568222Y-75771732D01*
X139568222Y-75771732D02*
X139644775Y-75638734D01*
X139644775Y-75638734D02*
X139727325Y-75509970D01*
X139727325Y-75509970D02*
X139815520Y-75385440D01*
X139815520Y-75385440D02*
X139910064Y-75265495D01*
X139910064Y-75265495D02*
X140009900Y-75150490D01*
X140009900Y-75150490D02*
X140115028Y-75040070D01*
X140115028Y-75040070D02*
X140225095Y-74934943D01*
X140225095Y-74934943D02*
X140340100Y-74835107D01*
X140340100Y-74835107D02*
X140460397Y-74740915D01*
X140460397Y-74740915D02*
X140584928Y-74652368D01*
X140584928Y-74652368D02*
X140713692Y-74569818D01*
X140713692Y-74569818D02*
X140846689Y-74493265D01*
X140846689Y-74493265D02*
X140983567Y-74423415D01*
X140983567Y-74423415D02*
X141123972Y-74359915D01*
X141123972Y-74359915D02*
X141268258Y-74302765D01*
X141268258Y-74302765D02*
X141415720Y-74253023D01*
X141415720Y-74253023D02*
X141566356Y-74209984D01*
X141566356Y-74209984D02*
X141720167Y-74174707D01*
X141720167Y-74174707D02*
X141876447Y-74146837D01*
X141876447Y-74146837D02*
X142035197Y-74126376D01*
X142035197Y-74126376D02*
X142196417Y-74114382D01*
X142196417Y-74114382D02*
X142359753Y-74110148D01*
X142359753Y-74110148D02*
X142523442Y-74114382D01*
X142523442Y-74114382D02*
X142684661Y-74126376D01*
X142684661Y-74126376D02*
X142843411Y-74146837D01*
X142843411Y-74146837D02*
X142999692Y-74174707D01*
X142999692Y-74174707D02*
X143153503Y-74209984D01*
X143153503Y-74209984D02*
X143304139Y-74253023D01*
X143304139Y-74253023D02*
X143451600Y-74302765D01*
X143451600Y-74302765D02*
X143595886Y-74359915D01*
X143595886Y-74359915D02*
X143736292Y-74423415D01*
X143736292Y-74423415D02*
X143873169Y-74493265D01*
X143873169Y-74493265D02*
X144006167Y-74569818D01*
X144006167Y-74569818D02*
X144134931Y-74652368D01*
X144134931Y-74652368D02*
X144259461Y-74740915D01*
X144259461Y-74740915D02*
X144379758Y-74835107D01*
X144379758Y-74835107D02*
X144494764Y-74934943D01*
X144494764Y-74934943D02*
X144604831Y-75040070D01*
X144604831Y-75040070D02*
X144709958Y-75150490D01*
X144709958Y-75150490D02*
X144809794Y-75265495D01*
X144809794Y-75265495D02*
X144903986Y-75385440D01*
X144903986Y-75385440D02*
X144992533Y-75509970D01*
X144992533Y-75509970D02*
X145075083Y-75638734D01*
X145075083Y-75638734D02*
X145151636Y-75771732D01*
X145151636Y-75771732D02*
X145221839Y-75908609D01*
X145221839Y-75908609D02*
X145285339Y-76049368D01*
X145285339Y-76049368D02*
X145342136Y-76193654D01*
X145342136Y-76193654D02*
X145392231Y-76341115D01*
X145392231Y-76341115D02*
X145434917Y-76491751D01*
X145434917Y-76491751D02*
X145470194Y-76645562D01*
X145470194Y-76645562D02*
X145498064Y-76801490D01*
X145498064Y-76801490D02*
X145518525Y-76960593D01*
X145518525Y-76960593D02*
X145530519Y-77121812D01*
X145530519Y-77121812D02*
X145534753Y-77285148D01*
X145534753Y-77285148D02*
X145534753Y-77285148D01*
X145535776Y-91239873D02*
X145531542Y-91403209D01*
X145531542Y-91403209D02*
X145519548Y-91564428D01*
X145519548Y-91564428D02*
X145499087Y-91723531D01*
X145499087Y-91723531D02*
X145471217Y-91879811D01*
X145471217Y-91879811D02*
X145435940Y-92033270D01*
X145435940Y-92033270D02*
X145393254Y-92183906D01*
X145393254Y-92183906D02*
X145343159Y-92331720D01*
X145343159Y-92331720D02*
X145286362Y-92475653D01*
X145286362Y-92475653D02*
X145222862Y-92616411D01*
X145222862Y-92616411D02*
X145152659Y-92753289D01*
X145152659Y-92753289D02*
X145076106Y-92886286D01*
X145076106Y-92886286D02*
X144993556Y-93015050D01*
X144993556Y-93015050D02*
X144905009Y-93139581D01*
X144905009Y-93139581D02*
X144810817Y-93259525D01*
X144810817Y-93259525D02*
X144710981Y-93374531D01*
X144710981Y-93374531D02*
X144605854Y-93484950D01*
X144605854Y-93484950D02*
X144495787Y-93590078D01*
X144495787Y-93590078D02*
X144380781Y-93689914D01*
X144380781Y-93689914D02*
X144260484Y-93784106D01*
X144260484Y-93784106D02*
X144135954Y-93872653D01*
X144135954Y-93872653D02*
X144007190Y-93955203D01*
X144007190Y-93955203D02*
X143874193Y-94031756D01*
X143874193Y-94031756D02*
X143737315Y-94101959D01*
X143737315Y-94101959D02*
X143596909Y-94165459D01*
X143596909Y-94165459D02*
X143452623Y-94222256D01*
X143452623Y-94222256D02*
X143305162Y-94272350D01*
X143305162Y-94272350D02*
X143154526Y-94315036D01*
X143154526Y-94315036D02*
X143000715Y-94350314D01*
X143000715Y-94350314D02*
X142844434Y-94378184D01*
X142844434Y-94378184D02*
X142685684Y-94398645D01*
X142685684Y-94398645D02*
X142524465Y-94410639D01*
X142524465Y-94410639D02*
X142360776Y-94414873D01*
X142360776Y-94414873D02*
X142197440Y-94410639D01*
X142197440Y-94410639D02*
X142036220Y-94398645D01*
X142036220Y-94398645D02*
X141877470Y-94378184D01*
X141877470Y-94378184D02*
X141721190Y-94350314D01*
X141721190Y-94350314D02*
X141567379Y-94315036D01*
X141567379Y-94315036D02*
X141416743Y-94272350D01*
X141416743Y-94272350D02*
X141269281Y-94222256D01*
X141269281Y-94222256D02*
X141124995Y-94165459D01*
X141124995Y-94165459D02*
X140984590Y-94101959D01*
X140984590Y-94101959D02*
X140847712Y-94031756D01*
X140847712Y-94031756D02*
X140714715Y-93955203D01*
X140714715Y-93955203D02*
X140585951Y-93872653D01*
X140585951Y-93872653D02*
X140461068Y-93784106D01*
X140461068Y-93784106D02*
X140341123Y-93689914D01*
X140341123Y-93689914D02*
X140226118Y-93590078D01*
X140226118Y-93590078D02*
X140116051Y-93484950D01*
X140116051Y-93484950D02*
X140010923Y-93374531D01*
X140010923Y-93374531D02*
X139911087Y-93259525D01*
X139911087Y-93259525D02*
X139816543Y-93139581D01*
X139816543Y-93139581D02*
X139727995Y-93015050D01*
X139727995Y-93015050D02*
X139645798Y-92886286D01*
X139645798Y-92886286D02*
X139569245Y-92753289D01*
X139569245Y-92753289D02*
X139499043Y-92616411D01*
X139499043Y-92616411D02*
X139435543Y-92475653D01*
X139435543Y-92475653D02*
X139378745Y-92331720D01*
X139378745Y-92331720D02*
X139328651Y-92183906D01*
X139328651Y-92183906D02*
X139285965Y-92033270D01*
X139285965Y-92033270D02*
X139250687Y-91879811D01*
X139250687Y-91879811D02*
X139222465Y-91723531D01*
X139222465Y-91723531D02*
X139202357Y-91564428D01*
X139202357Y-91564428D02*
X139190009Y-91403209D01*
X139190009Y-91403209D02*
X139185776Y-91239873D01*
X139185776Y-91239873D02*
X139190009Y-91076536D01*
X139190009Y-91076536D02*
X139202357Y-90915317D01*
X139202357Y-90915317D02*
X139222465Y-90756214D01*
X139222465Y-90756214D02*
X139250687Y-90600286D01*
X139250687Y-90600286D02*
X139285965Y-90446475D01*
X139285965Y-90446475D02*
X139328651Y-90295839D01*
X139328651Y-90295839D02*
X139378745Y-90148378D01*
X139378745Y-90148378D02*
X139435543Y-90004092D01*
X139435543Y-90004092D02*
X139499043Y-89863334D01*
X139499043Y-89863334D02*
X139569245Y-89726456D01*
X139569245Y-89726456D02*
X139645798Y-89593459D01*
X139645798Y-89593459D02*
X139727995Y-89464695D01*
X139727995Y-89464695D02*
X139816543Y-89340164D01*
X139816543Y-89340164D02*
X139911087Y-89220220D01*
X139911087Y-89220220D02*
X140010923Y-89105214D01*
X140010923Y-89105214D02*
X140116051Y-88994795D01*
X140116051Y-88994795D02*
X140226118Y-88889667D01*
X140226118Y-88889667D02*
X140341123Y-88789831D01*
X140341123Y-88789831D02*
X140461068Y-88695639D01*
X140461068Y-88695639D02*
X140585951Y-88607092D01*
X140585951Y-88607092D02*
X140714715Y-88524542D01*
X140714715Y-88524542D02*
X140847712Y-88447989D01*
X140847712Y-88447989D02*
X140984590Y-88378139D01*
X140984590Y-88378139D02*
X141124995Y-88314639D01*
X141124995Y-88314639D02*
X141269281Y-88257489D01*
X141269281Y-88257489D02*
X141416743Y-88207748D01*
X141416743Y-88207748D02*
X141567379Y-88165062D01*
X141567379Y-88165062D02*
X141721190Y-88129431D01*
X141721190Y-88129431D02*
X141877470Y-88101562D01*
X141877470Y-88101562D02*
X142036220Y-88081100D01*
X142036220Y-88081100D02*
X142197440Y-88069106D01*
X142197440Y-88069106D02*
X142360776Y-88064873D01*
X142360776Y-88064873D02*
X142524465Y-88069106D01*
X142524465Y-88069106D02*
X142685684Y-88081100D01*
X142685684Y-88081100D02*
X142844434Y-88101562D01*
X142844434Y-88101562D02*
X143000715Y-88129431D01*
X143000715Y-88129431D02*
X143154526Y-88165062D01*
X143154526Y-88165062D02*
X143305162Y-88207748D01*
X143305162Y-88207748D02*
X143452623Y-88257489D01*
X143452623Y-88257489D02*
X143596909Y-88314639D01*
X143596909Y-88314639D02*
X143737315Y-88378139D01*
X143737315Y-88378139D02*
X143874193Y-88447989D01*
X143874193Y-88447989D02*
X144007190Y-88524542D01*
X144007190Y-88524542D02*
X144135954Y-88607092D01*
X144135954Y-88607092D02*
X144260484Y-88695639D01*
X144260484Y-88695639D02*
X144380781Y-88789831D01*
X144380781Y-88789831D02*
X144495787Y-88889667D01*
X144495787Y-88889667D02*
X144605854Y-88994795D01*
X144605854Y-88994795D02*
X144710981Y-89105214D01*
X144710981Y-89105214D02*
X144810817Y-89220220D01*
X144810817Y-89220220D02*
X144905009Y-89340164D01*
X144905009Y-89340164D02*
X144993556Y-89464695D01*
X144993556Y-89464695D02*
X145076106Y-89593459D01*
X145076106Y-89593459D02*
X145152659Y-89726456D01*
X145152659Y-89726456D02*
X145222862Y-89863334D01*
X145222862Y-89863334D02*
X145286362Y-90004092D01*
X145286362Y-90004092D02*
X145343159Y-90148378D01*
X145343159Y-90148378D02*
X145393254Y-90295839D01*
X145393254Y-90295839D02*
X145435940Y-90446475D01*
X145435940Y-90446475D02*
X145471217Y-90600286D01*
X145471217Y-90600286D02*
X145499087Y-90756214D01*
X145499087Y-90756214D02*
X145519548Y-90915317D01*
X145519548Y-90915317D02*
X145531542Y-91076536D01*
X145531542Y-91076536D02*
X145535776Y-91239873D01*
X145535776Y-91239873D02*
X145535776Y-91239873D01*
X145535106Y-106145933D02*
X145530872Y-106309269D01*
X145530872Y-106309269D02*
X145518525Y-106470488D01*
X145518525Y-106470488D02*
X145498417Y-106629591D01*
X145498417Y-106629591D02*
X145470194Y-106785519D01*
X145470194Y-106785519D02*
X145435269Y-106939330D01*
X145435269Y-106939330D02*
X145392231Y-107089966D01*
X145392231Y-107089966D02*
X145342136Y-107237427D01*
X145342136Y-107237427D02*
X145285339Y-107381713D01*
X145285339Y-107381713D02*
X145221839Y-107522472D01*
X145221839Y-107522472D02*
X145151636Y-107659349D01*
X145151636Y-107659349D02*
X145075083Y-107792347D01*
X145075083Y-107792347D02*
X144992886Y-107921111D01*
X144992886Y-107921111D02*
X144904339Y-108045641D01*
X144904339Y-108045641D02*
X144809794Y-108165586D01*
X144809794Y-108165586D02*
X144709958Y-108280591D01*
X144709958Y-108280591D02*
X144604831Y-108391011D01*
X144604831Y-108391011D02*
X144494764Y-108496138D01*
X144494764Y-108496138D02*
X144379758Y-108595974D01*
X144379758Y-108595974D02*
X144259814Y-108690166D01*
X144259814Y-108690166D02*
X144134931Y-108778713D01*
X144134931Y-108778713D02*
X144006167Y-108861263D01*
X144006167Y-108861263D02*
X143873169Y-108937816D01*
X143873169Y-108937816D02*
X143736292Y-109007666D01*
X143736292Y-109007666D02*
X143595886Y-109071166D01*
X143595886Y-109071166D02*
X143451600Y-109128316D01*
X143451600Y-109128316D02*
X143304139Y-109178058D01*
X143304139Y-109178058D02*
X143153503Y-109221097D01*
X143153503Y-109221097D02*
X142999692Y-109256374D01*
X142999692Y-109256374D02*
X142843411Y-109284244D01*
X142843411Y-109284244D02*
X142684661Y-109304705D01*
X142684661Y-109304705D02*
X142523442Y-109316699D01*
X142523442Y-109316699D02*
X142360106Y-109320933D01*
X142360106Y-109320933D02*
X142196417Y-109316699D01*
X142196417Y-109316699D02*
X142035197Y-109304705D01*
X142035197Y-109304705D02*
X141876447Y-109284244D01*
X141876447Y-109284244D02*
X141720167Y-109256374D01*
X141720167Y-109256374D02*
X141566708Y-109221097D01*
X141566708Y-109221097D02*
X141415720Y-109178058D01*
X141415720Y-109178058D02*
X141268258Y-109128316D01*
X141268258Y-109128316D02*
X141124325Y-109071166D01*
X141124325Y-109071166D02*
X140983567Y-109007666D01*
X140983567Y-109007666D02*
X140846689Y-108937816D01*
X140846689Y-108937816D02*
X140713692Y-108861263D01*
X140713692Y-108861263D02*
X140584928Y-108778713D01*
X140584928Y-108778713D02*
X140460397Y-108690166D01*
X140460397Y-108690166D02*
X140340453Y-108595974D01*
X140340453Y-108595974D02*
X140225095Y-108496138D01*
X140225095Y-108496138D02*
X140115028Y-108391011D01*
X140115028Y-108391011D02*
X140009900Y-108280591D01*
X140009900Y-108280591D02*
X139910064Y-108165586D01*
X139910064Y-108165586D02*
X139815872Y-108045641D01*
X139815872Y-108045641D02*
X139727325Y-107921111D01*
X139727325Y-107921111D02*
X139644775Y-107792347D01*
X139644775Y-107792347D02*
X139568222Y-107659349D01*
X139568222Y-107659349D02*
X139498372Y-107522472D01*
X139498372Y-107522472D02*
X139434520Y-107381713D01*
X139434520Y-107381713D02*
X139377722Y-107237427D01*
X139377722Y-107237427D02*
X139327628Y-107089966D01*
X139327628Y-107089966D02*
X139284942Y-106939330D01*
X139284942Y-106939330D02*
X139249664Y-106785519D01*
X139249664Y-106785519D02*
X139221795Y-106629591D01*
X139221795Y-106629591D02*
X139201333Y-106470488D01*
X139201333Y-106470488D02*
X139189339Y-106309269D01*
X139189339Y-106309269D02*
X139185106Y-106145933D01*
X139185106Y-106145933D02*
X139189339Y-105982597D01*
X139189339Y-105982597D02*
X139201333Y-105821377D01*
X139201333Y-105821377D02*
X139221795Y-105662274D01*
X139221795Y-105662274D02*
X139249664Y-105505994D01*
X139249664Y-105505994D02*
X139284942Y-105352536D01*
X139284942Y-105352536D02*
X139327628Y-105201899D01*
X139327628Y-105201899D02*
X139377722Y-105054438D01*
X139377722Y-105054438D02*
X139434520Y-104910152D01*
X139434520Y-104910152D02*
X139498372Y-104769394D01*
X139498372Y-104769394D02*
X139568222Y-104632516D01*
X139568222Y-104632516D02*
X139644775Y-104499519D01*
X139644775Y-104499519D02*
X139727325Y-104370755D01*
X139727325Y-104370755D02*
X139815872Y-104246225D01*
X139815872Y-104246225D02*
X139910064Y-104126280D01*
X139910064Y-104126280D02*
X140009900Y-104011275D01*
X140009900Y-104011275D02*
X140115028Y-103900855D01*
X140115028Y-103900855D02*
X140225095Y-103795727D01*
X140225095Y-103795727D02*
X140340453Y-103695891D01*
X140340453Y-103695891D02*
X140460397Y-103601700D01*
X140460397Y-103601700D02*
X140584928Y-103513152D01*
X140584928Y-103513152D02*
X140713692Y-103430602D01*
X140713692Y-103430602D02*
X140846689Y-103354050D01*
X140846689Y-103354050D02*
X140983567Y-103284200D01*
X140983567Y-103284200D02*
X141124325Y-103220347D01*
X141124325Y-103220347D02*
X141268258Y-103163550D01*
X141268258Y-103163550D02*
X141415720Y-103113808D01*
X141415720Y-103113808D02*
X141566708Y-103070769D01*
X141566708Y-103070769D02*
X141720167Y-103035491D01*
X141720167Y-103035491D02*
X141876447Y-103007622D01*
X141876447Y-103007622D02*
X142035197Y-102987161D01*
X142035197Y-102987161D02*
X142196417Y-102975166D01*
X142196417Y-102975166D02*
X142360106Y-102970933D01*
X142360106Y-102970933D02*
X142523442Y-102975166D01*
X142523442Y-102975166D02*
X142684661Y-102987161D01*
X142684661Y-102987161D02*
X142843411Y-103007622D01*
X142843411Y-103007622D02*
X142999692Y-103035491D01*
X142999692Y-103035491D02*
X143153503Y-103070769D01*
X143153503Y-103070769D02*
X143304139Y-103113808D01*
X143304139Y-103113808D02*
X143451600Y-103163550D01*
X143451600Y-103163550D02*
X143595886Y-103220347D01*
X143595886Y-103220347D02*
X143736292Y-103284200D01*
X143736292Y-103284200D02*
X143873169Y-103354050D01*
X143873169Y-103354050D02*
X144006167Y-103430602D01*
X144006167Y-103430602D02*
X144134931Y-103513152D01*
X144134931Y-103513152D02*
X144259814Y-103601700D01*
X144259814Y-103601700D02*
X144379758Y-103695891D01*
X144379758Y-103695891D02*
X144494764Y-103795727D01*
X144494764Y-103795727D02*
X144604831Y-103900855D01*
X144604831Y-103900855D02*
X144709958Y-104011275D01*
X144709958Y-104011275D02*
X144809794Y-104126280D01*
X144809794Y-104126280D02*
X144904339Y-104246225D01*
X144904339Y-104246225D02*
X144992886Y-104370755D01*
X144992886Y-104370755D02*
X145075083Y-104499519D01*
X145075083Y-104499519D02*
X145151636Y-104632516D01*
X145151636Y-104632516D02*
X145221839Y-104769394D01*
X145221839Y-104769394D02*
X145285339Y-104910152D01*
X145285339Y-104910152D02*
X145342136Y-105054438D01*
X145342136Y-105054438D02*
X145392231Y-105201899D01*
X145392231Y-105201899D02*
X145435269Y-105352536D01*
X145435269Y-105352536D02*
X145470194Y-105505994D01*
X145470194Y-105505994D02*
X145498417Y-105662274D01*
X145498417Y-105662274D02*
X145518525Y-105821377D01*
X145518525Y-105821377D02*
X145530872Y-105982597D01*
X145530872Y-105982597D02*
X145535106Y-106145933D01*
X145535106Y-106145933D02*
X145535106Y-106145933D01*
X145535776Y-121213212D02*
X145531542Y-121376549D01*
X145531542Y-121376549D02*
X145519548Y-121537768D01*
X145519548Y-121537768D02*
X145499087Y-121696871D01*
X145499087Y-121696871D02*
X145471217Y-121852799D01*
X145471217Y-121852799D02*
X145435940Y-122006610D01*
X145435940Y-122006610D02*
X145393254Y-122157599D01*
X145393254Y-122157599D02*
X145343159Y-122305060D01*
X145343159Y-122305060D02*
X145286362Y-122448993D01*
X145286362Y-122448993D02*
X145222862Y-122589751D01*
X145222862Y-122589751D02*
X145152659Y-122726629D01*
X145152659Y-122726629D02*
X145076106Y-122859626D01*
X145076106Y-122859626D02*
X144993556Y-122988390D01*
X144993556Y-122988390D02*
X144905009Y-123112921D01*
X144905009Y-123112921D02*
X144810817Y-123232865D01*
X144810817Y-123232865D02*
X144710981Y-123348224D01*
X144710981Y-123348224D02*
X144605854Y-123458290D01*
X144605854Y-123458290D02*
X144495787Y-123563418D01*
X144495787Y-123563418D02*
X144380781Y-123663254D01*
X144380781Y-123663254D02*
X144260484Y-123757446D01*
X144260484Y-123757446D02*
X144135954Y-123845993D01*
X144135954Y-123845993D02*
X144007190Y-123928543D01*
X144007190Y-123928543D02*
X143874193Y-124005096D01*
X143874193Y-124005096D02*
X143737315Y-124074946D01*
X143737315Y-124074946D02*
X143596909Y-124138799D01*
X143596909Y-124138799D02*
X143452623Y-124195596D01*
X143452623Y-124195596D02*
X143305162Y-124245690D01*
X143305162Y-124245690D02*
X143154526Y-124288376D01*
X143154526Y-124288376D02*
X143000715Y-124323654D01*
X143000715Y-124323654D02*
X142844434Y-124351524D01*
X142844434Y-124351524D02*
X142685684Y-124371985D01*
X142685684Y-124371985D02*
X142524465Y-124383979D01*
X142524465Y-124383979D02*
X142360776Y-124388212D01*
X142360776Y-124388212D02*
X142197440Y-124383979D01*
X142197440Y-124383979D02*
X142036220Y-124371985D01*
X142036220Y-124371985D02*
X141877470Y-124351524D01*
X141877470Y-124351524D02*
X141721190Y-124323654D01*
X141721190Y-124323654D02*
X141567379Y-124288376D01*
X141567379Y-124288376D02*
X141416743Y-124245690D01*
X141416743Y-124245690D02*
X141269281Y-124195596D01*
X141269281Y-124195596D02*
X141124995Y-124138799D01*
X141124995Y-124138799D02*
X140984590Y-124074946D01*
X140984590Y-124074946D02*
X140847712Y-124005096D01*
X140847712Y-124005096D02*
X140714715Y-123928543D01*
X140714715Y-123928543D02*
X140585951Y-123845993D01*
X140585951Y-123845993D02*
X140461068Y-123757446D01*
X140461068Y-123757446D02*
X140341123Y-123663254D01*
X140341123Y-123663254D02*
X140226118Y-123563418D01*
X140226118Y-123563418D02*
X140116051Y-123458290D01*
X140116051Y-123458290D02*
X140010923Y-123348224D01*
X140010923Y-123348224D02*
X139911087Y-123232865D01*
X139911087Y-123232865D02*
X139816543Y-123112921D01*
X139816543Y-123112921D02*
X139727995Y-122988390D01*
X139727995Y-122988390D02*
X139645798Y-122859626D01*
X139645798Y-122859626D02*
X139569245Y-122726629D01*
X139569245Y-122726629D02*
X139499043Y-122589751D01*
X139499043Y-122589751D02*
X139435543Y-122448993D01*
X139435543Y-122448993D02*
X139378745Y-122305060D01*
X139378745Y-122305060D02*
X139328651Y-122157599D01*
X139328651Y-122157599D02*
X139285965Y-122006610D01*
X139285965Y-122006610D02*
X139250687Y-121852799D01*
X139250687Y-121852799D02*
X139222465Y-121696871D01*
X139222465Y-121696871D02*
X139202357Y-121537768D01*
X139202357Y-121537768D02*
X139190009Y-121376549D01*
X139190009Y-121376549D02*
X139185776Y-121213212D01*
X139185776Y-121213212D02*
X139190009Y-121049876D01*
X139190009Y-121049876D02*
X139202357Y-120888657D01*
X139202357Y-120888657D02*
X139222465Y-120729907D01*
X139222465Y-120729907D02*
X139250687Y-120573626D01*
X139250687Y-120573626D02*
X139285965Y-120419815D01*
X139285965Y-120419815D02*
X139328651Y-120269179D01*
X139328651Y-120269179D02*
X139378745Y-120121718D01*
X139378745Y-120121718D02*
X139435543Y-119977432D01*
X139435543Y-119977432D02*
X139499043Y-119837026D01*
X139499043Y-119837026D02*
X139569245Y-119699796D01*
X139569245Y-119699796D02*
X139645798Y-119567151D01*
X139645798Y-119567151D02*
X139727995Y-119438388D01*
X139727995Y-119438388D02*
X139816543Y-119313504D01*
X139816543Y-119313504D02*
X139911087Y-119193560D01*
X139911087Y-119193560D02*
X140010923Y-119078554D01*
X140010923Y-119078554D02*
X140116051Y-118968488D01*
X140116051Y-118968488D02*
X140226118Y-118863007D01*
X140226118Y-118863007D02*
X140341123Y-118763524D01*
X140341123Y-118763524D02*
X140461068Y-118668979D01*
X140461068Y-118668979D02*
X140585951Y-118580432D01*
X140585951Y-118580432D02*
X140714715Y-118497882D01*
X140714715Y-118497882D02*
X140847712Y-118421682D01*
X140847712Y-118421682D02*
X140984590Y-118351479D01*
X140984590Y-118351479D02*
X141124995Y-118287626D01*
X141124995Y-118287626D02*
X141269281Y-118230829D01*
X141269281Y-118230829D02*
X141416743Y-118181088D01*
X141416743Y-118181088D02*
X141567379Y-118138049D01*
X141567379Y-118138049D02*
X141721190Y-118102771D01*
X141721190Y-118102771D02*
X141877470Y-118074901D01*
X141877470Y-118074901D02*
X142036220Y-118054793D01*
X142036220Y-118054793D02*
X142197440Y-118042446D01*
X142197440Y-118042446D02*
X142360776Y-118038213D01*
X142360776Y-118038213D02*
X142524465Y-118042446D01*
X142524465Y-118042446D02*
X142685684Y-118054793D01*
X142685684Y-118054793D02*
X142844434Y-118074901D01*
X142844434Y-118074901D02*
X143000715Y-118102771D01*
X143000715Y-118102771D02*
X143154526Y-118138049D01*
X143154526Y-118138049D02*
X143305162Y-118181088D01*
X143305162Y-118181088D02*
X143452623Y-118230829D01*
X143452623Y-118230829D02*
X143596909Y-118287626D01*
X143596909Y-118287626D02*
X143737315Y-118351479D01*
X143737315Y-118351479D02*
X143874193Y-118421682D01*
X143874193Y-118421682D02*
X144007190Y-118497882D01*
X144007190Y-118497882D02*
X144135954Y-118580432D01*
X144135954Y-118580432D02*
X144260484Y-118668979D01*
X144260484Y-118668979D02*
X144380781Y-118763524D01*
X144380781Y-118763524D02*
X144495787Y-118863007D01*
X144495787Y-118863007D02*
X144605854Y-118968488D01*
X144605854Y-118968488D02*
X144710981Y-119078554D01*
X144710981Y-119078554D02*
X144810817Y-119193560D01*
X144810817Y-119193560D02*
X144905009Y-119313504D01*
X144905009Y-119313504D02*
X144993556Y-119438388D01*
X144993556Y-119438388D02*
X145076106Y-119567151D01*
X145076106Y-119567151D02*
X145152659Y-119699796D01*
X145152659Y-119699796D02*
X145222862Y-119837026D01*
X145222862Y-119837026D02*
X145286362Y-119977432D01*
X145286362Y-119977432D02*
X145343159Y-120121718D01*
X145343159Y-120121718D02*
X145393254Y-120269179D01*
X145393254Y-120269179D02*
X145435940Y-120419815D01*
X145435940Y-120419815D02*
X145471217Y-120573626D01*
X145471217Y-120573626D02*
X145499087Y-120729907D01*
X145499087Y-120729907D02*
X145519548Y-120888657D01*
X145519548Y-120888657D02*
X145531542Y-121049876D01*
X145531542Y-121049876D02*
X145535776Y-121213212D01*
X145535776Y-121213212D02*
X145535776Y-121213212D01*
M02*
